<?xml version="1.0" encoding="UTF-8" standalone="no"?>
<!-- Created with Inkscape (http://www.inkscape.org/) -->

<svg
   width="1920"
   height="1080"
   viewBox="0 0 507.99999 285.75"
   version="1.1"
   id="svg1"
   sodipodi:docname="settingsResolution.svg"
   inkscape:version="1.4.2 (ebf0e940d0, 2025-05-08)"
   xmlns:inkscape="http://www.inkscape.org/namespaces/inkscape"
   xmlns:sodipodi="http://sodipodi.sourceforge.net/DTD/sodipodi-0.dtd"
   xmlns="http://www.w3.org/2000/svg"
   xmlns:svg="http://www.w3.org/2000/svg">
  <sodipodi:namedview
     id="namedview1"
     pagecolor="#ffffff"
     bordercolor="#000000"
     borderopacity="0.25"
     inkscape:showpageshadow="2"
     inkscape:pageopacity="0.0"
     inkscape:pagecheckerboard="0"
     inkscape:deskcolor="#d1d1d1"
     inkscape:zoom="0.72592593"
     inkscape:cx="304.43878"
     inkscape:cy="391.22449"
     inkscape:window-width="1920"
     inkscape:window-height="1002"
     inkscape:window-x="0"
     inkscape:window-y="0"
     inkscape:window-maximized="1"
     inkscape:current-layer="svg1" />
  <defs
     id="defs1">
    <linearGradient
       id="swatch2">
      <stop
         style="stop-color:#000000;stop-opacity:1;"
         offset="0"
         id="stop2" />
    </linearGradient>
  </defs>
  <g
     id="layer1">
    <path
       d="m 48.539905,88.876998 q 0.620116,0 1.231963,0.06615 1.38906,0.14056 1.893421,1.008722 0.206706,0.355533 0.281119,0.69453 0.148828,0.711066 0.157097,1.48001 0,1.231964 -0.338997,1.85208 -0.330729,0.611848 -1.562692,0.975649 v 0 q 1.256768,0.347265 1.554424,0.851626 0.297655,0.496093 0.297655,1.785934 v 1.215427 h -3.026166 l -0.0248,-0.917771 q 0,-0.942577 -0.223242,-1.223696 -0.248046,-0.330728 -1.174086,-0.32246 h -4.803832 v 2.463927 h -3.026166 v -9.930123 z m -5.73814,2.563146 v 2.339904 h 4.233325 q 0.446484,0.0083 0.959113,-0.01654 0.380338,-0.0083 0.628384,-0.115755 0.446483,-0.206705 0.454752,-1.074867 0.0083,-0.60358 -0.314192,-0.884699 -0.23151,-0.214974 -0.917772,-0.223242 l -0.884699,-0.0248 z m 11.418402,-2.563146 h 10.92231 v 2.315099 h -7.896144 v 1.355987 h 7.457928 v 2.149735 h -7.457928 v 1.794203 h 7.987094 v 2.315099 h -11.01326 z m 15.792287,6.564961 q 0.0083,0.802016 0.405142,1.008722 0.256315,0.132291 1.141013,0.165364 l 0.859895,0.0248 h 2.215881 0.802016 q 0.942577,-0.0248 0.917772,-0.777212 -0.01654,-0.661457 -0.628384,-0.752407 -0.165364,-0.01654 -0.611848,-0.04134 l -0.611848,-0.02481 -1.819007,-0.07441 -0.884698,-0.04961 -1.521352,-0.08268 q -0.826821,-0.03307 -1.405596,-0.132291 -1.289841,-0.214974 -1.579228,-1.281573 -0.181901,-0.60358 -0.173633,-1.289842 0,-1.256768 0.23151,-1.827275 0.388606,-0.950844 1.273305,-1.2485 0.892967,-0.305924 3.695891,-0.297655 1.504815,0.0083 2.852534,0.06615 1.959566,0.07441 2.794655,0.496093 1.033527,0.512629 1.107941,2.149735 v 0.669726 H 76.048249 L 75.99864,91.77914 q -0.09922,-0.504361 -0.520898,-0.636652 -0.1819,-0.05788 -0.859894,-0.08268 l -0.818553,-0.03307 h -1.769397 l -0.785481,0.02481 q -0.338996,0.01654 -0.595311,0.09095 -0.496093,0.115755 -0.504361,0.686262 -0.01654,0.587043 0.611848,0.735871 0.314192,0.06614 0.669725,0.07441 l 0.78548,0.01654 2.786388,0.09095 1.62057,0.06615 q 0.69453,0.04134 1.281573,0.23151 1.48001,0.496093 1.48001,2.852533 -0.01654,2.621024 -2.397782,2.918679 -0.388606,0.05788 -0.868162,0.06615 -0.992186,0.04961 -2.009176,0.04134 -1.099672,-0.0083 -3.274212,-0.07441 -0.644921,-0.01654 -1.124477,-0.05788 -1.322914,-0.09095 -2.000908,-0.677994 -0.603579,-0.529165 -0.686261,-1.976102 l -0.03307,-0.69453 z m 15.254852,3.456113 q -0.727603,0.0083 -1.281573,-0.03307 -1.413865,-0.06615 -2.158004,-0.868163 -0.32246,-0.330728 -0.471288,-0.686261 -0.405143,-0.892967 -0.413411,-3.224603 l 0.01654,-1.289842 q 0.04134,-1.306377 0.314192,-2.191076 0.347265,-1.091404 1.521351,-1.521351 0.851626,-0.314192 4.423494,-0.32246 l 2.17454,0.0083 q 2.323368,0.01654 3.059239,0.272851 1.579228,0.55397 1.80247,2.315099 0.06615,0.537434 0.07441,1.446938 l 0.0248,1.637106 q -0.0083,1.008722 -0.08268,1.719788 -0.06615,0.578775 -0.305924,1.116209 -0.702798,1.595765 -2.81946,1.637106 -0.297656,0.01654 -1.537888,0.0083 z m 3.861255,-2.538342 q 0.735871,0.0083 1.083136,-0.04961 0.611848,-0.09095 0.859894,-0.578775 0.256315,-0.496093 0.256315,-2.166272 -0.01654,-0.884698 -0.08268,-1.215427 -0.140559,-0.702798 -0.744139,-0.868162 -0.429947,-0.115755 -0.959112,-0.132292 -0.818553,-0.01654 -1.934762,-0.0248 h -1.091404 q -0.611848,0.0083 -1.223696,0.04134 -0.744139,0.04961 -1.058331,0.512629 -0.272851,0.413411 -0.264583,2.397782 0.0083,1.405596 0.46302,1.769397 0.330729,0.272851 1.843811,0.281119 z m 10.236047,-7.482732 v 7.366977 h 6.655912 v 2.563146 h -9.682078 v -9.930123 z m 8.301292,0 h 3.02617 v 5.630653 q -0.008,0.380337 0.008,0.55397 0.0165,1.141013 1.4304,1.231964 0.8847,0.06615 1.75287,0.06615 1.40559,-0.0083 1.9761,-0.07441 1.24023,-0.157096 1.29811,-1.223695 0.0165,-0.314192 0.0248,-0.760676 v -5.423947 h 3.02617 v 6.507083 l -0.0413,0.46302 q -0.11576,1.339451 -0.69453,2.000908 -0.57878,0.653188 -1.85208,0.917771 -0.32246,0.07441 -0.44649,0.08268 -0.69453,0.07441 -3.62147,0.07441 l -2.1332,-0.03307 q -2.60449,-0.03307 -3.22461,-1.496546 -0.44648,-0.983917 -0.50436,-2.240686 l -0.0248,-0.802016 z m 25.92911,0 v 2.563146 h -4.34908 v 7.366977 h -3.02616 v -7.366977 h -4.34908 v -2.563146 z m 1.71979,0 h 3.02616 v 9.930123 h -3.02616 z m 9.54979,10.021074 q -0.7276,0.0083 -1.28158,-0.03307 -1.41386,-0.06615 -2.158,-0.868163 -0.32246,-0.330728 -0.47129,-0.686261 -0.40514,-0.892967 -0.41341,-3.224603 l 0.0165,-1.289842 q 0.0413,-1.306377 0.31419,-2.191076 0.34727,-1.091404 1.52135,-1.521351 0.85163,-0.314192 4.4235,-0.32246 l 2.17454,0.0083 q 2.32336,0.01654 3.05923,0.272851 1.57923,0.55397 1.80248,2.315099 0.0661,0.537434 0.0744,1.446938 l 0.0248,1.637106 q -0.008,1.008722 -0.0827,1.719788 -0.0661,0.578775 -0.30592,1.116209 -0.7028,1.595765 -2.81946,1.637106 -0.29766,0.01654 -1.53789,0.0083 z m 3.86125,-2.538342 q 0.73587,0.0083 1.08314,-0.04961 0.61185,-0.09095 0.85989,-0.578775 0.25632,-0.496093 0.25632,-2.166272 -0.0165,-0.884698 -0.0827,-1.215427 -0.14056,-0.702798 -0.74414,-0.868162 -0.42995,-0.115755 -0.95912,-0.132292 -0.81855,-0.01654 -1.93476,-0.0248 h -1.0914 q -0.61185,0.0083 -1.2237,0.04134 -0.74414,0.04961 -1.05833,0.512629 -0.27285,0.413411 -0.26458,2.397782 0.008,1.405596 0.46302,1.769397 0.33073,0.272851 1.84381,0.281119 z m 11.83181,-7.482732 5.72161,7.408318 v 0 -7.408318 h 3.02616 v 9.930123 h -4.8121 l -5.7216,-7.424855 v 0 7.424855 h -3.02617 v -9.930123 z"
       id="text5-6"
       style="font-size:16.9333px;font-family:'Microstyle Bold Extended ATT';-inkscape-font-specification:'Microstyle Bold Extended ATT, Normal ';text-align:center;text-anchor:middle;fill:#ececec;stroke-width:1.50186;paint-order:markers fill stroke"
       aria-label="RESOLUTION" />
  </g>
</svg>
