<?xml version="1.0" encoding="UTF-8" standalone="no"?>
<!-- Created with Inkscape (http://www.inkscape.org/) -->

<svg
   width="1920"
   height="1080"
   viewBox="0 0 507.99999 285.75"
   version="1.1"
   id="svg1"
   sodipodi:docname="settingsSettings.svg"
   inkscape:version="1.4.2 (ebf0e940d0, 2025-05-08)"
   xmlns:inkscape="http://www.inkscape.org/namespaces/inkscape"
   xmlns:sodipodi="http://sodipodi.sourceforge.net/DTD/sodipodi-0.dtd"
   xmlns="http://www.w3.org/2000/svg"
   xmlns:svg="http://www.w3.org/2000/svg">
  <sodipodi:namedview
     id="namedview1"
     pagecolor="#ffffff"
     bordercolor="#000000"
     borderopacity="0.25"
     inkscape:showpageshadow="2"
     inkscape:pageopacity="0.0"
     inkscape:pagecheckerboard="0"
     inkscape:deskcolor="#d1d1d1"
     inkscape:zoom="0.72592593"
     inkscape:cx="960.15306"
     inkscape:cy="540"
     inkscape:window-width="1920"
     inkscape:window-height="1002"
     inkscape:window-x="0"
     inkscape:window-y="0"
     inkscape:window-maximized="1"
     inkscape:current-layer="svg1" />
  <defs
     id="defs1">
    <linearGradient
       id="swatch2">
      <stop
         style="stop-color:#000000;stop-opacity:1;"
         offset="0"
         id="stop2" />
    </linearGradient>
  </defs>
  <g
     id="layer1">
    <g
       id="g2"
       transform="translate(2.5485399e-5,8.5289348)">
      <path
         style="font-size:7.05556px;font-family:'Hanken Grotesk';-inkscape-font-specification:'Hanken Grotesk, @wght=800';font-variation-settings:'wght' 800;fill:#e4ff3a;stroke-width:4.68727"
         d="m 239.91711,15.723517 q -0.80434,0 -1.31939,-0.416279 -0.508,-0.416278 -0.62089,-1.107722 l 0.98778,-0.246945 q 0.0776,0.437445 0.33866,0.656167 0.26106,0.218722 0.64912,0.218722 0.19755,0 0.35983,-0.0635 0.16228,-0.07056 0.254,-0.197555 0.0917,-0.127 0.0917,-0.303389 0,-0.162278 -0.0988,-0.282223 -0.0917,-0.127 -0.29633,-0.232833 -0.20461,-0.105834 -0.52211,-0.225778 -0.47978,-0.1905 -0.79728,-0.402167 -0.3175,-0.218723 -0.47272,-0.500945 -0.14817,-0.282222 -0.14817,-0.656167 0,-0.402167 0.19756,-0.712612 0.19755,-0.310444 0.55033,-0.486833 0.35983,-0.176389 0.83256,-0.176389 0.508,0 0.89605,0.232833 0.38806,0.232834 0.62795,0.698501 l -0.80434,0.486833 q -0.14111,-0.254 -0.33161,-0.388055 -0.1905,-0.134056 -0.42333,-0.134056 -0.14817,0 -0.26811,0.05644 -0.11995,0.05645 -0.19756,0.162278 -0.0705,0.105834 -0.0705,0.239889 0,0.141112 0.0847,0.261056 0.0847,0.112889 0.28928,0.225778 0.21167,0.112889 0.55739,0.246945 0.46567,0.169333 0.76906,0.381 0.31044,0.204611 0.46566,0.479778 0.16228,0.275167 0.16228,0.663223 0,0.4445 -0.21872,0.790222 -0.21872,0.345723 -0.61384,0.543278 -0.38805,0.190501 -0.91016,0.190501 z m 2.42006,-0.09878 v -4.917726 h 3.28789 v 0.903112 h -2.27895 v 1.037167 h 2.14489 v 0.903112 h -2.14489 v 1.171223 h 2.27895 v 0.903112 z m 5.15762,0 v -4.014614 h -1.48167 v -0.903112 h 3.97934 v 0.903112 h -1.47462 v 4.014614 z m 4.11339,0 v -4.014614 h -1.48167 v -0.903112 h 3.97934 v 0.903112 h -1.47461 v 4.014614 z m 3.01273,0 v -4.917726 h 1.00894 v 4.917726 z m 1.89793,0 v -4.917726 h 1.03717 l 2.21545,3.59128 h -0.26106 v -3.59128 h 1.016 v 4.917726 h -1.04422 l -2.20839,-3.598336 h 0.254 v 3.598336 z m 7.02029,0.119944 q -0.67733,0 -1.19945,-0.324556 -0.52211,-0.324555 -0.81844,-0.903111 -0.29633,-0.578556 -0.29633,-1.354668 0,-0.776111 0.29633,-1.347612 0.30339,-0.578556 0.83961,-0.903111 0.53622,-0.324556 1.24178,-0.324556 0.79728,0 1.36878,0.402167 0.57855,0.395111 0.83255,1.093612 l -0.9525,0.345722 q -0.14816,-0.416278 -0.47272,-0.642056 -0.3175,-0.232833 -0.77611,-0.232833 -0.41628,0 -0.72672,0.197555 -0.31045,0.1905 -0.47978,0.550334 -0.16228,0.359833 -0.16228,0.860778 0,0.500945 0.16228,0.867834 0.16933,0.359834 0.47978,0.557389 0.31044,0.1905 0.72672,0.1905 0.21872,0 0.4445,-0.0635 0.23283,-0.0635 0.42333,-0.211666 0.19756,-0.148167 0.3175,-0.423334 0.11995,-0.282222 0.11995,-0.6985 v -0.261056 l 0.22578,0.705556 h -1.41817 v -0.903112 h 2.08844 v 2.70228 h -0.889 l -0.14111,-0.74789 0.17639,0.141112 q -0.13405,0.232833 -0.34572,0.395111 -0.20461,0.162278 -0.47978,0.246944 -0.26811,0.08467 -0.58561,0.08467 z m 4.74133,-0.02117 q -0.80433,0 -1.31939,-0.416279 -0.508,-0.416278 -0.62089,-1.107722 l 0.98778,-0.246945 q 0.0776,0.437445 0.33867,0.656167 0.26106,0.218722 0.64911,0.218722 0.19756,0 0.35983,-0.0635 0.16228,-0.07056 0.254,-0.197555 0.0917,-0.127 0.0917,-0.303389 0,-0.162278 -0.0988,-0.282223 -0.0917,-0.127 -0.29633,-0.232833 -0.20462,-0.105834 -0.52212,-0.225778 -0.47977,-0.1905 -0.79727,-0.402167 -0.3175,-0.218723 -0.47273,-0.500945 -0.14816,-0.282222 -0.14816,-0.656167 0,-0.402167 0.19755,-0.712612 0.19756,-0.310444 0.55034,-0.486833 0.35983,-0.176389 0.83255,-0.176389 0.508,0 0.89606,0.232833 0.38805,0.232834 0.62794,0.698501 l -0.80433,0.486833 q -0.14111,-0.254 -0.33161,-0.388055 -0.1905,-0.134056 -0.42334,-0.134056 -0.14816,0 -0.26811,0.05644 -0.11994,0.05645 -0.19755,0.162278 -0.0706,0.105834 -0.0706,0.239889 0,0.141112 0.0847,0.261056 0.0847,0.112889 0.28928,0.225778 0.21166,0.112889 0.55739,0.246945 0.46566,0.169333 0.76905,0.381 0.31045,0.204611 0.46567,0.479778 0.16228,0.275167 0.16228,0.663223 0,0.4445 -0.21873,0.790222 -0.21872,0.345723 -0.61383,0.543278 -0.38806,0.190501 -0.91017,0.190501 z"
         id="text1-8-5-3"
         aria-label="SETTINGS" />
    </g>
  </g>
</svg>
