<?xml version="1.0" encoding="UTF-8" standalone="no"?>
<!-- Created with Inkscape (http://www.inkscape.org/) -->

<svg
   width="61.231998"
   height="61.231998"
   viewBox="0 0 61.231998 61.231998"
   version="1.1"
   id="svg1"
   xml:space="preserve"
   sodipodi:docname="HUDAmpedIcon.svg"
   inkscape:version="1.4.2 (ebf0e940d0, 2025-05-08)"
   xmlns:inkscape="http://www.inkscape.org/namespaces/inkscape"
   xmlns:sodipodi="http://sodipodi.sourceforge.net/DTD/sodipodi-0.dtd"
   xmlns="http://www.w3.org/2000/svg"
   xmlns:svg="http://www.w3.org/2000/svg"><sodipodi:namedview
     id="namedview1"
     pagecolor="#ffffff"
     bordercolor="#000000"
     borderopacity="0.25"
     inkscape:showpageshadow="2"
     inkscape:pageopacity="0.0"
     inkscape:pagecheckerboard="0"
     inkscape:deskcolor="#d1d1d1"
     inkscape:zoom="8.0000001"
     inkscape:cx="22.8125"
     inkscape:cy="24.125"
     inkscape:window-width="1920"
     inkscape:window-height="1002"
     inkscape:window-x="0"
     inkscape:window-y="0"
     inkscape:window-maximized="1"
     inkscape:current-layer="svg1" /><defs
     id="defs1" /><path
     id="rect4"
     style="font-variation-settings:'wght' 800;fill:#1a1a1a;stroke-width:14.8315;paint-order:markers fill stroke"
     d="M 30.615109,3.1621094 18.312549,13.918397 6.0082108,24.674685 H 17.906853 V 58.069889 H 43.325145 V 24.674685 H 55.223788 L 42.919448,13.918397 Z" /><path
     id="rect2"
     style="font-variation-settings:'wght' 800;fill:#e4ff3a;stroke-width:15.9715;paint-order:markers fill stroke"
     d="m 18.379953,21.463589 c -1.16053,0.118755 -3.428132,7.719388 -3.428132,7.719388 h 6.910563 c 0,0 -2.304336,-7.719388 -3.456218,-7.719388 -0.009,0 -0.01707,-9.34e-4 -0.02621,0 z m -3.428132,9.838801 v 22.605839 h 6.910563 V 31.30239 Z" /><path
     id="rect2-5"
     style="font-variation-settings:'wght' 800;fill:#e4ff3a;stroke-width:15.9715;paint-order:markers fill stroke"
     d="m 30.589054,21.463589 c -1.160531,0.118755 -3.428134,7.719388 -3.428134,7.719388 h 6.910564 c 0,0 -2.304336,-7.719388 -3.456219,-7.719388 -0.009,0 -0.01707,-9.34e-4 -0.02621,0 z M 27.16092,31.30239 v 22.605839 h 6.910564 V 31.30239 Z" /><path
     id="rect2-9"
     style="font-variation-settings:'wght' 800;fill:#e4ff3a;stroke-width:15.9715;paint-order:markers fill stroke"
     d="m 42.798154,21.463589 c -1.160531,0.118755 -3.428134,7.719388 -3.428134,7.719388 h 6.910564 c 0,0 -2.304336,-7.719388 -3.456219,-7.719388 -0.009,0 -0.01707,-9.34e-4 -0.02621,0 z M 39.37002,31.30239 v 22.605839 h 6.910564 V 31.30239 Z" /></svg>
