<?xml version="1.0" encoding="UTF-8" standalone="no"?>
<!-- Created with Inkscape (http://www.inkscape.org/) -->

<svg
   width="61.231998"
   height="61.231998"
   viewBox="0 0 61.231998 61.231998"
   version="1.1"
   id="svg1"
   xml:space="preserve"
   sodipodi:docname="HUDEMPIcon.svg"
   inkscape:version="1.4.2 (ebf0e940d0, 2025-05-08)"
   xmlns:inkscape="http://www.inkscape.org/namespaces/inkscape"
   xmlns:sodipodi="http://sodipodi.sourceforge.net/DTD/sodipodi-0.dtd"
   xmlns="http://www.w3.org/2000/svg"
   xmlns:svg="http://www.w3.org/2000/svg"><sodipodi:namedview
     id="namedview1"
     pagecolor="#ffffff"
     bordercolor="#000000"
     borderopacity="0.25"
     inkscape:showpageshadow="2"
     inkscape:pageopacity="0.0"
     inkscape:pagecheckerboard="0"
     inkscape:deskcolor="#d1d1d1"
     inkscape:zoom="2"
     inkscape:cx="14"
     inkscape:cy="-85.499999"
     inkscape:window-width="1920"
     inkscape:window-height="1002"
     inkscape:window-x="0"
     inkscape:window-y="0"
     inkscape:window-maximized="1"
     inkscape:current-layer="svg1" /><defs
     id="defs1" /><path
     id="rect1"
     style="font-variation-settings:'wght' 800;fill:#e4ff3a;fill-opacity:1;stroke-width:3.38847;paint-order:markers fill stroke"
     d="M 23.528843,12.2464 12.246406,30.618284 H 27.84674 L 16.570009,48.9856 48.985622,30.618284 H 33.379585 L 44.662019,12.2464 Z" /><path
     id="path1"
     style="font-variation-settings:'wght' 800;fill:#1a1a1a;fill-opacity:1;stroke-width:13.5;paint-order:markers fill stroke"
     d="M 28.267578 3.1621094 A 27.554399 27.554399 0 0 0 3.1621094 28.267578 L 6.3808594 28.267578 A 24.34795 24.34795 0 0 1 28.267578 6.3808594 L 28.267578 3.1621094 z M 32.964844 3.1621094 L 32.964844 6.3808594 A 24.34795 24.34795 0 0 1 54.851562 28.267578 L 58.070312 28.267578 A 27.554399 27.554399 0 0 0 32.964844 3.1621094 z M 3.1621094 32.962891 A 27.554399 27.554399 0 0 0 28.267578 58.070312 L 28.267578 54.851562 A 24.34795 24.34795 0 0 1 6.3808594 32.962891 L 3.1621094 32.962891 z M 54.851562 32.962891 A 24.34795 24.34795 0 0 1 32.964844 54.851562 L 32.964844 58.070312 A 27.554399 27.554399 0 0 0 58.070312 32.962891 L 54.851562 32.962891 z " /></svg>
