<?xml version="1.0" encoding="UTF-8" standalone="no"?>
<!-- Created with Inkscape (http://www.inkscape.org/) -->

<svg
   width="61.231998"
   height="61.231998"
   viewBox="0 0 61.231998 61.231998"
   version="1.1"
   id="svg1"
   xml:space="preserve"
   sodipodi:docname="HUDSlowIcon.svg"
   inkscape:version="1.4.2 (ebf0e940d0, 2025-05-08)"
   xmlns:inkscape="http://www.inkscape.org/namespaces/inkscape"
   xmlns:sodipodi="http://sodipodi.sourceforge.net/DTD/sodipodi-0.dtd"
   xmlns="http://www.w3.org/2000/svg"
   xmlns:svg="http://www.w3.org/2000/svg"><sodipodi:namedview
     id="namedview1"
     pagecolor="#ffffff"
     bordercolor="#000000"
     borderopacity="0.25"
     inkscape:showpageshadow="2"
     inkscape:pageopacity="0.0"
     inkscape:pagecheckerboard="0"
     inkscape:deskcolor="#d1d1d1"
     inkscape:zoom="8"
     inkscape:cx="12.375"
     inkscape:cy="38.625"
     inkscape:window-width="1920"
     inkscape:window-height="1002"
     inkscape:window-x="0"
     inkscape:window-y="0"
     inkscape:window-maximized="1"
     inkscape:current-layer="svg1" /><defs
     id="defs1" /><path
     id="rect4"
     style="font-variation-settings:'wght' 800;fill:#1a1a1a;stroke-width:14.8316;paint-order:markers fill stroke"
     d="M 30.616889,58.0701 42.919544,47.313729 55.223977,36.557358 H 43.325243 V 3.161898 H 17.906756 v 33.39546 H 6.008021 l 12.304435,10.756371 z" /><path
     id="path2"
     style="font-variation-settings:'wght' 800;fill:#e4ff3a;fill-opacity:1;stroke-width:19.5128;paint-order:markers fill stroke"
     d="M 30.615022,41.415 A 27.454313,3.9726873 0 0 0 3.1616861,45.387686 27.454313,3.9726873 0 0 0 30.615022,49.360374 27.454313,3.9726873 0 0 0 58.070312,45.387686 27.454313,3.9726873 0 0 0 30.615022,41.415 Z m 0,0.849616 a 19.713678,2.3952232 0 0 1 19.714996,2.39455 19.713678,2.3952232 0 0 1 -19.714996,2.394549 19.713678,2.3952232 0 0 1 -19.713041,-2.394549 19.713678,2.3952232 0 0 1 19.713041,-2.39455 z" /><path
     id="rect2"
     style="font-variation-settings:'wght' 800;fill:#e4ff3a;fill-opacity:1;stroke-width:37.5665;paint-order:markers fill stroke"
     d="m 28.09373,5.7322305 v 2.9121317 8.8203798 l -10.160234,-5.867233 -2.523458,4.371128 10.162189,5.865279 -10.162189,5.867233 2.521505,4.369174 10.162187,-5.867232 v 11.734465 h 5.044961 V 26.203091 l 10.160234,5.867232 2.523457,-4.371127 -10.160235,-5.86528 3.81839,-2.205095 3.818388,-2.205095 2.523457,-1.455089 -2.523457,-4.371128 -2.521503,1.457043 -7.638731,4.41019 V 8.6443622 5.7322305 Z" /></svg>
