<?xml version="1.0" encoding="UTF-8" standalone="no"?>
<!-- Created with Inkscape (http://www.inkscape.org/) -->

<svg
   width="1920"
   height="1080"
   viewBox="0 0 1920 1080"
   version="1.1"
   id="svg1"
   xml:space="preserve"
   sodipodi:docname="HUDTopPackagesText.svg"
   inkscape:version="1.4.2 (ebf0e940d0, 2025-05-08)"
   xmlns:inkscape="http://www.inkscape.org/namespaces/inkscape"
   xmlns:sodipodi="http://sodipodi.sourceforge.net/DTD/sodipodi-0.dtd"
   xmlns="http://www.w3.org/2000/svg"
   xmlns:svg="http://www.w3.org/2000/svg"><sodipodi:namedview
     id="namedview1"
     pagecolor="#ffffff"
     bordercolor="#000000"
     borderopacity="0.25"
     inkscape:showpageshadow="2"
     inkscape:pageopacity="0.0"
     inkscape:pagecheckerboard="0"
     inkscape:deskcolor="#d1d1d1"
     inkscape:zoom="0.72592593"
     inkscape:cx="959.46429"
     inkscape:cy="540"
     inkscape:window-width="1920"
     inkscape:window-height="1002"
     inkscape:window-x="0"
     inkscape:window-y="0"
     inkscape:window-maximized="1"
     inkscape:current-layer="svg1" /><defs
     id="defs1" /><g
     id="layer1"><path
       d="M 711.51347,104.76285 V 71.306848 h 11.424 q 5.712,0 8.592,2.448 2.928,2.4 2.928,7.296 0,4.944 -2.976,7.536 -2.928,2.544 -8.544,2.544 h -4.608 v 13.632002 z m 6.816,-19.776002 h 3.888 q 2.544,0 3.936,-0.816 1.392,-0.816 1.392,-3.024 0,-2.112 -1.344,-2.88 -1.296,-0.816 -3.984,-0.816 h -3.888 z m 13.39201,19.776002 13.68,-33.456002 h 5.088 l 13.68,33.456002 h -7.488 l -8.688,-23.280002 -8.784,23.280002 z m 9.408,-6.096002 2.16,-6.144 h 9.36 l 2.208,6.144 z m 39.61922,6.912002 q -4.8,0 -8.448,-2.208 -3.648,-2.208 -5.712,-6.144002 -2.016,-3.936 -2.016,-9.216 0,-5.28 2.016,-9.168 2.064,-3.936 5.712,-6.144 3.648,-2.208 8.448,-2.208 5.424,0 9.312,2.736 3.936,2.688 5.664,7.44 l -6.48,2.352 q -1.008,-2.832 -3.216,-4.368 -2.16,-1.584 -5.28,-1.584 -2.832,0 -4.944,1.344 -2.112,1.296 -3.264,3.744 -1.104,2.448 -1.104,5.856 0,3.408 1.104,5.904 1.152,2.448 3.264,3.792 2.112,1.296 4.944,1.296 3.12,0 5.28,-1.584 2.208,-1.584 3.216,-4.368 l 6.48,2.352 q -1.728,4.704002 -5.664,7.440002 -3.888,2.736 -9.312,2.736 z m 24.76802,-10.704002 v -8.688 l 14.016,-14.88 h 9.264 z m -5.52,9.888002 V 71.306848 h 6.864 v 33.456002 z m 20.736,0 -10.32,-16.464002 5.136,-4.752 13.344,21.216002 z m 8.73604,0 13.68,-33.456002 h 5.088 l 13.68,33.456002 h -7.488 l -8.688,-23.280002 -8.784,23.280002 z m 9.408,-6.096002 2.16,-6.144 h 9.36 l 2.208,6.144 z m 39.18722,6.912002 q -4.608,0 -8.16,-2.208 -3.552,-2.208 -5.568,-6.144002 -2.016,-3.936 -2.016,-9.216 0,-5.28 2.016,-9.168 2.064,-3.936 5.712,-6.144 3.648,-2.208 8.448,-2.208 5.424,0 9.312,2.736 3.936,2.688 5.664,7.44 l -6.48,2.352 q -1.008,-2.832 -3.216,-4.368 -2.16,-1.584 -5.28,-1.584 -2.832,0 -4.944,1.344 -2.112,1.296 -3.264,3.744 -1.104,2.448 -1.104,5.856 0,3.408 1.104,5.904 1.152,2.448 3.264,3.792 2.112,1.296 4.944,1.296 1.488,0 3.024,-0.432 1.584,-0.432 2.88,-1.44 1.344,-1.008 2.16,-2.88 0.816,-1.92 0.816,-4.752 v -1.776 l 1.536,4.8 h -9.648 v -6.144 h 14.208 v 18.384002 h -6.048 l -0.96,-5.088002 1.2,0.960002 q -0.912,1.584 -2.352,2.688 -1.392,1.104 -3.264,1.68 -1.824,0.576 -3.984,0.576 z m 20.92798,-0.816 V 71.306848 h 22.368 v 6.144 h -15.504 v 7.056 h 14.592 v 6.144 h -14.592 v 7.968 h 15.504 v 6.144002 z m 38.83199,0.672 q -5.472,0 -8.976,-2.832 -3.456,-2.832002 -4.224,-7.536002 l 6.72,-1.68 q 0.528,2.976 2.304,4.464 1.776,1.488 4.416,1.488 1.344,0 2.448,-0.432 1.104,-0.48 1.728,-1.344 0.624,-0.864 0.624,-2.064 0,-1.104 -0.672,-1.92 -0.624,-0.864 -2.016,-1.584 -1.392,-0.72 -3.552,-1.536 -3.264,-1.296 -5.424,-2.736 -2.16,-1.488 -3.216,-3.408 -1.008,-1.92 -1.008,-4.464 0,-2.736 1.344,-4.848 1.344,-2.112 3.744,-3.312 2.448,-1.2 5.664,-1.2 3.456,0 6.096,1.584 2.64,1.584 4.272,4.752 l -5.472,3.312 q -0.96,-1.728 -2.256,-2.64 -1.296,-0.912 -2.88,-0.912 -1.008,0 -1.824,0.384 -0.816,0.384 -1.344,1.104 -0.48,0.72 -0.48,1.632 0,0.96 0.576,1.776 0.576,0.768 1.968,1.536 1.44,0.768 3.792,1.68 3.168,1.152 5.232,2.592 2.112,1.392 3.168,3.264 1.104,1.872 1.104,4.512 0,3.024 -1.488,5.376002 -1.488,2.352 -4.176,3.696 -2.64,1.296 -6.192,1.296 z m 28.94404,-0.672 V 71.306848 h 9.936 q 8.352,0 12.912,4.416 4.608,4.416 4.608,12.576 0,7.968 -4.512,12.240002 -4.512,4.224 -13.056,4.224 z m 6.864,-6.288002 h 2.304 q 3.6,0 6.144,-0.864 2.544,-0.912 3.888,-3.168 1.344,-2.256 1.344,-6.384 0,-4.032 -1.296,-6.288 -1.296,-2.304 -3.696,-3.216 -2.4,-0.96 -5.76,-0.96 h -2.928 z m 25.34398,6.288002 V 71.306848 h 22.36803 v 6.144 h -15.504 v 7.056 h 14.592 v 6.144 h -14.592 v 7.968 h 15.504 v 6.144002 z m 27.60003,0 V 71.306848 h 6.864 v 27.312 h 13.968 v 6.144002 z m 24.336,0 V 71.306848 h 6.864 v 33.456002 z m 23.616,0 -13.44,-33.456002 h 7.584 l 9.552,25.008 h -2.208 l 9.36,-25.008 h 7.632 l -13.392,33.456002 z m 21.792,0 V 71.306848 h 22.368 v 6.144 h -15.504 v 7.056 h 14.592 v 6.144 h -14.592 v 7.968 h 15.504 v 6.144002 z m 27.6,0 V 71.306848 h 11.424 q 4.128,0 6.624,1.2 2.544,1.2 3.696,3.408 1.2,2.208 1.2,5.184 0,4.752 -2.736,7.296 -2.688,2.544 -7.632,2.832 -1.248,0 -2.448,0 -1.2,0 -1.968,0 h -1.296 v 13.536002 z m 18,0 -8.304,-14.304002 7.056,-0.816 9.216,15.120002 z m -11.136,-19.680002 h 3.84 q 1.392,0 2.592,-0.288 1.248,-0.288 1.968,-1.104 0.768,-0.864 0.768,-2.496 0,-1.68 -0.768,-2.448 -0.72,-0.816 -1.968,-1.056 -1.2,-0.24 -2.592,-0.24 h -3.84 z m 22.6464,19.680002 V 71.306848 h 22.368 v 6.144 h -15.504 v 7.056 h 14.592 v 6.144 h -14.592 v 7.968 h 15.504 v 6.144002 z m 27.6,0 V 71.306848 h 9.936 q 8.352,0 12.912,4.416 4.608,4.416 4.608,12.576 0,7.968 -4.512,12.240002 -4.512,4.224 -13.056,4.224 z m 6.864,-6.288002 h 2.304 q 3.6,0 6.144,-0.864 2.544,-0.912 3.888,-3.168 1.344,-2.256 1.344,-6.384 0,-4.032 -1.296,-6.288 -1.296,-2.304 -3.696,-3.216 -2.4,-0.96 -5.76,-0.96 h -2.928 z"
       id="text18"
       style="font-size:48px;font-family:'Hanken Grotesk';-inkscape-font-specification:'Hanken Grotesk, @wght=800';font-variation-settings:'wght' 800;text-align:center;text-anchor:middle;fill:#ececec;stroke-width:15;paint-order:markers fill stroke"
       aria-label="PACKAGES DELIVERED" /></g></svg>
