<?xml version="1.0" encoding="UTF-8" standalone="no"?>
<!-- Created with Inkscape (http://www.inkscape.org/) -->

<svg
   width="441.9375"
   height="360.9375"
   viewBox="0 0 116.92929 95.498047"
   version="1.1"
   id="svg1"
   sodipodi:docname="scoringRankC.svg"
   inkscape:version="1.4.2 (ebf0e940d0, 2025-05-08)"
   inkscape:export-filename="scoringScoringBox.svg"
   inkscape:export-xdpi="96"
   inkscape:export-ydpi="96"
   xml:space="preserve"
   xmlns:inkscape="http://www.inkscape.org/namespaces/inkscape"
   xmlns:sodipodi="http://sodipodi.sourceforge.net/DTD/sodipodi-0.dtd"
   xmlns="http://www.w3.org/2000/svg"
   xmlns:svg="http://www.w3.org/2000/svg"><sodipodi:namedview
     id="namedview1"
     pagecolor="#ffffff"
     bordercolor="#000000"
     borderopacity="0.25"
     inkscape:showpageshadow="2"
     inkscape:pageopacity="0.0"
     inkscape:pagecheckerboard="0"
     inkscape:deskcolor="#d1d1d1"
     inkscape:zoom="0.18148148"
     inkscape:cx="570.30613"
     inkscape:cy="578.57143"
     inkscape:window-width="1920"
     inkscape:window-height="1002"
     inkscape:window-x="0"
     inkscape:window-y="0"
     inkscape:window-maximized="1"
     inkscape:current-layer="layer1"><inkscape:page
       x="0"
       y="0"
       width="116.92929"
       height="95.498047"
       id="page2"
       margin="0"
       bleed="0" /></sodipodi:namedview><defs
     id="defs1" /><g
     id="layer1"
     transform="translate(-79.889629,-68.958755)"><path
       d="m 166.40837,104.42946 q -0.29766,-6.771679 -3.64629,-8.557616 -3.27422,-1.860351 -9.525,-1.860351 h -16.59434 q -12.7248,0 -15.62695,0.223242 -8.4832,0.520898 -10.64121,6.474025 -1.19062,3.1998 -1.19062,13.02246 -0.0744,13.69219 0.89296,17.26406 2.15801,8.25996 13.54336,8.25996 l 18.00821,0.0744 15.03164,0.0744 q 9.89706,-0.29766 10.79003,-9.22734 l 0.14883,-3.27422 h 27.23555 v 4.39043 q -0.0744,10.71562 -2.38125,17.18964 -0.96739,2.90215 -3.12539,4.98575 -6.25078,6.54843 -22.54746,7.9623 -8.18555,0.81856 -16.59434,0.89297 -3.57187,0.14883 -10.49238,0.0744 -12.20391,0.0744 -18.38027,-0.22324 -6.10196,-0.29766 -11.98067,-0.96738 -5.80429,-0.66973 -10.715621,-2.45567 -5.953125,-1.86035 -9.227344,-6.02753 -5.13457,-5.95313 -6.176367,-13.69219 -1.265039,-8.40879 -1.265039,-20.38945 -0.07441,-11.53418 0.818555,-20.83594 0.37207,-5.134571 2.158008,-9.673828 4.762499,-12.65039 20.315038,-15.254882 11.83184,-1.934766 33.11426,-1.934766 h 12.42714 q 23.06836,0.148828 32.14688,4.539258 6.84609,3.348632 9.525,12.724804 1.11621,3.943945 1.19062,16.222264 h -27.23554 z"
       id="text1-2-7-6"
       style="font-size:152.4px;font-family:'Microstyle Bold Extended ATT';-inkscape-font-specification:'Microstyle Bold Extended ATT, Normal';text-align:center;text-anchor:middle;fill:#7eff80;stroke:#ececec;stroke-width:3.96875;paint-order:markers fill stroke"
       inkscape:label="C"
       aria-label="C" /></g></svg>
