<?xml version="1.0" encoding="UTF-8" standalone="no"?>
<!-- Created with Inkscape (http://www.inkscape.org/) -->

<svg
   width="462.18747"
   height="352.78122"
   viewBox="0 0 122.2871 93.340031"
   version="1.1"
   id="svg1"
   sodipodi:docname="scoringRankD.svg"
   inkscape:version="1.4.2 (ebf0e940d0, 2025-05-08)"
   inkscape:export-filename="scoringScoringBox.svg"
   inkscape:export-xdpi="96"
   inkscape:export-ydpi="96"
   xml:space="preserve"
   xmlns:inkscape="http://www.inkscape.org/namespaces/inkscape"
   xmlns:sodipodi="http://sodipodi.sourceforge.net/DTD/sodipodi-0.dtd"
   xmlns="http://www.w3.org/2000/svg"
   xmlns:svg="http://www.w3.org/2000/svg"><sodipodi:namedview
     id="namedview1"
     pagecolor="#ffffff"
     bordercolor="#000000"
     borderopacity="0.25"
     inkscape:showpageshadow="2"
     inkscape:pageopacity="0.0"
     inkscape:pagecheckerboard="0"
     inkscape:deskcolor="#d1d1d1"
     inkscape:zoom="0.51330714"
     inkscape:cx="275.66342"
     inkscape:cy="288.3264"
     inkscape:window-width="1920"
     inkscape:window-height="1002"
     inkscape:window-x="0"
     inkscape:window-y="0"
     inkscape:window-maximized="1"
     inkscape:current-layer="layer1"><inkscape:page
       x="0"
       y="0"
       width="122.2871"
       height="93.340034"
       id="page2"
       margin="0"
       bleed="0" /></sodipodi:namedview><defs
     id="defs1" /><g
     id="layer1"
     transform="translate(-77.582771,-70.025352)"><path
       d="m 162.68765,72.009726 q 5.43222,0 9.74824,0.372071 4.83691,0.37207 8.92969,2.158008 5.35781,2.232421 8.33437,5.953124 6.17637,7.813477 7.29258,19.05 0.81855,8.334371 0.89297,20.687111 -0.0744,11.90625 -0.89297,16.74316 -1.63711,9.525 -6.39961,15.40371 -4.68808,5.8043 -14.21308,7.88789 -5.06016,1.11621 -16.59434,1.11621 H 79.567144 V 72.009726 Z m -55.88496,23.068359 v 43.234565 h 48.66679 q 8.63204,-0.0744 11.68301,-3.49746 2.90215,-3.12539 3.34863,-11.98066 0.14883,-4.16719 0.14883,-7.36699 -0.0744,-6.77168 -1.04179,-11.83184 -1.71153,-8.632029 -14.13868,-8.557615 z"
       id="text1-2-7-6-0"
       style="font-size:152.4px;font-family:'Microstyle Bold Extended ATT';-inkscape-font-specification:'Microstyle Bold Extended ATT, Normal';text-align:center;text-anchor:middle;fill:#7fffff;stroke:#ececec;stroke-width:3.96875;paint-order:markers fill stroke"
       inkscape:label="D"
       aria-label="D" /></g></svg>
