<?xml version="1.0" encoding="UTF-8" standalone="no"?>
<!-- Created with Inkscape (http://www.inkscape.org/) -->

<svg
   width="1920"
   height="1080"
   viewBox="0 0 507.99999 285.75"
   version="1.1"
   id="svg1"
   xml:space="preserve"
   sodipodi:docname="scoringTimeSurvivedLabel.svg"
   inkscape:version="1.4.2 (ebf0e940d0, 2025-05-08)"
   xmlns:inkscape="http://www.inkscape.org/namespaces/inkscape"
   xmlns:sodipodi="http://sodipodi.sourceforge.net/DTD/sodipodi-0.dtd"
   xmlns="http://www.w3.org/2000/svg"
   xmlns:svg="http://www.w3.org/2000/svg"><sodipodi:namedview
     id="namedview1"
     pagecolor="#ffffff"
     bordercolor="#000000"
     borderopacity="0.25"
     inkscape:showpageshadow="2"
     inkscape:pageopacity="0.0"
     inkscape:pagecheckerboard="0"
     inkscape:deskcolor="#d1d1d1"
     inkscape:zoom="0.72592593"
     inkscape:cx="1236.352"
     inkscape:cy="586.83673"
     inkscape:window-width="1920"
     inkscape:window-height="1002"
     inkscape:window-x="0"
     inkscape:window-y="0"
     inkscape:window-maximized="1"
     inkscape:current-layer="svg1" /><defs
     id="defs1" /><g
     id="layer1"><g
       id="g2-6"
       transform="translate(3.3364199e-5,155.93241)"><path
         id="rect2-9"
         style="font-variation-settings:'wght' 800;fill:#ff5f00;stroke-width:2.69239;paint-order:markers fill stroke"
         d="M 287.96689,50.207401 H 474.03308 V 61.376449 H 287.96689 Z" /><path
         d="m 328.09554,52.068181 v 1.922333 h -3.26177 v 5.525157 h -2.26959 v -5.525157 h -3.26177 v -1.922333 z m 1.28982,0 h 2.26959 v 7.44749 h -2.26959 z m 4.09891,0 h 3.60902 l 2.59825,4.787229 v 0 l 2.65406,-4.787229 h 3.60903 v 7.44749 h -2.26959 v -5.432141 0 l -3.09434,5.432141 h -1.79211 l -3.04473,-5.456945 v 0 5.456945 h -2.26959 z m 14.11985,0 h 8.19161 v 1.736301 h -5.92202 v 1.016976 h 5.59337 v 1.612279 h -5.59337 v 1.345633 h 5.99024 v 1.736301 h -8.25983 z m 17.48702,4.923653 q 0.006,0.601504 0.30386,0.756531 0.19223,0.09922 0.85574,0.124021 l 0.64491,0.0186 h 1.66189 0.60151 q 0.70692,-0.0186 0.68832,-0.582901 -0.0124,-0.496085 -0.47129,-0.564297 -0.12402,-0.0124 -0.45887,-0.03101 l -0.45888,-0.0186 -1.36424,-0.05581 -0.66352,-0.03721 -1.14099,-0.06201 q -0.62011,-0.0248 -1.05419,-0.09922 -0.96736,-0.161228 -1.1844,-0.961166 -0.13642,-0.452679 -0.13022,-0.967368 0,-0.942563 0.17363,-1.370437 0.29145,-0.713124 0.95496,-0.936362 0.66972,-0.22944 2.77188,-0.223239 1.1286,0.0062 2.13937,0.04961 1.46966,0.05581 2.09597,0.372065 0.77513,0.384466 0.83094,1.612279 v 0.502287 h -2.26959 l -0.0372,-0.272847 q -0.0744,-0.378266 -0.39067,-0.477483 -0.13642,-0.04341 -0.64491,-0.06201 l -0.61391,-0.0248 h -1.32703 l -0.5891,0.0186 q -0.25424,0.0124 -0.44647,0.06821 -0.37207,0.08682 -0.37827,0.514689 -0.0124,0.440277 0.45888,0.551896 0.23564,0.04961 0.50229,0.05581 l 0.5891,0.0124 2.08976,0.06821 1.21541,0.04961 q 0.52089,0.03101 0.96117,0.17363 1.10999,0.372065 1.10999,2.139371 -0.0124,1.96574 -1.79831,2.188979 -0.29145,0.04341 -0.65111,0.04961 -0.74413,0.03721 -1.50687,0.03101 -0.82474,-0.0062 -2.45562,-0.05581 -0.48368,-0.0124 -0.84335,-0.04341 -0.99217,-0.06821 -1.50066,-0.508488 -0.45268,-0.396869 -0.51469,-1.482057 l -0.0248,-0.52089 z m 8.47687,-4.923653 h 2.2696 v 4.222931 q -0.006,0.28525 0.006,0.415472 0.0124,0.855748 1.07278,0.92396 0.66352,0.04961 1.31463,0.04961 1.05418,-0.0062 1.48206,-0.05581 0.93016,-0.11782 0.97357,-0.917759 0.0124,-0.235641 0.0186,-0.570499 v -4.067904 h 2.26959 v 4.880245 l -0.031,0.34726 q -0.0868,1.004574 -0.52089,1.50066 -0.43408,0.489885 -1.38904,0.688319 -0.24185,0.05581 -0.33486,0.06201 -0.52089,0.05581 -2.71607,0.05581 l -1.59988,-0.0248 q -1.95334,-0.02481 -2.41842,-1.122395 -0.33486,-0.737928 -0.37826,-1.680491 l -0.0186,-0.601504 z m 17.75988,0 q 0.46508,0 0.92396,0.04961 1.04178,0.105418 1.42004,0.756531 0.15503,0.266646 0.21084,0.52089 0.11162,0.533292 0.11782,1.109992 0,0.92396 -0.25424,1.389041 -0.24805,0.458879 -1.17201,0.731726 v 0 q 0.94257,0.260445 1.16581,0.638711 0.22324,0.372064 0.22324,1.339432 v 0.911558 h -2.2696 l -0.0186,-0.688319 q 0,-0.706923 -0.16743,-0.917759 -0.18603,-0.248043 -0.88055,-0.241842 h -3.60283 v 1.84792 h -2.26959 v -7.44749 z m -4.30355,1.922333 v 1.754904 h 3.17495 q 0.33486,0.0062 0.71933,-0.0124 0.28525,-0.0062 0.47128,-0.08682 0.33486,-0.155027 0.34106,-0.80614 0.006,-0.452678 -0.23564,-0.663515 -0.17363,-0.161228 -0.68832,-0.167429 l -0.66352,-0.0186 z m 10.51702,-1.922333 2.95171,5.587168 v 0 l 2.98892,-5.587168 h 2.47423 l -4.0369,7.44749 h -2.8835 l -4.0369,-7.44749 z m 9.46904,0 h 2.2696 v 7.44749 h -2.2696 z m 6.05845,0 2.95171,5.587168 v 0 l 2.98892,-5.587168 h 2.47423 l -4.0369,7.44749 h -2.8835 l -4.0369,-7.44749 z m 9.33882,0 h 8.19162 v 1.736301 h -5.92203 v 1.016976 h 5.59337 v 1.612279 h -5.59337 v 1.345633 h 5.99024 v 1.736301 h -8.25983 z m 16.7553,0 q 0.45268,0 0.81234,0.03101 0.40307,0.03101 0.74413,0.179831 0.44648,0.186033 0.69452,0.496086 0.51469,0.651113 0.60771,1.587475 0.0682,0.694521 0.0744,1.723899 -0.006,0.992172 -0.0744,1.395242 -0.13643,0.793737 -0.53329,1.283622 -0.39067,0.483684 -1.18441,0.657314 -0.42167,0.09302 -1.38284,0.09302 h -6.68476 v -7.44749 z m -4.657,1.922333 v 3.602824 h 4.0555 q 0.71932,-0.0062 0.97357,-0.291451 0.24184,-0.260445 0.27905,-0.998373 0.0124,-0.34726 0.0124,-0.613906 -0.006,-0.564298 -0.0868,-0.985971 -0.14262,-0.719324 -1.1782,-0.713123 z"
         id="text6-1-4"
         style="font-size:12.6998px;font-family:'Microstyle Bold Extended ATT';-inkscape-font-specification:'Microstyle Bold Extended ATT, @wght=800';font-variation-settings:'wght' 800;text-align:center;text-anchor:middle;fill:#ffffff;stroke-width:3.96867;paint-order:markers fill stroke"
         aria-label="TIME SURVIVED" /></g></g></svg>
