<?xml version="1.0" encoding="UTF-8" standalone="no"?>
<!-- Created with Inkscape (http://www.inkscape.org/) -->

<svg
   width="1920"
   height="1080"
   viewBox="0 0 507.99999 285.75"
   version="1.1"
   id="svg1"
   xml:space="preserve"
   sodipodi:docname="scoringScoring.svg"
   inkscape:version="1.4.2 (ebf0e940d0, 2025-05-08)"
   xmlns:inkscape="http://www.inkscape.org/namespaces/inkscape"
   xmlns:sodipodi="http://sodipodi.sourceforge.net/DTD/sodipodi-0.dtd"
   xmlns="http://www.w3.org/2000/svg"
   xmlns:svg="http://www.w3.org/2000/svg"><sodipodi:namedview
     id="namedview1"
     pagecolor="#ffffff"
     bordercolor="#000000"
     borderopacity="0.25"
     inkscape:showpageshadow="2"
     inkscape:pageopacity="0.0"
     inkscape:pagecheckerboard="0"
     inkscape:deskcolor="#d1d1d1"
     inkscape:zoom="0.72592593"
     inkscape:cx="-46.836735"
     inkscape:cy="282.39796"
     inkscape:window-width="1920"
     inkscape:window-height="1002"
     inkscape:window-x="0"
     inkscape:window-y="0"
     inkscape:window-maximized="1"
     inkscape:current-layer="svg1" /><defs
     id="defs1" /><g
     id="layer1"><path
       d="m 15.290791,20.425838 q -1.930396,0 -3.166527,-0.999064 -1.219197,-0.999065 -1.49013,-2.658528 l 2.370662,-0.592666 q 0.186266,1.049865 0.812798,1.574797 0.626532,0.524932 1.557864,0.524932 0.474132,0 0.863598,-0.152399 0.389466,-0.169333 0.609599,-0.474133 0.220133,-0.304799 0.220133,-0.728132 0,-0.389466 -0.237066,-0.677332 -0.220133,-0.304799 -0.711199,-0.558799 -0.491066,-0.253999 -1.253064,-0.541865 -1.151465,-0.457199 -1.913463,-0.965198 -0.761999,-0.524933 -1.134531,-1.202265 -0.3556,-0.677332 -0.3556,-1.574797 0,-0.965198 0.474133,-1.7102628 0.474132,-0.7450652 1.320797,-1.1683977 0.863599,-0.4233325 1.99813,-0.4233325 1.219197,0 2.150529,0.5587989 0.931331,0.5587989 1.507063,1.6763971 l -1.930396,1.168397 q -0.338666,-0.609599 -0.795865,-0.931331 -0.457199,-0.321733 -1.015998,-0.321733 -0.355599,0 -0.643465,0.135466 -0.287866,0.135467 -0.474133,0.389466 -0.169333,0.254 -0.169333,0.575733 0,0.338666 0.2032,0.626532 0.2032,0.270932 0.694265,0.541865 0.507999,0.270933 1.337731,0.592666 1.117598,0.406399 1.84573,0.914398 0.745065,0.491066 1.117597,1.151464 0.389466,0.660399 0.389466,1.591731 0,1.066797 -0.524932,1.896529 -0.524932,0.829732 -1.473197,1.303864 -0.931332,0.457199 -2.184396,0.457199 z m 11.057453,0.0508 q -1.69333,0 -2.98026,-0.778931 -1.286931,-0.778932 -2.015063,-2.167463 -0.711199,-1.388531 -0.711199,-3.251194 0,-1.862663 0.711199,-3.23426 0.728132,-1.3885304 2.015063,-2.1674622 1.28693,-0.7789318 2.98026,-0.7789318 1.913463,0 3.285061,0.9651981 1.38853,0.9482649 1.998129,2.6246619 l -2.285995,0.829731 q -0.3556,-0.999064 -1.134532,-1.54093 -0.761998,-0.558799 -1.862663,-0.558799 -0.999064,0 -1.744129,0.474132 -0.745066,0.4572 -1.151465,1.320798 -0.389466,0.863598 -0.389466,2.065862 0,1.202265 0.389466,2.082796 0.406399,0.863599 1.151465,1.337731 0.745065,0.457199 1.744129,0.457199 1.100665,0 1.862663,-0.558799 0.778932,-0.558799 1.134532,-1.54093 l 2.285995,0.829732 q -0.609599,1.659463 -1.998129,2.624661 -1.371598,0.965198 -3.285061,0.965198 z m 12.039585,0 q -1.69333,0 -2.980261,-0.778931 -1.286931,-0.778932 -2.015063,-2.167463 -0.711198,-1.388531 -0.711198,-3.23426 0,-1.862663 0.711198,-3.251194 0.728132,-1.3885304 2.015063,-2.1674622 1.286931,-0.7789318 2.980261,-0.7789318 1.710263,0 2.997194,0.7789318 1.286931,0.7619985 1.998129,2.1505292 0.728132,1.38853 0.728132,3.268127 0,1.862663 -0.728132,3.251193 -0.728132,1.388531 -2.015063,2.167463 -1.28693,0.761998 -2.98026,0.761998 z m 0,-2.319862 q 1.015998,0 1.74413,-0.474132 0.728131,-0.474133 1.134531,-1.337731 0.406399,-0.880532 0.406399,-2.048929 0,-1.185331 -0.406399,-2.04893 -0.4064,-0.880531 -1.134531,-1.354664 -0.728132,-0.474132 -1.761064,-0.474132 -0.982131,0 -1.727196,0.474132 -0.745065,0.4572 -1.151465,1.320798 -0.389466,0.863598 -0.389466,2.082796 0,1.202264 0.389466,2.065862 0.4064,0.863599 1.151465,1.337731 0.745065,0.457199 1.74413,0.457199 z m 7.399848,2.031996 V 8.3862621 h 4.030126 q 1.456264,0 2.336795,0.4233325 0.897465,0.4233325 1.303864,1.2022644 0.423333,0.778932 0.423333,1.828796 0,1.676397 -0.965198,2.573862 -0.948265,0.897465 -2.692395,0.999065 -0.440266,0 -0.863598,0 -0.423333,0 -0.694266,0 h -0.457199 v 4.77519 z m 6.349988,0 -2.929461,-5.046123 2.489195,-0.287866 3.251194,5.333989 z m -3.928526,-6.942653 h 1.354664 q 0.491066,0 0.914399,-0.1016 0.440265,-0.101599 0.694265,-0.389466 0.270933,-0.304799 0.270933,-0.880531 0,-0.592666 -0.270933,-0.863598 -0.254,-0.287867 -0.694265,-0.372533 -0.423333,-0.08467 -0.914399,-0.08467 h -1.354664 z m 7.989122,6.942653 V 8.3862621 h 2.421462 V 20.188772 Z m 4.555042,0 V 8.3862621 h 2.489195 l 5.317057,8.6190499 H 67.933022 V 8.3862621 h 2.438396 V 20.188772 h -2.506129 l -5.300123,-8.635983 h 0.609599 v 8.635983 z m 16.84864,0.287866 q -1.625597,0 -2.878661,-0.778931 -1.253064,-0.778932 -1.964263,-2.167463 -0.711198,-1.388531 -0.711198,-3.251194 0,-1.862663 0.711198,-3.23426 0.728132,-1.3885304 2.015063,-2.1674622 1.286931,-0.7789318 2.980261,-0.7789318 1.913463,0 3.28506,0.9651981 1.388531,0.9482649 1.998129,2.6246619 l -2.285995,0.829731 q -0.355599,-0.999064 -1.134531,-1.54093 -0.761999,-0.558799 -1.862663,-0.558799 -0.999065,0 -1.74413,0.474132 -0.745065,0.4572 -1.151464,1.320798 -0.389466,0.863598 -0.389466,2.065862 0,1.202265 0.389466,2.082796 0.406399,0.863599 1.151464,1.337731 0.745065,0.457199 1.74413,0.457199 0.524932,0 1.066798,-0.1524 0.558799,-0.152399 1.015998,-0.507999 0.474132,-0.355599 0.761998,-1.015998 0.287866,-0.677332 0.287866,-1.676396 v -0.626532 l 0.541866,1.69333 h -3.403593 v -2.167463 h 5.012256 v 6.485454 h -2.133595 l -0.338666,-1.79493 0.423332,0.338666 q -0.321733,0.558799 -0.829732,0.948265 -0.491065,0.389466 -1.151464,0.592666 -0.643465,0.203199 -1.405464,0.203199 z"
       id="text5"
       style="font-size:16.9333px;font-family:'Hanken Grotesk';-inkscape-font-specification:'Hanken Grotesk, @wght=800';font-variation-settings:'wght' 800;fill:#e4ff3a;stroke-width:2"
       aria-label="SCORING" /></g></svg>
