<?xml version="1.0" encoding="UTF-8" standalone="no"?>
<!-- Created with Inkscape (http://www.inkscape.org/) -->

<svg
   width="1920"
   height="1080"
   viewBox="0 0 507.99999 285.75"
   version="1.1"
   id="svg1"
   xml:space="preserve"
   sodipodi:docname="scoringPackagesDeliveredLabel.svg"
   inkscape:version="1.4.2 (ebf0e940d0, 2025-05-08)"
   xmlns:inkscape="http://www.inkscape.org/namespaces/inkscape"
   xmlns:sodipodi="http://sodipodi.sourceforge.net/DTD/sodipodi-0.dtd"
   xmlns="http://www.w3.org/2000/svg"
   xmlns:svg="http://www.w3.org/2000/svg"><sodipodi:namedview
     id="namedview1"
     pagecolor="#ffffff"
     bordercolor="#000000"
     borderopacity="0.25"
     inkscape:showpageshadow="2"
     inkscape:pageopacity="0.0"
     inkscape:pagecheckerboard="0"
     inkscape:deskcolor="#d1d1d1"
     inkscape:zoom="0.72592593"
     inkscape:cx="1306.6071"
     inkscape:cy="458.72449"
     inkscape:window-width="1920"
     inkscape:window-height="1002"
     inkscape:window-x="0"
     inkscape:window-y="0"
     inkscape:window-maximized="1"
     inkscape:current-layer="svg1" /><defs
     id="defs1" /><g
     id="layer1"><g
       id="g2"
       transform="translate(1.2412167e-5,-7.0962911)"><path
         id="rect2"
         style="font-variation-settings:'wght' 800;fill:#ff5f00;stroke-width:2.69239;paint-order:markers fill stroke"
         d="M 287.96689,50.207401 H 474.03308 V 61.376449 H 287.96689 Z" /><path
         d="m 297.54595,52.068181 0.94256,0.0124 q 0.5953,0.0186 1.09139,0.136424 1.03558,0.248043 1.28982,1.289823 0.16123,0.626309 0.15503,1.314628 -0.006,2.015349 -0.90536,2.567244 -0.36586,0.235641 -0.89295,0.291451 -0.35346,0.04341 -0.71933,0.04341 h -4.09271 v 1.792111 h -2.26959 v -7.44749 z m -3.13155,1.922333 v 1.810713 h 2.8587 l 0.70692,-0.0124 q 0.49609,-0.0248 0.62631,-0.260445 0.14882,-0.260445 0.14882,-0.688319 -0.0124,-0.781335 -0.65111,-0.824743 -0.32245,-0.0248 -0.96737,-0.0248 z m 11.58981,-1.922333 h 2.8835 l 4.11131,7.44749 h -2.57344 l -0.69452,-1.277421 v 0 h -4.595 v 0 l -0.66972,1.277421 h -2.57344 z m 0.0372,4.433768 v 0 h 2.76568 v 0 l -1.35184,-2.542441 v 0 z m 15.05,-1.7301 q -0.0248,-0.564298 -0.30385,-0.713123 -0.27285,-0.155027 -0.79374,-0.155027 h -1.38284 q -1.06038,0 -1.30222,0.0186 -0.70692,0.04341 -0.88676,0.539493 -0.0992,0.266647 -0.0992,1.085188 -0.006,1.140998 0.0744,1.43865 0.17983,0.688319 1.1286,0.688319 l 1.50066,0.0062 1.25261,0.0062 q 0.82474,-0.0248 0.89916,-0.768933 l 0.0124,-0.272847 h 2.26959 v 0.365863 q -0.006,0.892955 -0.19843,1.432448 -0.0806,0.241842 -0.26045,0.415472 -0.52089,0.545694 -1.87892,0.663515 -0.68212,0.06821 -1.38284,0.07441 -0.29765,0.0124 -0.87435,0.0062 -1.01698,0.0062 -1.53167,-0.0186 -0.50849,-0.02481 -0.99837,-0.08061 -0.48368,-0.05581 -0.89296,-0.204636 -0.49608,-0.155027 -0.76893,-0.502287 -0.42787,-0.496086 -0.51469,-1.140997 -0.10542,-0.700722 -0.10542,-1.699095 -0.006,-0.961166 0.0682,-1.7363 0.031,-0.427875 0.17983,-0.80614 0.39687,-1.054183 1.69289,-1.27122 0.98597,-0.161228 2.75948,-0.161228 h 1.03558 q 1.92233,0.0124 2.67886,0.378265 0.5705,0.279049 0.79374,1.060384 0.093,0.328657 0.0992,1.351834 h -2.2696 z m 6.3623,-2.703668 v 2.784282 h 1.01078 l 2.9083,-2.784282 h 3.24316 l -4.18572,3.733046 4.69421,3.714444 h -3.30517 l -3.40439,-2.740875 h -0.96117 v 2.740875 h -2.26959 v -7.44749 z m 11.95567,0 h 2.8835 l 4.11132,7.44749 h -2.57345 l -0.69452,-1.277421 v 0 h -4.595 v 0 l -0.66971,1.277421 h -2.57345 z m 0.0372,4.433768 v 0 h 2.76568 v 0 l -1.35184,-2.542441 v 0 z m 15.24224,-1.84792 q -0.0372,-0.700722 -0.70692,-0.731727 -0.37827,-0.0186 -1.53167,-0.0186 l -1.41384,0.0062 q -0.71312,0.0124 -1.01698,0.217037 -0.34726,0.235641 -0.38446,0.930162 -0.0248,0.40927 -0.0248,0.799938 -0.006,0.508488 0.0496,0.917759 0.0868,0.80614 0.74413,0.86815 0.27905,0.03721 0.85575,0.03721 h 0.90535 l 1.54407,-0.0062 q 1.02938,-0.0062 1.04798,-0.669716 v -0.241842 h -2.82769 v -1.519263 h 5.09729 v 0.266646 q 0,1.909931 -0.0682,2.399816 -0.0744,0.533292 -0.49608,0.998373 -0.37207,0.40927 -0.97977,0.52089 -0.37827,0.08061 -0.83715,0.105418 -0.98597,0.07441 -2.64785,0.06821 l -1.58128,-0.0124 q -1.01077,-0.0124 -1.48826,-0.155027 -0.80614,-0.235641 -1.1658,-0.886754 -0.34726,-0.589102 -0.39067,-1.711496 -0.031,-0.892955 -0.031,-1.785909 -0.006,-0.378266 0.006,-0.551896 0.006,-0.427874 0.16123,-0.880553 0.40927,-1.27122 1.91613,-1.513062 0.47128,-0.08061 0.80614,-0.09302 0.5829,-0.0248 1.87272,-0.03101 1.63089,0 2.46803,0.0248 2.34401,0.05581 2.38741,2.145572 v 0.502287 z m 3.73925,-2.585848 h 8.19162 v 1.736301 h -5.92203 v 1.016976 h 5.59337 v 1.612279 h -5.59337 v 1.345633 h 5.99024 v 1.736301 h -8.25983 z m 11.84405,4.923653 q 0.006,0.601504 0.30385,0.756531 0.19224,0.09922 0.85575,0.124021 l 0.64491,0.0186 h 1.66189 0.6015 q 0.70693,-0.0186 0.68832,-0.582901 -0.0124,-0.496085 -0.47128,-0.564297 -0.12402,-0.0124 -0.45888,-0.03101 l -0.45888,-0.0186 -1.36423,-0.05581 -0.66352,-0.03721 -1.141,-0.06201 q -0.6201,-0.0248 -1.05418,-0.09922 -0.96737,-0.161228 -1.1844,-0.961166 -0.13643,-0.452679 -0.13023,-0.967368 0,-0.942563 0.17363,-1.370437 0.29145,-0.713124 0.95497,-0.936362 0.66972,-0.22944 2.77188,-0.223239 1.1286,0.0062 2.13937,0.04961 1.46965,0.05581 2.09596,0.372065 0.77514,0.384466 0.83095,1.612279 v 0.502287 h -2.2696 l -0.0372,-0.272847 q -0.0744,-0.378266 -0.39067,-0.477483 -0.13642,-0.04341 -0.64491,-0.06201 l -0.61391,-0.0248 h -1.32703 l -0.5891,0.0186 q -0.25424,0.0124 -0.44648,0.06821 -0.37206,0.08682 -0.37826,0.514689 -0.0124,0.440277 0.45888,0.551896 0.23564,0.04961 0.50228,0.05581 l 0.58911,0.0124 2.08976,0.06821 1.21541,0.04961 q 0.52089,0.03101 0.96116,0.17363 1.11,0.372065 1.11,2.139371 -0.0124,1.96574 -1.79831,2.188979 -0.29145,0.04341 -0.65112,0.04961 -0.74413,0.03721 -1.50686,0.03101 -0.82474,-0.0062 -2.45562,-0.05581 -0.48369,-0.0124 -0.84335,-0.04341 -0.99217,-0.06821 -1.50066,-0.508488 -0.45268,-0.396869 -0.51469,-1.482057 l -0.0248,-0.52089 z m 20.90382,-4.923653 q 0.45268,0 0.81234,0.03101 0.40307,0.03101 0.74413,0.179831 0.44648,0.186033 0.69452,0.496086 0.51469,0.651113 0.6077,1.587475 0.0682,0.694521 0.0744,1.723899 -0.006,0.992172 -0.0744,1.395242 -0.13642,0.793737 -0.53329,1.283622 -0.39067,0.483684 -1.1844,0.657314 -0.42168,0.09302 -1.38284,0.09302 h -6.68476 v -7.44749 z m -4.65701,1.922333 v 3.602824 h 4.05551 q 0.71932,-0.0062 0.97356,-0.291451 0.24185,-0.260445 0.27905,-0.998373 0.0124,-0.34726 0.0124,-0.613906 -0.006,-0.564298 -0.0868,-0.985971 -0.14263,-0.719324 -1.1782,-0.713123 z m 9.07218,-1.922333 h 8.19162 v 1.736301 h -5.92203 v 1.016976 h 5.59337 v 1.612279 h -5.59337 v 1.345633 h 5.99024 v 1.736301 h -8.25983 z m 12.21611,0 v 5.525157 h 4.99187 v 1.922333 h -7.26146 v -7.44749 z m 6.26309,0 h 2.26959 v 7.44749 h -2.26959 z m 6.05844,0 2.95171,5.587168 v 0 l 2.98892,-5.587168 h 2.47423 l -4.0369,7.44749 h -2.8835 l -4.0369,-7.44749 z m 9.33882,0 h 8.19161 v 1.736301 h -5.92202 v 1.016976 h 5.59337 v 1.612279 h -5.59337 v 1.345633 h 5.99024 v 1.736301 h -8.25983 z m 16.43904,0 q 0.46508,0 0.92396,0.04961 1.04178,0.105418 1.42005,0.756531 0.15503,0.266646 0.21084,0.52089 0.11162,0.533292 0.11782,1.109992 0,0.92396 -0.25425,1.389041 -0.24804,0.458879 -1.172,0.731726 v 0 q 0.94256,0.260445 1.1658,0.638711 0.22324,0.372064 0.22324,1.339432 v 0.911558 h -2.26959 l -0.0186,-0.688319 q 0,-0.706923 -0.16743,-0.917759 -0.18603,-0.248043 -0.88055,-0.241842 h -3.60282 v 1.84792 h -2.2696 v -7.44749 z m -4.30354,1.922333 v 1.754904 h 3.17495 q 0.33486,0.0062 0.71932,-0.0124 0.28525,-0.0062 0.47128,-0.08682 0.33486,-0.155027 0.34106,-0.80614 0.006,-0.452678 -0.23564,-0.663515 -0.17363,-0.161228 -0.68832,-0.167429 l -0.66351,-0.0186 z m 8.56368,-1.922333 h 8.19162 v 1.736301 h -5.92202 v 1.016976 h 5.59337 v 1.612279 h -5.59337 v 1.345633 h 5.99023 v 1.736301 h -8.25983 z m 16.75531,0 q 0.45267,0 0.81234,0.03101 0.40307,0.03101 0.74413,0.179831 0.44647,0.186033 0.69452,0.496086 0.51469,0.651113 0.6077,1.587475 0.0682,0.694521 0.0744,1.723899 -0.006,0.992172 -0.0744,1.395242 -0.13642,0.793737 -0.53329,1.283622 -0.39067,0.483684 -1.18441,0.657314 -0.42167,0.09302 -1.38284,0.09302 h -6.68475 v -7.44749 z m -4.65701,1.922333 v 3.602824 h 4.0555 q 0.71933,-0.0062 0.97357,-0.291451 0.24184,-0.260445 0.27905,-0.998373 0.0124,-0.34726 0.0124,-0.613906 -0.006,-0.564298 -0.0868,-0.985971 -0.14263,-0.719324 -1.17821,-0.713123 z"
         id="text6-1"
         style="font-size:12.6998px;font-family:'Microstyle Bold Extended ATT';-inkscape-font-specification:'Microstyle Bold Extended ATT, @wght=800';font-variation-settings:'wght' 800;text-align:center;text-anchor:middle;fill:#ffffff;stroke-width:3.96867;paint-order:markers fill stroke"
         aria-label="PACKAGES DELIVERED" /></g></g></svg>
