<?xml version="1.0" encoding="UTF-8" standalone="no"?>
<!-- Created with Inkscape (http://www.inkscape.org/) -->

<svg
   width="436.59372"
   height="361.21872"
   viewBox="0 0 115.51542 95.572453"
   version="1.1"
   id="svg1"
   sodipodi:docname="scoringRankS.svg"
   inkscape:version="1.4.2 (ebf0e940d0, 2025-05-08)"
   inkscape:export-filename="scoringScoringBox.svg"
   inkscape:export-xdpi="96"
   inkscape:export-ydpi="96"
   xml:space="preserve"
   xmlns:inkscape="http://www.inkscape.org/namespaces/inkscape"
   xmlns:sodipodi="http://sodipodi.sourceforge.net/DTD/sodipodi-0.dtd"
   xmlns="http://www.w3.org/2000/svg"
   xmlns:svg="http://www.w3.org/2000/svg"><sodipodi:namedview
     id="namedview1"
     pagecolor="#ffffff"
     bordercolor="#000000"
     borderopacity="0.25"
     inkscape:showpageshadow="2"
     inkscape:pageopacity="0.0"
     inkscape:pagecheckerboard="0"
     inkscape:deskcolor="#d1d1d1"
     inkscape:zoom="0.72592592"
     inkscape:cx="274.13266"
     inkscape:cy="234.18368"
     inkscape:window-width="1920"
     inkscape:window-height="1002"
     inkscape:window-x="0"
     inkscape:window-y="0"
     inkscape:window-maximized="1"
     inkscape:current-layer="layer1"><inkscape:page
       x="0"
       y="0"
       width="115.51542"
       height="95.572456"
       id="page2"
       margin="0"
       bleed="0" /></sodipodi:namedview><defs
     id="defs1" /><g
     id="layer1"
     transform="translate(-80.708176,-68.909141)"><path
       d="m 109.9281,131.09449 q 0.0744,7.21816 3.64629,9.07851 2.30684,1.19063 10.26914,1.48829 l 7.73906,0.22324 h 19.94297 7.21816 q 8.48321,-0.22324 8.25997,-6.99492 -0.14883,-5.95313 -5.65547,-6.77168 -1.48828,-0.14883 -5.50664,-0.37207 l -5.50664,-0.22325 -16.3711,-0.66972 -7.9623,-0.44649 -13.69219,-0.74414 q -7.4414,-0.29765 -12.650388,-1.19062 -11.608594,-1.93477 -14.213086,-11.53418 -1.637109,-5.43223 -1.562695,-11.60859 0,-11.310941 2.083594,-16.445511 3.49746,-8.557617 11.459765,-11.236523 8.03672,-2.75332 33.26308,-2.678906 13.54336,0.07441 25.67285,0.595312 17.63614,0.669727 25.15196,4.464844 9.30175,4.613671 9.97148,19.347655 v 6.027539 h -27.23554 l -0.44649,-3.274219 q -0.89297,-4.539257 -4.68808,-5.729882 -1.63711,-0.520899 -7.73907,-0.744141 l -7.36699,-0.297656 h -15.92461 l -7.06933,0.223242 q -3.05098,0.148828 -5.35782,0.818555 -4.46484,1.041797 -4.53925,6.176367 -0.14883,5.283394 5.50664,6.622854 2.82773,0.59531 6.02754,0.66972 l 7.06933,0.14883 25.07754,0.81856 14.58516,0.59531 q 6.25078,0.37207 11.53417,2.08359 13.32012,4.46485 13.32012,25.67285 -0.14883,23.58926 -21.58008,26.26817 -3.49746,0.52089 -7.81347,0.59531 -8.92969,0.44648 -18.08262,0.37207 -9.89707,-0.0744 -29.46797,-0.66973 -5.80429,-0.14883 -10.12031,-0.5209 -11.906248,-0.81855 -18.008201,-6.10195 -5.432226,-4.7625 -6.176367,-17.78496 l -0.297656,-6.25078 z"
       id="text1-2"
       style="font-size:152.4px;font-family:'Microstyle Bold Extended ATT';-inkscape-font-specification:'Microstyle Bold Extended ATT, Normal';text-align:center;text-anchor:middle;fill:#ff7f7e;stroke:#ececec;stroke-width:3.96875;paint-order:markers fill stroke"
       inkscape:label="S"
       aria-label="S" /></g></svg>
