<?xml version="1.0" encoding="UTF-8" standalone="no"?>
<!-- Created with Inkscape (http://www.inkscape.org/) -->

<svg
   width="442.78122"
   height="353.0625"
   viewBox="0 0 117.15253 93.414453"
   version="1.1"
   id="svg1"
   sodipodi:docname="scoringRankB.svg"
   inkscape:version="1.4.2 (ebf0e940d0, 2025-05-08)"
   inkscape:export-filename="scoringScoringBox.svg"
   inkscape:export-xdpi="96"
   inkscape:export-ydpi="96"
   xml:space="preserve"
   xmlns:inkscape="http://www.inkscape.org/namespaces/inkscape"
   xmlns:sodipodi="http://sodipodi.sourceforge.net/DTD/sodipodi-0.dtd"
   xmlns="http://www.w3.org/2000/svg"
   xmlns:svg="http://www.w3.org/2000/svg"><sodipodi:namedview
     id="namedview1"
     pagecolor="#ffffff"
     bordercolor="#000000"
     borderopacity="0.25"
     inkscape:showpageshadow="2"
     inkscape:pageopacity="0.0"
     inkscape:pagecheckerboard="0"
     inkscape:deskcolor="#d1d1d1"
     inkscape:zoom="0.51330714"
     inkscape:cx="43.833405"
     inkscape:cy="407.16363"
     inkscape:window-width="1920"
     inkscape:window-height="1002"
     inkscape:window-x="0"
     inkscape:window-y="0"
     inkscape:window-maximized="1"
     inkscape:current-layer="layer1"><inkscape:page
       x="0"
       y="0"
       width="117.15253"
       height="93.414452"
       id="page2"
       margin="0"
       bleed="0" /></sodipodi:namedview><defs
     id="defs1" /><g
     id="layer1"
     transform="translate(-80.212082,-70.000556)"><path
       d="m 149.16911,71.984931 q 6.39961,0 9.59941,0.07441 7.06934,0.148828 13.69219,0.967383 15.18047,1.934765 18.38027,13.39453 1.26504,4.464844 1.26504,9.301758 -0.22324,15.106054 -10.19472,19.050004 l -3.49746,1.19062 v 0 l 4.2416,0.96738 q 12.7248,3.42305 12.65039,20.16621 0,5.20899 -1.48828,9.82266 -3.94395,12.50156 -18.08262,14.06426 -3.49746,0.44648 -7.81348,0.37207 H 82.196456 V 71.984931 Z M 109.432,126.23278 v 14.2875 h 48.81562 q 9.59942,0.14883 9.82266,-6.77168 -0.0744,-4.68809 -4.01836,-6.62285 -1.93476,-0.81856 -3.86953,-0.89297 z m 0,-33.411912 v 14.064252 h 45.46699 q 2.82774,0 5.06016,-0.44648 4.98574,-1.11621 4.91133,-6.697265 0,-6.920507 -12.72481,-6.920507 z"
       id="text1-2-7"
       style="font-size:152.4px;font-family:'Microstyle Bold Extended ATT';-inkscape-font-specification:'Microstyle Bold Extended ATT, Normal';text-align:center;text-anchor:middle;fill:#feff7f;stroke:#ececec;stroke-width:3.96875;paint-order:markers fill stroke"
       inkscape:label="B"
       aria-label="B" /></g></svg>
