<?xml version="1.0" encoding="UTF-8" standalone="no"?>
<!-- Created with Inkscape (http://www.inkscape.org/) -->

<svg
   width="1920"
   height="1080"
   viewBox="0 0 507.99999 285.75"
   version="1.1"
   id="svg1"
   xml:space="preserve"
   sodipodi:docname="selectionScreenCruiser.svg"
   inkscape:version="1.4.2 (ebf0e940d0, 2025-05-08)"
   xmlns:inkscape="http://www.inkscape.org/namespaces/inkscape"
   xmlns:sodipodi="http://sodipodi.sourceforge.net/DTD/sodipodi-0.dtd"
   xmlns="http://www.w3.org/2000/svg"
   xmlns:svg="http://www.w3.org/2000/svg"><sodipodi:namedview
     id="namedview1"
     pagecolor="#ffffff"
     bordercolor="#000000"
     borderopacity="0.25"
     inkscape:showpageshadow="2"
     inkscape:pageopacity="0.0"
     inkscape:pagecheckerboard="0"
     inkscape:deskcolor="#d1d1d1"
     inkscape:zoom="0.72592593"
     inkscape:cx="960.15306"
     inkscape:cy="540"
     inkscape:window-width="1920"
     inkscape:window-height="1002"
     inkscape:window-x="0"
     inkscape:window-y="0"
     inkscape:window-maximized="1"
     inkscape:current-layer="svg1" /><defs
     id="defs1"><linearGradient
       id="swatch2"><stop
         style="stop-color:#000000;stop-opacity:1;"
         offset="0"
         id="stop2" /></linearGradient></defs><g
     id="layer1"><path
       d="m 161.15753,91.082661 q -0.0276,-0.626749 -0.33748,-0.792046 -0.30304,-0.172184 -0.88158,-0.172184 h -1.53588 q -1.17774,0 -1.44635,0.02066 -0.78515,0.04821 -0.98489,0.5992 -0.1102,0.296156 -0.1102,1.205287 -0.007,1.267273 0.0827,1.597866 0.19974,0.764496 1.2535,0.764496 l 1.66674,0.0069 1.39125,0.0069 q 0.91601,-0.02755 0.99866,-0.854032 l 0.0138,-0.303043 h 2.52077 v 0.406353 q -0.007,0.991779 -0.2204,1.590979 -0.0895,0.268607 -0.28927,0.461453 -0.57853,0.606087 -2.08686,0.736947 -0.75761,0.07576 -1.53588,0.08265 -0.3306,0.01377 -0.97112,0.0069 -1.12953,0.0069 -1.70118,-0.02066 -0.56476,-0.02755 -1.10886,-0.08954 -0.53721,-0.06199 -0.99178,-0.227282 -0.55099,-0.172184 -0.85403,-0.557876 -0.47523,-0.550988 -0.57165,-1.267273 -0.11709,-0.778271 -0.11709,-1.887135 -0.007,-1.067539 0.0758,-1.928459 0.0344,-0.475227 0.19974,-0.895356 0.44079,-1.17085 1.88024,-1.411907 1.09509,-0.179071 3.06488,-0.179071 h 1.15018 q 2.13508,0.01377 2.97534,0.420128 0.63364,0.309931 0.88158,1.177738 0.10331,0.365029 0.1102,1.501443 h -2.52077 z m 11.6534,-3.002886 q 0.51655,0 1.02622,0.0551 1.15707,0.117086 1.5772,0.840258 0.17218,0.296156 0.23417,0.578537 0.12397,0.592313 0.13086,1.232837 0,1.026215 -0.28238,1.542767 -0.2755,0.509664 -1.30171,0.812707 v 0 q 1.04688,0.289269 1.29482,0.709398 0.24795,0.413241 0.24795,1.487668 v 1.012441 h -2.52078 l -0.0207,-0.764496 q 0,-0.785158 -0.18596,-1.019328 -0.20662,-0.275494 -0.978,-0.268607 h -4.00155 v 2.052431 h -2.52077 v -8.271711 z m -4.77982,2.135079 v 1.949121 h 3.52632 q 0.37192,0.0069 0.79894,-0.01377 0.31681,-0.0069 0.52343,-0.09642 0.37192,-0.172184 0.37881,-0.895356 0.007,-0.502777 -0.26172,-0.736947 -0.19285,-0.179071 -0.7645,-0.185959 l -0.73694,-0.02066 z m 9.61474,-2.135079 h 2.52077 v 4.690287 q -0.007,0.316819 0.007,0.461453 0.0138,0.950455 1.19151,1.026216 0.73695,0.0551 1.46012,0.0551 1.17085,-0.0069 1.64608,-0.06199 1.0331,-0.130859 1.08131,-1.019328 0.0138,-0.261719 0.0207,-0.633636 v -4.518104 h 2.52077 v 5.420347 l -0.0344,0.385692 q -0.0964,1.115751 -0.57854,1.666739 -0.48211,0.544101 -1.54276,0.764496 -0.26861,0.06199 -0.37192,0.06887 -0.57854,0.06199 -3.01666,0.06199 l -1.77694,-0.02755 q -2.16951,-0.02755 -2.68607,-1.246611 -0.37191,-0.819595 -0.42012,-1.866473 l -0.0207,-0.668073 z m 12.5832,0 h 2.52077 v 8.271711 h -2.52077 z m 6.74272,5.468558 q 0.007,0.668074 0.33748,0.840257 0.21351,0.110198 0.95045,0.137748 l 0.71629,0.02066 h 1.84581 0.66807 q 0.78516,-0.02066 0.7645,-0.647412 -0.0138,-0.550988 -0.52344,-0.626749 -0.13775,-0.01378 -0.50966,-0.03444 l -0.50967,-0.02066 -1.51522,-0.06199 -0.73694,-0.04132 -1.26728,-0.06887 q -0.68873,-0.02755 -1.17085,-0.110198 -1.07442,-0.179071 -1.31548,-1.06754 -0.15152,-0.502777 -0.14463,-1.074427 0,-1.046878 0.19284,-1.522105 0.32371,-0.792046 1.06065,-1.039991 0.74384,-0.254832 3.07865,-0.247944 1.2535,0.0069 2.37614,0.0551 1.6323,0.06199 2.32792,0.413241 0.86092,0.427016 0.92291,1.790712 v 0.557875 h -2.52077 l -0.0413,-0.303043 q -0.0827,-0.420129 -0.4339,-0.530326 -0.15152,-0.04821 -0.71628,-0.06887 l -0.68185,-0.02755 h -1.4739 l -0.6543,0.02066 q -0.28238,0.01377 -0.49588,0.07576 -0.41325,0.09642 -0.42013,0.57165 -0.0138,0.489002 0.50966,0.612974 0.26172,0.0551 0.55788,0.06199 l 0.6543,0.01377 2.32103,0.07576 1.34992,0.0551 q 0.57854,0.03444 1.06754,0.192846 1.23284,0.413241 1.23284,2.376137 -0.0138,2.183291 -1.99733,2.431236 -0.32371,0.04821 -0.72317,0.0551 -0.82649,0.04133 -1.67363,0.03444 -0.91602,-0.0069 -2.72739,-0.06199 -0.53722,-0.01378 -0.93668,-0.04821 -1.10198,-0.07576 -1.66674,-0.564762 -0.50278,-0.440791 -0.57165,-1.646078 l -0.0276,-0.578538 z m 9.3117,-5.468558 h 9.09819 v 1.928459 h -6.57742 v 1.129526 h 6.21239 v 1.790712 h -6.21239 v 1.494555 h 6.65318 v 1.928459 h -9.17395 z m 18.25837,0 q 0.51655,0 1.02622,0.0551 1.15707,0.117086 1.5772,0.840258 0.17219,0.296156 0.23417,0.578537 0.12398,0.592313 0.13086,1.232837 0,1.026215 -0.28238,1.542767 -0.27549,0.509664 -1.30171,0.812707 v 0 q 1.04688,0.289269 1.29482,0.709398 0.24795,0.413241 0.24795,1.487668 v 1.012441 h -2.52077 l -0.0207,-0.764496 q 0,-0.785158 -0.18595,-1.019328 -0.20662,-0.275494 -0.97801,-0.268607 h -4.00155 v 2.052431 h -2.52077 v -8.271711 z m -4.77982,2.135079 v 1.949121 h 3.52632 q 0.37192,0.0069 0.79894,-0.01377 0.31682,-0.0069 0.52344,-0.09642 0.37191,-0.172184 0.3788,-0.895356 0.007,-0.502777 -0.26172,-0.736947 -0.19284,-0.179071 -0.76449,-0.185959 l -0.73695,-0.02066 z"
       id="text11"
       style="font-size:14.1053px;font-family:'Microstyle Bold Extended ATT';-inkscape-font-specification:'Microstyle Bold Extended ATT, Normal';fill:#e4ff3a;stroke-width:1.99918"
       transform="scale(1.0004099,0.99959022)"
       aria-label="CRUISER" /></g></svg>
