<?xml version="1.0" encoding="UTF-8" standalone="no"?>
<!-- Created with Inkscape (http://www.inkscape.org/) -->

<svg
   width="1920"
   height="1080"
   viewBox="0 0 507.99999 285.75"
   version="1.1"
   id="svg1"
   xml:space="preserve"
   sodipodi:docname="selectionScreenMonarch.svg"
   inkscape:version="1.4.2 (ebf0e940d0, 2025-05-08)"
   xmlns:inkscape="http://www.inkscape.org/namespaces/inkscape"
   xmlns:sodipodi="http://sodipodi.sourceforge.net/DTD/sodipodi-0.dtd"
   xmlns="http://www.w3.org/2000/svg"
   xmlns:svg="http://www.w3.org/2000/svg"><sodipodi:namedview
     id="namedview1"
     pagecolor="#ffffff"
     bordercolor="#000000"
     borderopacity="0.25"
     inkscape:showpageshadow="2"
     inkscape:pageopacity="0.0"
     inkscape:pagecheckerboard="0"
     inkscape:deskcolor="#d1d1d1"
     inkscape:zoom="0.72592593"
     inkscape:cx="960.15306"
     inkscape:cy="540"
     inkscape:window-width="1920"
     inkscape:window-height="1002"
     inkscape:window-x="0"
     inkscape:window-y="0"
     inkscape:window-maximized="1"
     inkscape:current-layer="svg1" /><defs
     id="defs1"><linearGradient
       id="swatch2"><stop
         style="stop-color:#000000;stop-opacity:1;"
         offset="0"
         id="stop2" /></linearGradient></defs><g
     id="layer1"><path
       d="m 399.94456,88.036967 h 4.01009 l 2.88699,5.319224 v 0 l 2.949,-5.319224 h 4.01009 v 8.275113 h -2.52181 v -6.035802 0 l -3.4382,6.035802 h -1.99127 l -3.38308,-6.063363 v 0 6.063363 h -2.52181 z m 19.08582,8.350905 q -0.60634,0.0069 -1.06798,-0.02756 -1.17822,-0.05512 -1.79834,-0.72347 -0.26872,-0.275607 -0.39274,-0.571885 -0.33762,-0.74414 -0.34451,-2.687173 l 0.0138,-1.074869 q 0.0344,-1.088649 0.26183,-1.825899 0.28938,-0.909504 1.26779,-1.267794 0.70969,-0.261827 3.68625,-0.268717 l 1.81212,0.0069 q 1.93614,0.01378 2.54937,0.227376 1.31602,0.461643 1.50206,1.929252 0.0551,0.447862 0.062,1.205783 l 0.0207,1.364256 q -0.007,0.840603 -0.0689,1.433159 -0.0551,0.482313 -0.25494,0.930175 -0.58566,1.329806 -2.34955,1.364257 -0.24805,0.01378 -1.28158,0.0069 z m 3.21771,-2.115287 q 0.61323,0.0069 0.90262,-0.04134 0.50987,-0.07579 0.71658,-0.482313 0.21359,-0.413411 0.21359,-1.805228 -0.0138,-0.73725 -0.0689,-1.012858 -0.11713,-0.585665 -0.62012,-0.723469 -0.35829,-0.09646 -0.79926,-0.110243 -0.68213,-0.01378 -1.6123,-0.02067 h -0.90951 q -0.50987,0.0069 -1.01974,0.03445 -0.62012,0.04134 -0.88195,0.427192 -0.22737,0.344509 -0.22048,1.998154 0.007,1.171331 0.38585,1.474499 0.2756,0.227377 1.53651,0.234267 z m 9.85986,-6.235618 4.76801,6.173607 v 0 -6.173607 h 2.5218 v 8.275113 h -4.01008 l -4.76801,-6.187386 v 0 6.187386 h -2.52181 v -8.275113 z m 13.10513,0 h 3.20394 l 4.56819,8.275113 h -2.85942 l -0.7717,-1.419378 v 0 h -5.10563 v 0 l -0.74414,1.419378 h -2.85943 z m 0.0413,4.926483 v 0 h 3.07303 v 0 l -1.50206,-2.824976 v 0 z m 16.3573,-4.926483 q 0.51677,0 1.02664,0.05512 1.15755,0.117133 1.57785,0.840603 0.17226,0.296278 0.23427,0.578775 0.12402,0.592556 0.13091,1.233343 0,1.026638 -0.2825,1.543402 -0.2756,0.509874 -1.30224,0.813042 v 0 q 1.04731,0.289388 1.29535,0.709689 0.24805,0.413411 0.24805,1.48828 v 1.012857 h -2.52181 l -0.0207,-0.76481 q 0,-0.785481 -0.18603,-1.019748 -0.20671,-0.275607 -0.97841,-0.268717 h -4.0032 v 2.053275 h -2.5218 v -8.275113 z m -4.78179,2.135958 v 1.949923 h 3.52778 q 0.37207,0.0069 0.79926,-0.01378 0.31695,-0.0069 0.52365,-0.09646 0.37207,-0.172255 0.37896,-0.895725 0.007,-0.502983 -0.26182,-0.737249 -0.19293,-0.179145 -0.76481,-0.186035 l -0.73725,-0.02067 z m 17.17035,0.868163 q -0.0276,-0.627007 -0.33762,-0.792371 -0.30317,-0.172255 -0.88194,-0.172255 h -1.53652 q -1.17822,0 -1.44693,0.02067 -0.78549,0.04823 -0.9853,0.599446 -0.11024,0.296278 -0.11024,1.205783 -0.007,1.267794 0.0827,1.598523 0.19981,0.76481 1.25401,0.76481 l 1.66743,0.0069 1.39181,0.0069 q 0.9164,-0.02756 0.99908,-0.854383 l 0.0138,-0.303169 h 2.52181 v 0.406521 q -0.007,0.992187 -0.22049,1.591633 -0.0896,0.268718 -0.28938,0.461643 -0.57878,0.606336 -2.08773,0.73725 -0.75792,0.07579 -1.53651,0.08268 -0.33073,0.01378 -0.97152,0.0069 -1.12999,0.0069 -1.70187,-0.02067 -0.565,-0.02756 -1.10932,-0.08957 -0.53744,-0.06201 -0.99219,-0.227376 -0.55122,-0.172255 -0.85438,-0.558105 -0.47543,-0.551215 -0.57189,-1.267794 -0.11713,-0.778591 -0.11713,-1.887911 -0.007,-1.067979 0.0758,-1.929252 0.0344,-0.475423 0.19981,-0.895724 0.44098,-1.171332 1.88103,-1.412488 1.09554,-0.179145 3.06613,-0.179145 h 1.15066 q 2.13596,0.01378 2.97656,0.420301 0.6339,0.310059 0.88194,1.178222 0.10336,0.36518 0.11025,1.50206 h -2.52181 z m 4.40283,-3.004121 h 2.52181 v 3.093694 h 5.60861 v -3.093694 h 2.52181 v 8.275113 h -2.52181 v -3.045462 h -5.60861 v 3.045462 h -2.52181 z"
       id="text13"
       style="font-size:14.1111px;font-family:'Microstyle Bold Extended ATT';-inkscape-font-specification:'Microstyle Bold Extended ATT, Normal';fill:#e4ff3a;stroke-width:2"
       aria-label="MONARCH" /></g></svg>
