<?xml version="1.0" encoding="UTF-8" standalone="no"?>
<!-- Created with Inkscape (http://www.inkscape.org/) -->

<svg
   width="1920"
   height="1080"
   viewBox="0 0 507.99999 285.75"
   version="1.1"
   id="svg1"
   xml:space="preserve"
   xmlns="http://www.w3.org/2000/svg"
   xmlns:svg="http://www.w3.org/2000/svg"><defs
     id="defs1"><linearGradient
       id="swatch2"><stop
         style="stop-color:#000000;stop-opacity:1;"
         offset="0"
         id="stop2" /></linearGradient></defs><g
     id="layer1"><g
       id="g1"
       transform="matrix(0.87499991,0,0,0.87499991,17.197917,105.2054)"><rect
         style="fill:#333333;stroke-width:2.30793"
         id="rect3-1"
         width="105.83334"
         height="105.83334"
         x="-4.4408921e-16"
         y="0" /><rect
         style="fill:#4d4d4d;stroke-width:1.87519"
         id="rect3"
         width="85.989586"
         height="85.989586"
         x="10.191108"
         y="10.033441" /><g
         id="layer1-5"><g
           id="g3"><path
             id="rect1-3"
             style="display:inline;fill:#e4ff3a;stroke:#000000;stroke-width:3.96875;stroke-dasharray:none;stroke-opacity:1"
             d="m 52.468871,61.301503 a 19.616672,19.616672 0 0 0 -13.666608,-5.544329 19.616672,19.616672 0 0 0 -17.543582,10.839084 19.616672,19.616672 0 0 0 -3.66e-4,3.65e-4 H -20.776708 A 19.616672,19.616672 0 0 0 -38.57973,55.218928 19.616672,19.616672 0 0 0 -56.673981,67.259838 h 14.073306 l 4.021311,7.575995 -4.021311,7.901939 h -13.93299 a 19.616672,19.616672 0 0 0 17.954301,11.7146 19.616672,19.616672 0 0 0 17.802656,-11.37806 H 20.7599 a 19.616672,19.616672 0 0 0 3.65e-4,3.65e-4 19.616672,19.616672 0 0 0 18.041998,11.915575 19.616672,19.616672 0 0 0 18.094982,-12.04091 H 42.823939 l -4.021676,-7.575629 4.02131,-7.902669 h 13.93299 a 19.616672,19.616672 0 0 0 -4.287692,-6.169541 z"
             transform="rotate(-45)" /></g></g></g></g></svg>
