<?xml version="1.0" encoding="UTF-8" standalone="no"?>
<!-- Created with Inkscape (http://www.inkscape.org/) -->

<svg
   width="1920"
   height="1080"
   viewBox="0 0 507.99999 285.75"
   version="1.1"
   id="svg1"
   xml:space="preserve"
   sodipodi:docname="selectionScreenWorkhorseDescription.svg"
   inkscape:version="1.4.2 (ebf0e940d0, 2025-05-08)"
   xmlns:inkscape="http://www.inkscape.org/namespaces/inkscape"
   xmlns:sodipodi="http://sodipodi.sourceforge.net/DTD/sodipodi-0.dtd"
   xmlns="http://www.w3.org/2000/svg"
   xmlns:svg="http://www.w3.org/2000/svg"><sodipodi:namedview
     id="namedview1"
     pagecolor="#ffffff"
     bordercolor="#000000"
     borderopacity="0.25"
     inkscape:showpageshadow="2"
     inkscape:pageopacity="0.0"
     inkscape:pagecheckerboard="0"
     inkscape:deskcolor="#d1d1d1"
     inkscape:zoom="0.72592593"
     inkscape:cx="199.7449"
     inkscape:cy="651.58163"
     inkscape:window-width="1920"
     inkscape:window-height="1002"
     inkscape:window-x="0"
     inkscape:window-y="0"
     inkscape:window-maximized="1"
     inkscape:current-layer="svg1" /><defs
     id="defs1"><linearGradient
       id="swatch2"><stop
         style="stop-color:#000000;stop-opacity:1;"
         offset="0"
         id="stop2" /></linearGradient></defs><g
     id="layer1"><g
       id="text3"
       style="font-size:11.2889px;font-family:'Hanken Grotesk';-inkscape-font-specification:'Hanken Grotesk, @wght=800';font-variation-settings:'wght' 800;text-align:center;text-anchor:middle;fill:#e4ff3a;stroke-width:3.96875;paint-order:markers fill stroke"
       aria-label="JACK OF ALL TRADESAUTOMATIC TURRETHEAL ON PACKAGES DELIVERED"><path
         d="m 9.7339765,212.48305 q -1.1627567,0 -1.8965353,-0.7112 -0.7337785,-0.7112 -0.8240897,-1.98685 l 1.6030239,-0.16933 q 0.045156,0.73378 0.3160892,1.04987 0.2709336,0.31609 0.8015119,0.31609 0.6208895,0 0.8466675,-0.39512 0.237067,-0.39511 0.237067,-1.09502 v -3.62374 H 7.9277524 v -1.44498 h 4.5155606 v 5.15903 q 0,0.89182 -0.327379,1.54658 -0.327378,0.64347 -0.936978,1.00471 -0.609601,0.34996 -1.4449795,0.34996 z m 3.1360485,-0.19191 3.217337,-7.86837 h 1.196623 l 3.217337,7.86837 h -1.761069 l -2.043291,-5.47512 -2.065868,5.47512 z m 2.212625,-1.43369 0.508,-1.44498 h 2.201336 l 0.519289,1.44498 z m 9.317863,1.6256 q -1.12889,0 -1.986847,-0.51929 -0.857956,-0.51929 -1.343379,-1.44498 -0.474134,-0.92569 -0.474134,-2.16747 0,-1.24178 0.474134,-2.15618 0.485423,-0.92569 1.343379,-1.44498 0.857957,-0.51929 1.986847,-0.51929 1.275645,0 2.190046,0.64347 0.92569,0.63218 1.332091,1.74978 l -1.524002,0.55316 q -0.237067,-0.66605 -0.756356,-1.02729 -0.508001,-0.37254 -1.241779,-0.37254 -0.666046,0 -1.162757,0.31609 -0.496712,0.3048 -0.767645,0.88054 -0.259645,0.57573 -0.259645,1.37724 0,0.80151 0.259645,1.38854 0.270933,0.57573 0.767645,0.89182 0.496711,0.3048 1.162757,0.3048 0.733778,0 1.241779,-0.37253 0.519289,-0.37254 0.756356,-1.02729 l 1.524002,0.55315 q -0.406401,1.10631 -1.332091,1.74978 -0.914401,0.64347 -2.190046,0.64347 z m 5.825076,-2.51743 v -2.04329 l 3.296359,-3.49956 h 2.178758 z m -1.298223,2.32552 v -7.86837 h 1.614312 v 7.86837 z m 4.876804,0 -2.427113,-3.8721 1.207912,-1.1176 3.138315,4.9897 z m 9.144023,0.19191 q -1.12889,0 -1.986846,-0.51929 -0.857956,-0.51929 -1.343379,-1.44498 -0.474134,-0.92569 -0.474134,-2.15618 0,-1.24178 0.474134,-2.16747 0.485423,-0.92569 1.343379,-1.44498 0.857956,-0.51929 1.986846,-0.51929 1.140179,0 1.998136,0.51929 0.857956,0.508 1.33209,1.43369 0.485423,0.92569 0.485423,2.17876 0,1.24178 -0.485423,2.16747 -0.485423,0.92569 -1.343379,1.44498 -0.857956,0.508 -1.986847,0.508 z m 0,-1.54658 q 0.677334,0 1.162757,-0.31609 0.485423,-0.31609 0.756357,-0.89182 0.270933,-0.58703 0.270933,-1.36596 0,-0.79022 -0.270933,-1.36596 -0.270934,-0.58702 -0.756357,-0.90311 -0.485423,-0.31609 -1.174045,-0.31609 -0.654757,0 -1.151468,0.31609 -0.496712,0.3048 -0.767645,0.88054 -0.259645,0.57573 -0.259645,1.38853 0,0.80151 0.259645,1.37725 0.270933,0.57573 0.767645,0.89182 0.496711,0.3048 1.162756,0.3048 z m 4.933247,1.35467 v -7.86837 h 5.294495 v 1.44498 h -3.680182 v 1.65947 h 3.194759 v 1.44498 h -3.194759 v 3.31894 z m 8.545703,0 3.217336,-7.86837 h 1.196624 l 3.217336,7.86837 h -1.761068 l -2.043291,-5.47512 -2.065869,5.47512 z m 2.212624,-1.43369 0.508001,-1.44498 h 2.201335 l 0.51929,1.44498 z m 6.18633,1.43369 v -7.86837 h 1.614312 v 6.42339 h 3.285071 v 1.44498 z m 5.723469,0 v -7.86837 h 1.614312 v 6.42339 h 3.28507 v 1.44498 z m 10.41966,0 v -6.42339 h -2.370669 v -1.44498 h 6.36694 v 1.44498 h -2.35938 v 6.42339 z m 4.82036,0 v -7.86837 h 2.686759 q 0.970845,0 1.557868,0.28223 0.598312,0.28222 0.869245,0.80151 0.282223,0.51929 0.282223,1.2192 0,1.1176 -0.643468,1.71591 -0.632178,0.59831 -1.794935,0.66605 -0.293511,0 -0.575734,0 -0.282222,0 -0.462845,0 h -0.3048 v 3.18347 z m 4.233338,0 -1.95298,-3.36409 1.659469,-0.19192 2.167468,3.55601 z m -2.619025,-4.62845 h 0.903112 q 0.327378,0 0.609601,-0.0677 0.293511,-0.0677 0.462845,-0.25965 0.180622,-0.2032 0.180622,-0.58702 0,-0.39511 -0.180622,-0.57574 -0.169334,-0.19191 -0.462845,-0.24835 -0.282223,-0.0565 -0.609601,-0.0565 h -0.903112 z m 4.684888,4.62845 3.217336,-7.86837 h 1.196624 l 3.217336,7.86837 h -1.761068 l -2.043291,-5.47512 -2.065869,5.47512 z m 2.212624,-1.43369 0.508001,-1.44498 h 2.201335 l 0.51929,1.44498 z m 6.186329,1.43369 v -7.86837 h 2.3368 q 1.96427,0 3.03671,1.03858 1.08374,1.03858 1.08374,2.95769 0,1.87396 -1.06116,2.87867 -1.06116,0.99343 -3.07058,0.99343 z m 1.61431,-1.47885 h 0.54187 q 0.84666,0 1.44498,-0.2032 0.59831,-0.21449 0.9144,-0.74507 0.31609,-0.53057 0.31609,-1.50142 0,-0.94827 -0.3048,-1.47885 -0.3048,-0.54186 -0.86925,-0.75635 -0.56444,-0.22578 -1.35467,-0.22578 h -0.68862 z m 5.96053,1.47885 v -7.86837 h 5.26063 v 1.44498 h -3.64632 v 1.65947 h 3.43183 v 1.44498 h -3.43183 v 1.87396 h 3.64632 v 1.44498 z m 9.13273,0.15804 q -1.28694,0 -2.11103,-0.66604 -0.8128,-0.66605 -0.99342,-1.77236 l 1.58044,-0.39511 q 0.12418,0.69991 0.54187,1.04987 0.41769,0.34995 1.03858,0.34995 0.31609,0 0.57573,-0.1016 0.25965,-0.11289 0.4064,-0.31609 0.14676,-0.2032 0.14676,-0.48542 0,-0.25964 -0.15804,-0.45156 -0.14676,-0.2032 -0.47414,-0.37253 -0.32738,-0.16933 -0.83538,-0.36124 -0.76764,-0.3048 -1.27564,-0.64347 -0.508,-0.34996 -0.75636,-0.80151 -0.23707,-0.45156 -0.23707,-1.04987 0,-0.64347 0.31609,-1.14018 0.31609,-0.49671 0.88054,-0.77893 0.57573,-0.28223 1.33209,-0.28223 0.8128,0 1.43369,0.37254 0.62089,0.37253 1.00471,1.1176 l -1.28693,0.77893 q -0.22578,-0.4064 -0.53058,-0.62089 -0.3048,-0.21449 -0.67734,-0.21449 -0.23706,0 -0.42897,0.0903 -0.19192,0.0903 -0.31609,0.25965 -0.11289,0.16933 -0.11289,0.38382 0,0.22578 0.13546,0.41769 0.13547,0.18062 0.46285,0.36125 0.33867,0.18062 0.89182,0.39511 0.74507,0.27093 1.23049,0.6096 0.49671,0.32738 0.74507,0.76764 0.25964,0.44027 0.25964,1.06116 0,0.7112 -0.34995,1.26436 -0.34996,0.55315 -0.98214,0.86924 -0.62089,0.3048 -1.45626,0.3048 z"
         id="path1" /><path
         d="M 9.8028429,226.40227 13.02018,218.5339 h 1.196623 l 3.217337,7.86837 h -1.761069 l -2.043291,-5.47512 -2.065869,5.47512 z m 2.2126241,-1.43369 0.508001,-1.44498 h 2.201335 l 0.51929,1.44498 z m 8.902435,1.6256 q -1.524002,0 -2.302936,-0.75636 -0.767645,-0.75635 -0.767645,-2.28036 v -5.02356 h 1.614313 v 4.84294 q 0,0.57574 0.112889,0.95956 0.112889,0.38382 0.428978,0.57573 0.327378,0.19191 0.914401,0.19191 0.587023,0 0.891823,-0.19191 0.316089,-0.19191 0.440267,-0.57573 0.124178,-0.38382 0.124178,-0.94827 v -4.85423 h 1.614313 v 4.96712 q 0,1.55787 -0.778934,2.32551 -0.778935,0.76765 -2.291647,0.76765 z m 6.186328,-0.19191 v -6.42339 h -2.370669 v -1.44498 h 6.36694 v 1.44498 h -2.35938 v 6.42339 z m 8.130247,0.19191 q -1.12889,0 -1.986846,-0.51929 -0.857957,-0.51929 -1.343379,-1.44498 -0.474134,-0.92569 -0.474134,-2.15618 0,-1.24178 0.474134,-2.16747 0.485422,-0.92569 1.343379,-1.44498 0.857956,-0.51929 1.986846,-0.51929 1.140179,0 1.998136,0.51929 0.857956,0.508 1.33209,1.43369 0.485423,0.92569 0.485423,2.17876 0,1.24178 -0.485423,2.16747 -0.485423,0.92569 -1.343379,1.44498 -0.857957,0.508 -1.986847,0.508 z m 0,-1.54658 q 0.677334,0 1.162757,-0.31609 0.485423,-0.31609 0.756356,-0.89182 0.270934,-0.58703 0.270934,-1.36596 0,-0.79022 -0.270934,-1.36596 -0.270933,-0.58702 -0.756356,-0.90311 -0.485423,-0.31609 -1.174046,-0.31609 -0.654756,0 -1.151468,0.31609 -0.496711,0.3048 -0.767645,0.88054 -0.259644,0.57573 -0.259644,1.38853 0,0.80151 0.259644,1.37725 0.270934,0.57573 0.767645,0.89182 0.496712,0.3048 1.162757,0.3048 z m 4.933247,1.35467 v -7.86837 h 2.35938 l 1.941691,5.54285 h -0.293511 l 1.941691,-5.54285 h 2.35938 v 7.86837 h -1.614313 v -5.97183 l 0.146756,0.0226 -1.896536,5.24934 h -1.569157 l -1.907824,-5.24934 0.146756,-0.0226 v 5.97183 z m 9.07627,0 3.217336,-7.86837 h 1.196624 l 3.217336,7.86837 h -1.761068 l -2.043291,-5.47512 -2.065869,5.47512 z m 2.212624,-1.43369 0.508001,-1.44498 h 2.201335 l 0.51929,1.44498 z m 6.893023,1.43369 v -6.42339 h -2.370669 v -1.44498 h 6.36694 v 1.44498 h -2.35938 v 6.42339 z m 4.820364,0 v -7.86837 h 1.614313 v 7.86837 z m 6.536261,0.19191 q -1.12889,0 -1.986847,-0.51929 -0.857956,-0.51929 -1.343379,-1.44498 -0.474134,-0.92569 -0.474134,-2.16747 0,-1.24178 0.474134,-2.15618 0.485423,-0.92569 1.343379,-1.44498 0.857957,-0.51929 1.986847,-0.51929 1.275645,0 2.190046,0.64347 0.92569,0.63218 1.332091,1.74978 l -1.524002,0.55316 q -0.237067,-0.66605 -0.756356,-1.02729 -0.508001,-0.37254 -1.241779,-0.37254 -0.666046,0 -1.162757,0.31609 -0.496712,0.3048 -0.767645,0.88054 -0.259645,0.57573 -0.259645,1.37724 0,0.80151 0.259645,1.38854 0.270933,0.57573 0.767645,0.89182 0.496711,0.3048 1.162757,0.3048 0.733778,0 1.241779,-0.37253 0.519289,-0.37254 0.756356,-1.02729 l 1.524002,0.55315 q -0.406401,1.10631 -1.332091,1.74978 -0.914401,0.64347 -2.190046,0.64347 z m 9.223042,-0.19191 v -6.42339 h -2.37067 v -1.44498 h 6.36694 v 1.44498 h -2.35938 v 6.42339 z m 7.823207,0.19191 q -1.524001,0 -2.302936,-0.75636 -0.767645,-0.75635 -0.767645,-2.28036 v -5.02356 h 1.614313 v 4.84294 q 0,0.57574 0.112889,0.95956 0.112889,0.38382 0.428978,0.57573 0.327378,0.19191 0.914401,0.19191 0.587023,0 0.891823,-0.19191 0.316089,-0.19191 0.440267,-0.57573 0.124178,-0.38382 0.124178,-0.94827 v -4.85423 h 1.614313 v 4.96712 q 0,1.55787 -0.778934,2.32551 -0.778934,0.76765 -2.291647,0.76765 z m 4.425261,-0.19191 v -7.86837 h 2.686758 q 0.970846,0 1.557868,0.28223 0.598312,0.28222 0.869246,0.80151 0.282222,0.51929 0.282222,1.2192 0,1.1176 -0.643467,1.71591 -0.632179,0.59831 -1.794935,0.66605 -0.293512,0 -0.575734,0 -0.282223,0 -0.462845,0 h -0.3048 v 3.18347 z m 4.233337,0 -1.952979,-3.36409 1.659468,-0.19192 2.167469,3.55601 z m -2.619024,-4.62845 h 0.903112 q 0.327378,0 0.6096,-0.0677 0.293512,-0.0677 0.462845,-0.25964 0.180623,-0.2032 0.180623,-0.58702 0,-0.39511 -0.180623,-0.57574 -0.169333,-0.19191 -0.462845,-0.24835 -0.282222,-0.0564 -0.6096,-0.0564 h -0.903112 z m 5.326094,4.62845 v -7.86837 h 2.686757 q 0.97085,0 1.55787,0.28223 0.59831,0.28222 0.86924,0.80151 0.28223,0.51929 0.28223,1.2192 0,1.1176 -0.64347,1.71591 -0.63218,0.59831 -1.79494,0.66605 -0.29351,0 -0.57573,0 -0.28222,0 -0.46284,0 h -0.304805 v 3.18347 z m 4.233337,0 -1.95298,-3.36409 1.65947,-0.19192 2.16747,3.55601 z m -2.619025,-4.62845 h 0.903115 q 0.32738,0 0.6096,-0.0677 0.29351,-0.0677 0.46284,-0.25964 0.18063,-0.2032 0.18063,-0.58702 0,-0.39511 -0.18063,-0.57574 -0.16933,-0.19191 -0.46284,-0.24835 -0.28222,-0.0564 -0.6096,-0.0564 h -0.903115 z m 5.326105,4.62845 v -7.86837 h 5.26062 v 1.44498 h -3.64631 v 1.65947 h 3.43183 v 1.44498 h -3.43183 v 1.87396 h 3.64631 v 1.44498 z m 8.25219,0 v -6.42339 h -2.37067 v -1.44498 h 6.36694 v 1.44498 h -2.35938 v 6.42339 z"
         id="path2" /><path
         d="m -19.692813,240.51338 v -7.86836 h 1.614313 v 3.07058 h 3.228625 v -3.07058 h 1.614313 v 7.86836 h -1.614313 v -3.31893 H -18.0785 v 3.31893 z m 7.879652,0 v -7.86836 h 5.2606277 V 234.09 h -3.6463147 v 1.65947 h 3.4318256 v 1.44498 h -3.4318256 v 1.87395 h 3.6463147 v 1.44498 z m 5.8363709,0 3.2173366,-7.86836 h 1.1966234 l 3.2173366,7.86836 h -1.76106843 l -2.04329097,-5.47511 -2.0658688,5.47511 z m 2.2126245,-1.43369 0.5080005,-1.44498 h 2.2013355 l 0.51928946,1.44498 z m 6.1863257,1.43369 v -7.86836 h 1.6143128 v 6.42338 h 3.28507 v 1.44498 z m 12.1581499,0.19191 q -1.12889,0 -1.986847,-0.51929 -0.857956,-0.51929 -1.343379,-1.44498 -0.474134,-0.92569 -0.474134,-2.15618 0,-1.24177 0.474134,-2.16746 0.485423,-0.92569 1.343379,-1.44498 0.857957,-0.51929 1.986847,-0.51929 1.140179,0 1.998135,0.51929 0.857956,0.508 1.33209,1.43369 0.485423,0.92569 0.485423,2.17875 0,1.24178 -0.485423,2.16747 -0.485423,0.92569 -1.343379,1.44498 -0.857956,0.508 -1.986846,0.508 z m 0,-1.54658 q 0.677334,0 1.162756,-0.31609 0.485423,-0.31608 0.756357,-0.89182 0.270933,-0.58702 0.270933,-1.36596 0,-0.79022 -0.270933,-1.36595 -0.270934,-0.58703 -0.756357,-0.90311 -0.485422,-0.31609 -1.174045,-0.31609 -0.654757,0 -1.151468,0.31609 -0.496712,0.3048 -0.767645,0.88053 -0.259645,0.57573 -0.259645,1.38853 0,0.80152 0.259645,1.37725 0.270933,0.57573 0.767645,0.89182 0.496711,0.3048 1.162757,0.3048 z m 4.933245,1.35467 v -7.86836 h 1.659468 l 3.544715,5.74605 h -0.41769 v -5.74605 h 1.625602 v 7.86836 h -1.670757 l -3.533426,-5.75734 h 0.4064 v 5.75734 z m 10.769619,0 v -7.86836 h 2.686758 q 1.343379,0 2.020713,0.57573 0.688623,0.56445 0.688623,1.71592 0,1.16275 -0.699912,1.77235 -0.688623,0.59831 -2.009424,0.59831 h -1.083735 v 3.20605 z m 1.603023,-4.65102 h 0.914401 q 0.598312,0 0.92569,-0.19192 0.327378,-0.19191 0.327378,-0.7112 0,-0.49671 -0.316089,-0.67733 -0.3048,-0.19191 -0.936979,-0.19191 h -0.914401 z m 3.149603,4.65102 3.217337,-7.86836 h 1.196623 l 3.217337,7.86836 h -1.761069 l -2.04329,-5.47511 -2.065869,5.47511 z m 2.212625,-1.43369 0.508,-1.44498 h 2.201336 l 0.519289,1.44498 z m 9.317862,1.6256 q -1.12889,0 -1.986847,-0.51929 -0.857956,-0.51929 -1.343379,-1.44498 -0.474134,-0.92569 -0.474134,-2.16746 0,-1.24178 0.474134,-2.15618 0.485423,-0.92569 1.343379,-1.44498 0.857957,-0.51929 1.986847,-0.51929 1.275645,0 2.190046,0.64346 0.92569,0.63218 1.332091,1.74978 l -1.524002,0.55316 q -0.237067,-0.66605 -0.756356,-1.02729 -0.508001,-0.37253 -1.241779,-0.37253 -0.666045,0 -1.162757,0.31609 -0.496712,0.3048 -0.767645,0.88053 -0.259645,0.57573 -0.259645,1.37725 0,0.80151 0.259645,1.38853 0.270933,0.57573 0.767645,0.89182 0.496712,0.3048 1.162757,0.3048 0.733778,0 1.241779,-0.37253 0.519289,-0.37253 0.756356,-1.02729 l 1.524002,0.55316 q -0.406401,1.10631 -1.332091,1.74978 -0.914401,0.64346 -2.190046,0.64346 z m 5.825081,-2.51742 v -2.04329 l 3.296359,-3.49956 h 2.178758 z m -1.298224,2.32551 v -7.86836 h 1.614313 v 7.86836 z m 4.876805,0 -2.427113,-3.87209 1.207912,-1.1176 3.138314,4.98969 z m 2.05459,0 3.217337,-7.86836 h 1.196623 l 3.217337,7.86836 h -1.761069 l -2.04329,-5.47511 -2.065869,5.47511 z m 2.212625,-1.43369 0.508,-1.44498 H 62.9465 l 0.519289,1.44498 z m 9.216258,1.6256 q -1.083735,0 -1.919113,-0.51929 -0.835379,-0.51929 -1.309513,-1.44498 -0.474133,-0.92569 -0.474133,-2.16746 0,-1.24178 0.474133,-2.15618 0.485423,-0.92569 1.343379,-1.44498 0.857957,-0.51929 1.986847,-0.51929 1.275646,0 2.190047,0.64346 0.925689,0.63218 1.33209,1.74978 l -1.524002,0.55316 q -0.237067,-0.66605 -0.756356,-1.02729 -0.508001,-0.37253 -1.241779,-0.37253 -0.666045,0 -1.162757,0.31609 -0.496711,0.3048 -0.767645,0.88053 -0.259645,0.57573 -0.259645,1.37725 0,0.80151 0.259645,1.38853 0.270934,0.57573 0.767645,0.89182 0.496712,0.3048 1.162757,0.3048 0.349956,0 0.711201,-0.1016 0.372533,-0.1016 0.677334,-0.33866 0.316089,-0.23707 0.508,-0.67734 0.191912,-0.45155 0.191912,-1.1176 v -0.41769 l 0.361244,1.12889 h -2.269069 v -1.44498 h 3.341515 v 4.32365 h -1.422402 l -0.225778,-1.19662 0.282223,0.22578 q -0.214489,0.37253 -0.553156,0.63217 -0.327378,0.25965 -0.767645,0.39512 -0.428979,0.13546 -0.936979,0.13546 z m 4.921957,-0.19191 v -7.86836 h 5.260627 V 234.09 h -3.646315 v 1.65947 h 3.431826 v 1.44498 h -3.431826 v 1.87395 h 3.646315 v 1.44498 z m 9.132716,0.15805 q -1.286934,0 -2.111024,-0.66605 -0.812801,-0.66604 -0.993423,-1.77236 l 1.580446,-0.39511 q 0.124178,0.69991 0.541867,1.04987 0.417689,0.34996 1.038579,0.34996 0.316089,0 0.575734,-0.1016 0.259645,-0.11289 0.4064,-0.31609 0.146756,-0.2032 0.146756,-0.48543 0,-0.25964 -0.158045,-0.45155 -0.146755,-0.2032 -0.474133,-0.37254 -0.327379,-0.16933 -0.835379,-0.36124 -0.767645,-0.3048 -1.275646,-0.64347 -0.508,-0.34995 -0.756356,-0.80151 -0.237067,-0.45156 -0.237067,-1.04987 0,-0.64346 0.316089,-1.14018 0.316089,-0.49671 0.880534,-0.77893 0.575734,-0.28222 1.332091,-0.28222 0.8128,0 1.43369,0.37253 0.62089,0.37253 1.004712,1.1176 l -1.286935,0.77894 q -0.225778,-0.4064 -0.530578,-0.62089 -0.3048,-0.21449 -0.677334,-0.21449 -0.237067,0 -0.428978,0.0903 -0.191911,0.0903 -0.316089,0.25964 -0.112889,0.16934 -0.112889,0.38383 0,0.22577 0.135467,0.41769 0.135466,0.18062 0.462844,0.36124 0.338667,0.18062 0.891824,0.39511 0.745067,0.27094 1.23049,0.6096 0.496711,0.32738 0.745067,0.76765 0.259645,0.44026 0.259645,1.06115 0,0.7112 -0.349956,1.26436 -0.349956,0.55316 -0.982134,0.86925 -0.62089,0.3048 -1.456269,0.3048 z m 6.807217,-0.15805 v -7.86836 h 2.336803 q 1.964268,0 3.036714,1.03858 1.083734,1.03858 1.083734,2.95769 0,1.87396 -1.061156,2.87867 -1.061157,0.99342 -3.070581,0.99342 z m 1.614313,-1.47884 h 0.541867 q 0.846668,0 1.44498,-0.2032 0.598311,-0.21449 0.914401,-0.74507 0.316089,-0.53058 0.316089,-1.50143 0,-0.94826 -0.304801,-1.47884 -0.3048,-0.54187 -0.869245,-0.75636 -0.564445,-0.22578 -1.354668,-0.22578 h -0.688623 z m 5.960532,1.47884 v -7.86836 h 5.260623 V 234.09 h -3.646311 v 1.65947 h 3.431831 v 1.44498 h -3.431831 v 1.87395 h 3.646311 v 1.44498 z m 6.491123,0 v -7.86836 h 1.61432 v 6.42338 h 3.28507 v 1.44498 z m 5.72348,0 v -7.86836 h 1.61432 v 7.86836 z m 5.55413,0 -3.1609,-7.86836 h 1.78365 l 2.24649,5.88152 h -0.51929 l 2.20134,-5.88152 h 1.79493 l -3.1496,7.86836 z m 5.12516,0 v -7.86836 h 5.26063 V 234.09 h -3.64631 v 1.65947 h 3.43182 v 1.44498 h -3.43182 v 1.87395 h 3.64631 v 1.44498 z m 6.49112,0 v -7.86836 h 2.68676 q 0.97085,0 1.55787,0.28222 0.59831,0.28222 0.86925,0.80151 0.28222,0.51929 0.28222,1.2192 0,1.11761 -0.64347,1.71592 -0.63218,0.59831 -1.79493,0.66604 -0.29352,0 -0.57574,0 -0.28222,0 -0.46284,0 h -0.3048 v 3.18347 z m 4.23334,0 -1.95298,-3.36409 1.65947,-0.19191 2.16747,3.556 z m -2.61902,-4.62845 h 0.90311 q 0.32738,0 0.6096,-0.0677 0.29351,-0.0677 0.46284,-0.25965 0.18063,-0.2032 0.18063,-0.58702 0,-0.39511 -0.18063,-0.57573 -0.16933,-0.19191 -0.46284,-0.24836 -0.28222,-0.0564 -0.6096,-0.0564 h -0.90311 z m 5.3261,4.62845 v -7.86836 h 5.26063 V 234.09 h -3.64632 v 1.65947 h 3.43183 v 1.44498 h -3.43183 v 1.87395 h 3.64632 v 1.44498 z m 6.49112,0 v -7.86836 h 2.3368 q 1.96427,0 3.03671,1.03858 1.08374,1.03858 1.08374,2.95769 0,1.87396 -1.06116,2.87867 -1.06115,0.99342 -3.07058,0.99342 z m 1.61431,-1.47884 h 0.54187 q 0.84667,0 1.44498,-0.2032 0.59831,-0.21449 0.9144,-0.74507 0.31609,-0.53058 0.31609,-1.50143 0,-0.94826 -0.3048,-1.47884 -0.3048,-0.54187 -0.86925,-0.75636 -0.56444,-0.22578 -1.35467,-0.22578 h -0.68862 z"
         id="path3" /></g></g></svg>
