<?xml version="1.0" encoding="UTF-8" standalone="no"?>
<!-- Created with Inkscape (http://www.inkscape.org/) -->

<svg
   width="1920"
   height="1080"
   viewBox="0 0 507.99999 285.75"
   version="1.1"
   id="svg1"
   xml:space="preserve"
   sodipodi:docname="selectionScreenWorkhorse.svg"
   inkscape:version="1.4.2 (ebf0e940d0, 2025-05-08)"
   xmlns:inkscape="http://www.inkscape.org/namespaces/inkscape"
   xmlns:sodipodi="http://sodipodi.sourceforge.net/DTD/sodipodi-0.dtd"
   xmlns="http://www.w3.org/2000/svg"
   xmlns:svg="http://www.w3.org/2000/svg"><sodipodi:namedview
     id="namedview1"
     pagecolor="#ffffff"
     bordercolor="#000000"
     borderopacity="0.25"
     inkscape:showpageshadow="2"
     inkscape:pageopacity="0.0"
     inkscape:pagecheckerboard="0"
     inkscape:deskcolor="#d1d1d1"
     inkscape:zoom="0.72592593"
     inkscape:cx="960.15306"
     inkscape:cy="540"
     inkscape:window-width="1920"
     inkscape:window-height="1002"
     inkscape:window-x="0"
     inkscape:window-y="0"
     inkscape:window-maximized="1"
     inkscape:current-layer="svg1" /><defs
     id="defs1"><linearGradient
       id="swatch2"><stop
         style="stop-color:#000000;stop-opacity:1;"
         offset="0"
         id="stop2" /></linearGradient></defs><g
     id="layer1"><path
       d="m 10.611102,87.990535 1.610006,5.800153 v 0 l 2.22924,-5.800153 h 2.745268 l 2.291164,5.868956 v 0 l 1.451758,-5.868956 h 2.476934 l -2.339326,8.263325 h -3.054885 l -2.201719,-5.710707 v 0 L 13.624704,96.25386 H 10.569819 L 8.2304932,87.990535 Z m 17.372936,8.33901 q -0.605473,0.0069 -1.066457,-0.02752 -1.176544,-0.05504 -1.795777,-0.722439 -0.268335,-0.275215 -0.392181,-0.571071 -0.337139,-0.74308 -0.344019,-2.683344 l 0.01376,-1.073338 q 0.0344,-1.087099 0.261454,-1.823298 0.288976,-0.908209 1.265988,-1.265989 0.708678,-0.261454 3.680999,-0.268334 l 1.809537,0.0069 q 1.933384,0.01376 2.545737,0.227052 1.314151,0.460985 1.499921,1.926504 0.05504,0.447224 0.06192,1.204065 l 0.02064,1.362314 q -0.0069,0.839405 -0.0688,1.431117 -0.05504,0.481626 -0.254574,0.92885 -0.584831,1.327911 -2.346206,1.362313 -0.247694,0.01376 -1.279749,0.0069 z m 3.213133,-2.112274 q 0.612353,0.0069 0.901329,-0.04128 0.509147,-0.07568 0.715558,-0.481626 0.213292,-0.412822 0.213292,-1.802657 -0.01376,-0.736199 -0.0688,-1.011414 -0.116966,-0.584832 -0.619233,-0.722439 -0.357779,-0.09633 -0.798123,-0.110086 -0.681157,-0.01376 -1.610007,-0.02064 h -0.908209 q -0.509147,0.0069 -1.018295,0.0344 -0.619233,0.04128 -0.880687,0.426583 -0.227053,0.344018 -0.220172,1.995307 0.0069,1.169663 0.385301,1.4724 0.275214,0.227052 1.534322,0.233932 z m 13.203433,-6.226736 q 0.516028,0 1.025176,0.05504 1.155902,0.116966 1.575605,0.839405 0.172009,0.295856 0.233932,0.577951 0.123847,0.591712 0.130727,1.231587 0,1.025175 -0.282095,1.541203 -0.275215,0.509147 -1.30039,0.811884 v 0 q 1.045816,0.288975 1.29351,0.708678 0.247693,0.412822 0.247693,1.48616 v 1.011414 h -2.518216 l -0.02064,-0.763721 q 0,-0.784362 -0.18577,-1.018295 -0.206411,-0.275214 -0.977013,-0.268334 h -3.997495 v 2.05035 h -2.518216 v -8.263325 z m -4.774977,2.132915 v 1.947145 h 3.52275 q 0.37154,0.0069 0.798123,-0.01376 0.316497,-0.0069 0.522908,-0.09632 0.37154,-0.172009 0.37842,-0.894448 0.0069,-0.502267 -0.261454,-0.7362 -0.19265,-0.17889 -0.763721,-0.18577 l -0.7362,-0.02064 z m 12.198899,-2.132915 v 3.089287 h 1.1215 l 3.226894,-3.089287 h 3.598434 l -4.64425,4.141983 5.208441,4.121342 H 56.668307 L 52.890983,93.212737 H 51.824526 V 96.25386 H 49.30631 v -8.263325 z m 9.343541,0 h 2.518216 v 3.089287 h 5.600622 v -3.089287 h 2.518215 v 8.263325 h -2.518215 v -3.041123 h -5.600622 v 3.041123 h -2.518216 z m 15.886777,8.33901 q -0.605473,0.0069 -1.066458,-0.02752 -1.176543,-0.05504 -1.795777,-0.722439 -0.268334,-0.275215 -0.392181,-0.571071 -0.337138,-0.74308 -0.344018,-2.683344 l 0.01376,-1.073338 q 0.0344,-1.087099 0.261455,-1.823298 0.288975,-0.908209 1.265988,-1.265989 0.708678,-0.261454 3.680998,-0.268334 l 1.809538,0.0069 q 1.933384,0.01376 2.545737,0.227052 1.314151,0.460985 1.499921,1.926504 0.05504,0.447224 0.06192,1.204065 l 0.02064,1.362314 q -0.0069,0.839405 -0.0688,1.431117 -0.05504,0.481626 -0.254574,0.92885 -0.584832,1.327911 -2.346207,1.362313 -0.247693,0.01376 -1.279749,0.0069 z m 3.213133,-2.112274 q 0.612353,0.0069 0.901328,-0.04128 0.509148,-0.07568 0.715559,-0.481626 0.213292,-0.412822 0.213292,-1.802657 -0.01376,-0.736199 -0.0688,-1.011414 -0.116966,-0.584832 -0.619234,-0.722439 -0.357779,-0.09633 -0.798123,-0.110086 -0.681156,-0.01376 -1.610006,-0.02064 H 78.09378 q -0.509148,0.0069 -1.018295,0.0344 -0.619234,0.04128 -0.880688,0.426583 -0.227052,0.344018 -0.220172,1.995307 0.0069,1.169663 0.385301,1.4724 0.275215,0.227052 1.534323,0.233932 z m 13.203436,-6.226736 q 0.516028,0 1.025175,0.05504 1.155902,0.116966 1.575605,0.839405 0.172009,0.295856 0.233933,0.577951 0.123846,0.591712 0.130727,1.231587 0,1.025175 -0.282096,1.541203 -0.275214,0.509147 -1.30039,0.811884 v 0 q 1.045817,0.288975 1.29351,0.708678 0.247693,0.412822 0.247693,1.48616 v 1.011414 h -2.518215 l -0.02064,-0.763721 q 0,-0.784362 -0.18577,-1.018295 -0.206412,-0.275214 -0.977013,-0.268334 h -3.997496 v 2.05035 H 86.17822 v -8.263325 z m -4.774978,2.132915 v 1.947145 h 3.52275 q 0.37154,0.0069 0.798123,-0.01376 0.316497,-0.0069 0.522908,-0.09632 0.37154,-0.172009 0.378421,-0.894448 0.0069,-0.502267 -0.261454,-0.7362 -0.192651,-0.17889 -0.763721,-0.18577 l -0.7362,-0.02064 z m 11.682865,3.3301 q 0.007,0.667395 0.33714,0.839405 0.21329,0.110086 0.94949,0.137607 l 0.71556,0.02064 h 1.84394 0.66739 q 0.78436,-0.02064 0.76372,-0.646755 -0.0138,-0.550429 -0.5229,-0.626113 -0.13761,-0.01376 -0.50915,-0.0344 l -0.50915,-0.02064 -1.51368,-0.06192 -0.7362,-0.04128 -1.26599,-0.0688 q -0.688036,-0.02752 -1.169662,-0.110085 -1.073338,-0.17889 -1.314151,-1.066458 -0.151368,-0.502267 -0.144488,-1.073338 0,-1.045816 0.19265,-1.520562 0.323378,-0.791242 1.059577,-1.038936 0.743081,-0.254574 3.075524,-0.247693 1.25223,0.0069 2.37373,0.05504 1.63065,0.06192 2.32557,0.412822 0.86004,0.426583 0.92197,1.788896 v 0.557311 h -2.51822 l -0.0413,-0.302737 q -0.0826,-0.419702 -0.43347,-0.529788 -0.15136,-0.04816 -0.71555,-0.0688 l -0.68116,-0.02752 h -1.4724 l -0.65364,0.02064 q -0.28209,0.01376 -0.49538,0.07568 -0.41282,0.09633 -0.41971,0.57107 -0.0138,0.488507 0.50915,0.612353 0.26146,0.05504 0.55731,0.06192 l 0.65364,0.01376 2.31868,0.07568 1.34856,0.05504 q 0.57795,0.0344 1.06645,0.19265 1.23159,0.412822 1.23159,2.373728 -0.0138,2.181077 -1.99531,2.428771 -0.32338,0.04816 -0.72244,0.05504 -0.82564,0.04128 -1.67193,0.0344 -0.91509,-0.0069 -2.72462,-0.06192 -0.53667,-0.01376 -0.93573,-0.04816 -1.100864,-0.07568 -1.665055,-0.564191 -0.502267,-0.440343 -0.571071,-1.644408 l -0.02752,-0.577951 z m 9.30227,-5.463015 h 9.08897 v 1.926504 h -6.57076 v 1.128381 h 6.2061 v 1.788896 h -6.2061 v 1.493041 h 6.64644 v 1.926503 h -9.16465 z"
       id="text14"
       style="font-size:14.091px;font-family:'Microstyle Bold Extended ATT';-inkscape-font-specification:'Microstyle Bold Extended ATT, Normal';fill:#e4ff3a;stroke-width:2.00121"
       transform="scale(0.99939634,1.000604)"
       aria-label="WORKHORSE" /></g></svg>
