<?xml version="1.0" encoding="UTF-8" standalone="no"?>
<!-- Created with Inkscape (http://www.inkscape.org/) -->

<svg
   width="1920"
   height="1080"
   viewBox="0 0 507.99999 285.75"
   version="1.1"
   id="svg1"
   xml:space="preserve"
   xmlns="http://www.w3.org/2000/svg"
   xmlns:svg="http://www.w3.org/2000/svg"><defs
     id="defs1"><linearGradient
       id="swatch2"><stop
         style="stop-color:#000000;stop-opacity:1;"
         offset="0"
         id="stop2" /></linearGradient></defs><g
     id="layer1"><g
       id="g2"
       transform="matrix(0.87499991,0,0,0.87499991,143.96235,105.10781)"><rect
         style="fill:#333333;stroke-width:2.30793"
         id="rect3-1-9"
         width="105.83334"
         height="105.83334"
         x="-4.4408921e-16"
         y="0" /><rect
         style="fill:#4d4d4d;stroke-width:1.87519"
         id="rect3-12"
         width="85.989586"
         height="85.989586"
         x="10.191108"
         y="10.033441" /><g
         id="layer1-7"><g
           id="g5"
           transform="matrix(0.85612146,0,0,0.85612146,13.866748,-61.85424)"><path
             id="rect2"
             style="fill:#e4ff3a;fill-opacity:1;stroke:#000000;stroke-width:4.63573;stroke-dasharray:none"
             d="M 46.353494,115.97786 H 101.18164 L 85.380498,149.86352 H 30.552352 Z" /><rect
             style="fill:#e4ff3a;fill-opacity:1;stroke:#000000;stroke-width:4.86944;stroke-dasharray:none"
             id="rect4-0"
             width="22.31554"
             height="7.9250498"
             x="68.540833"
             y="127.96595"
             transform="matrix(1,0,-0.42259742,0.90631751,0,0)" /><rect
             style="fill:#e4ff3a;fill-opacity:1;stroke:#000000;stroke-width:4.86944;stroke-dasharray:none"
             id="rect4-6"
             width="26.766766"
             height="7.9250479"
             x="64.089249"
             y="142.69766"
             transform="matrix(1,0,-0.42259742,0.90631751,0,0)" /><rect
             style="fill:#e4ff3a;fill-opacity:1;stroke:#000000;stroke-width:4.86944;stroke-dasharray:none"
             id="rect4-7"
             width="30.933849"
             height="7.9250479"
             x="59.921764"
             y="157.42928"
             transform="matrix(1,0,-0.42259742,0.90631751,0,0)" /><path
             id="rect5-9"
             style="fill:#000000;stroke-width:3.96875"
             d="m 45.612592,117.11631 19.513502,16.94283 35.314646,-16.94283 z" /></g></g></g></g></svg>
