<?xml version="1.0" encoding="UTF-8" standalone="no"?>
<!-- Created with Inkscape (http://www.inkscape.org/) -->

<svg
   width="1920"
   height="1080"
   viewBox="0 0 507.99999 285.75"
   version="1.1"
   id="svg1"
   xml:space="preserve"
   sodipodi:docname="selectionScreenMonarchLogo.svg"
   inkscape:version="1.4.2 (ebf0e940d0, 2025-05-08)"
   xmlns:inkscape="http://www.inkscape.org/namespaces/inkscape"
   xmlns:sodipodi="http://sodipodi.sourceforge.net/DTD/sodipodi-0.dtd"
   xmlns="http://www.w3.org/2000/svg"
   xmlns:svg="http://www.w3.org/2000/svg"><sodipodi:namedview
     id="namedview1"
     pagecolor="#ffffff"
     bordercolor="#000000"
     borderopacity="0.25"
     inkscape:showpageshadow="2"
     inkscape:pageopacity="0.0"
     inkscape:pagecheckerboard="0"
     inkscape:deskcolor="#d1d1d1"
     inkscape:zoom="0.72592593"
     inkscape:cx="1549.7449"
     inkscape:cy="604.7449"
     inkscape:window-width="1920"
     inkscape:window-height="1002"
     inkscape:window-x="0"
     inkscape:window-y="0"
     inkscape:window-maximized="1"
     inkscape:current-layer="g6" /><defs
     id="defs1"><linearGradient
       id="swatch2"><stop
         style="stop-color:#000000;stop-opacity:1;"
         offset="0"
         id="stop2" /></linearGradient></defs><g
     id="layer1"><g
       id="g6"
       transform="matrix(0.87499991,0,0,0.87499991,398.19791,105.20542)"><rect
         style="fill:#333333;stroke-width:2.30793"
         id="rect3-1-92"
         width="105.83334"
         height="105.83334"
         x="-4.4408921e-16"
         y="0" /><rect
         style="fill:#4d4d4d;stroke-width:1.87519"
         id="rect3-0"
         width="85.989586"
         height="85.989586"
         x="10.191108"
         y="11.372795" /><g
         id="layer1-2" /><path
         id="path2-3"
         style="display:none;fill:#1a1a1a;fill-opacity:1;stroke:none;stroke-width:7.64537;stroke-dasharray:none;stroke-opacity:1;paint-order:markers fill stroke"
         d="m 101.71983,14.786475 -78.08506,36.305807 22.440391,0.456019 39.407351,-20.615718 -36.944253,35.849789 12.314379,-5.10861 11.6765,20.61629 z M 44.068088,56.930532 4.1135052,91.046859 45.254314,63.316011 Z M 55.858735,73.715081 36.679349,89.861201 56.542494,75.037836 Z" /><g
         id="path6"
         style="opacity:1"><path
           style="baseline-shift:baseline;display:inline;overflow:visible;vector-effect:none;fill:#e4ff3a;paint-order:markers fill stroke;enable-background:accumulate;stop-color:#000000;stop-opacity:1"
           d="M 59.50407,55.751914 C 84.929386,46.651527 92.628336,52.032798 93.970958,59.689167 95.31358,67.345535 90.299873,77.277 90.299873,77.277 H 59.50407 Z"
           id="path7" /><path
           style="baseline-shift:baseline;display:inline;overflow:visible;vector-effect:none;fill:#1a1a1a;paint-order:markers fill stroke;enable-background:accumulate;stop-color:#000000;stop-opacity:1"
           d="m 81.238281,48.984375 c -5.506335,-0.03198 -12.735346,1.438366 -22.402344,4.898437 l -1.316406,0.472657 v 24.90625 h 34.001953 l 0.550782,-1.089844 c 0,0 1.323928,-2.624078 2.458984,-6.220703 1.135056,-3.596625 2.163639,-8.219595 1.394531,-12.605469 C 95.156674,54.959829 92.112887,50.807335 86.197266,49.5 84.71836,49.173166 83.073726,48.995036 81.238281,48.984375 Z m -0.01953,3.990234 c 1.596918,4.17e-4 2.964634,0.144817 4.121094,0.400391 4.625838,1.022296 6.102267,3.385755 6.675781,6.65625 0.573514,3.270494 -0.233389,7.443363 -1.269531,10.726562 -0.835378,2.647044 -1.458016,3.845704 -1.78711,4.535157 H 61.488281 V 57.207031 c 8.674506,-2.99253 15.184906,-4.233607 19.730469,-4.232422 z"
           id="path8" /></g><g
         id="path1-7"
         style="opacity:1"><path
           style="baseline-shift:baseline;display:inline;overflow:visible;vector-effect:none;fill:#e4ff3a;paint-order:markers fill stroke;enable-background:accumulate;stop-color:#000000;stop-opacity:1"
           d="M 46.329262,55.751915 C 20.903947,46.651528 13.204997,52.032799 11.862375,59.689167 10.519753,67.345535 15.53346,77.277 15.53346,77.277 h 30.795802 z"
           id="path3" /><path
           style="baseline-shift:baseline;display:inline;overflow:visible;vector-effect:none;fill:#1a1a1a;paint-order:markers fill stroke;enable-background:accumulate;stop-color:#000000;stop-opacity:1"
           d="m 24.595703,48.984375 c -1.835445,0.01066 -3.480079,0.188791 -4.958984,0.515625 -5.915621,1.307334 -8.959408,5.459829 -9.7285159,9.845703 -0.7691076,4.385874 0.2594759,9.008844 1.3945309,12.605469 1.135056,3.596625 2.458985,6.220703 2.458985,6.220703 L 14.3125,79.261719 H 48.314453 V 54.355469 L 46.998047,53.882812 C 37.331049,50.422741 30.102038,48.952392 24.595703,48.984375 Z m 0.01758,3.990234 c 4.545843,-0.0012 11.057102,1.239481 19.732422,4.232422 V 75.292969 H 16.875 c -0.329069,-0.689396 -0.953661,-1.888038 -1.789062,-4.535157 -1.036143,-3.283199 -1.843046,-7.456068 -1.269532,-10.726562 0.573515,-3.270494 2.049943,-5.633954 6.675781,-6.65625 1.15646,-0.255574 2.524176,-0.399974 4.121094,-0.400391 z"
           id="path4" /></g><g
         id="path5"
         style="opacity:1"
         transform="matrix(0.96565814,0,0,0.96565814,10.235847,17.57883)"><path
           style="baseline-shift:baseline;display:inline;overflow:visible;vector-effect:none;fill:#e4ff3a;paint-order:markers fill stroke;enable-background:accumulate;stop-color:#000000;stop-opacity:1"
           d="M 44.198685,39.787966 41.816898,35.662589 39.43511,31.537213 h 4.763575 4.763574 l -2.381787,4.125377 z"
           id="path1" /><path
           style="baseline-shift:baseline;display:inline;overflow:visible;vector-effect:none;fill:#1a1a1a;paint-order:markers fill stroke;enable-background:accumulate;stop-color:#000000;stop-opacity:1"
           d="m 37.005859,30.134766 3.595703,6.228515 3.597657,6.228516 3.595703,-6.228516 3.595703,-6.228515 h -7.191406 z m 4.859375,2.804687 h 2.333985 2.333984 l -1.167969,2.021484 -1.166015,2.021485 -1.167969,-2.021485 z"
           id="path2" /></g><path
         id="rect5-5"
         style="display:inline;fill:#e4ff3a;fill-opacity:1;stroke:none;stroke-width:3.96875;stroke-dasharray:none;stroke-opacity:1;paint-order:markers fill stroke"
         d="m 50.907487,28.556333 v 6.027022 h -6.027022 v 4.017842 h 6.027022 v 6.027539 h 4.018359 v -6.027539 h 6.027023 v -4.017842 h -6.027023 v -6.027022 z" /></g></g></svg>
