<?xml version="1.0" encoding="UTF-8" standalone="no"?>
<!-- Created with Inkscape (http://www.inkscape.org/) -->

<svg
   width="1920"
   height="1080"
   viewBox="0 0 507.99999 285.75"
   version="1.1"
   id="svg1"
   xml:space="preserve"
   sodipodi:docname="selectionScreenCourier.svg"
   inkscape:version="1.4.2 (ebf0e940d0, 2025-05-08)"
   xmlns:inkscape="http://www.inkscape.org/namespaces/inkscape"
   xmlns:sodipodi="http://sodipodi.sourceforge.net/DTD/sodipodi-0.dtd"
   xmlns="http://www.w3.org/2000/svg"
   xmlns:svg="http://www.w3.org/2000/svg"><sodipodi:namedview
     id="namedview1"
     pagecolor="#ffffff"
     bordercolor="#000000"
     borderopacity="0.25"
     inkscape:showpageshadow="2"
     inkscape:pageopacity="0.0"
     inkscape:pagecheckerboard="0"
     inkscape:deskcolor="#d1d1d1"
     inkscape:zoom="0.72592593"
     inkscape:cx="960.15306"
     inkscape:cy="540"
     inkscape:window-width="1920"
     inkscape:window-height="1002"
     inkscape:window-x="0"
     inkscape:window-y="0"
     inkscape:window-maximized="1"
     inkscape:current-layer="svg1" /><defs
     id="defs1"><linearGradient
       id="swatch2"><stop
         style="stop-color:#000000;stop-opacity:1;"
         offset="0"
         id="stop2" /></linearGradient></defs><g
     id="layer1"><path
       d="m 16.543861,20.476636 q -1.69333,0 -2.980261,-0.778931 -1.28693,-0.778932 -2.015062,-2.167463 -0.711199,-1.38853 -0.711199,-3.251193 0,-1.862663 0.711199,-3.234261 0.728132,-1.3885303 2.015062,-2.1674621 1.286931,-0.7789318 2.980261,-0.7789318 1.913463,0 3.28506,0.9651981 1.388531,0.9482648 1.99813,2.6246618 l -2.285996,0.829731 q -0.355599,-0.999064 -1.134531,-1.54093 -0.761998,-0.558799 -1.862663,-0.558799 -0.999065,0 -1.74413,0.474133 -0.745065,0.457199 -1.151464,1.320797 -0.389466,0.863598 -0.389466,2.065863 0,1.202264 0.389466,2.082795 0.406399,0.863599 1.151464,1.337731 0.745065,0.457199 1.74413,0.457199 1.100665,0 1.862663,-0.558799 0.778932,-0.558799 1.134531,-1.54093 l 2.285996,0.829732 q -0.609599,1.659463 -1.99813,2.624661 -1.371597,0.965198 -3.28506,0.965198 z m 12.039584,0 q -1.69333,0 -2.98026,-0.778931 -1.286931,-0.778932 -2.015063,-2.167463 -0.711199,-1.38853 -0.711199,-3.23426 0,-1.862663 0.711199,-3.251194 0.728132,-1.3885303 2.015063,-2.1674621 1.28693,-0.7789318 2.98026,-0.7789318 1.710264,0 2.997194,0.7789318 1.286931,0.7619985 1.99813,2.1505291 0.728132,1.388531 0.728132,3.268127 0,1.862663 -0.728132,3.251193 -0.728132,1.388531 -2.015063,2.167463 -1.286931,0.761998 -2.980261,0.761998 z m 0,-2.319862 q 1.015998,0 1.74413,-0.474132 0.728132,-0.474133 1.134531,-1.337731 0.4064,-0.880531 0.4064,-2.048929 0,-1.185331 -0.4064,-2.048929 -0.406399,-0.880532 -1.134531,-1.354664 -0.728132,-0.474133 -1.761063,-0.474133 -0.982131,0 -1.727197,0.474133 -0.745065,0.457199 -1.151464,1.320797 -0.389466,0.863598 -0.389466,2.082796 0,1.202264 0.389466,2.065862 0.406399,0.863599 1.151464,1.337731 0.745066,0.457199 1.74413,0.457199 z m 11.904106,2.319862 q -2.285995,0 -3.454393,-1.134531 -1.151465,-1.134531 -1.151465,-3.420526 V 8.3862602 h 2.421462 v 7.2643858 q 0,0.863598 0.169333,1.43933 0.169333,0.575733 0.643466,0.863599 0.491065,0.287866 1.371597,0.287866 0.880532,0 1.337731,-0.287866 0.474132,-0.287866 0.660398,-0.863599 0.186267,-0.575732 0.186267,-1.422397 V 8.3862602 h 2.421462 v 7.4506518 q 0,2.336796 -1.168398,3.48826 -1.168398,1.151464 -3.43746,1.151464 z m 6.63787,-0.287866 V 8.3862602 h 4.030126 q 1.456263,0 2.336795,0.4233325 0.897465,0.4233325 1.303864,1.2022643 0.423333,0.778932 0.423333,1.828796 0,1.676397 -0.965198,2.573862 -0.948265,0.897465 -2.692395,0.999065 -0.440266,0 -0.863598,0 -0.423333,0 -0.694266,0 h -0.457199 v 4.77519 z m 6.349988,0 -2.929461,-5.046123 2.489195,-0.287866 3.251194,5.333989 z m -3.928526,-6.942653 h 1.354664 q 0.491066,0 0.914398,-0.1016 0.440266,-0.101599 0.694266,-0.389465 0.270932,-0.3048 0.270932,-0.880532 0,-0.592666 -0.270932,-0.863598 -0.254,-0.287866 -0.694266,-0.372533 -0.423332,-0.08467 -0.914398,-0.08467 h -1.354664 z m 7.989122,6.942653 V 8.3862602 h 2.421462 V 20.18877 Z m 4.555042,0 V 8.3862602 h 7.890918 v 2.1674628 h -5.469456 v 2.489195 h 5.147723 v 2.167462 h -5.147723 v 2.810928 h 5.469456 v 2.167462 z m 9.73666,0 V 8.3862602 h 4.030125 q 1.456264,0 2.336796,0.4233325 0.897465,0.4233325 1.303864,1.2022643 0.423332,0.778932 0.423332,1.828796 0,1.676397 -0.965198,2.573862 -0.948265,0.897465 -2.692394,0.999065 -0.440266,0 -0.863599,0 -0.423332,0 -0.694265,0 h -0.457199 v 4.77519 z m 6.349987,0 -2.92946,-5.046123 2.489195,-0.287866 3.251193,5.333989 z m -3.928525,-6.942653 h 1.354664 q 0.491066,0 0.914398,-0.1016 0.440266,-0.101599 0.694265,-0.389465 0.270933,-0.3048 0.270933,-0.880532 0,-0.592666 -0.270933,-0.863598 -0.253999,-0.287866 -0.694265,-0.372533 -0.423332,-0.08467 -0.914398,-0.08467 h -1.354664 z m 16.408358,7.179719 q -1.930396,0 -3.166527,-0.999064 -1.219198,-0.999065 -1.490131,-2.658528 l 2.370662,-0.592666 q 0.186267,1.049865 0.812799,1.574797 0.626532,0.524932 1.557863,0.524932 0.474133,0 0.863599,-0.152399 0.389465,-0.169333 0.609598,-0.474133 0.220133,-0.304799 0.220133,-0.728132 0,-0.389466 -0.237066,-0.677332 -0.220133,-0.304799 -0.711199,-0.558799 -0.491065,-0.253999 -1.253064,-0.541865 -1.151464,-0.457199 -1.913463,-0.965198 -0.761998,-0.524933 -1.134531,-1.202265 -0.355599,-0.677332 -0.355599,-1.574796 0,-0.965199 0.474132,-1.7102637 0.474133,-0.7450652 1.320798,-1.1683977 0.863598,-0.4233325 1.998129,-0.4233325 1.219198,0 2.150529,0.5587989 0.931332,0.5587989 1.507064,1.676397 l -1.930396,1.168397 q -0.338666,-0.609598 -0.795865,-0.931331 -0.457199,-0.321733 -1.015998,-0.321733 -0.3556,0 -0.643466,0.135467 -0.287866,0.135466 -0.474132,0.389465 -0.169333,0.254 -0.169333,0.575733 0,0.338666 0.203199,0.626532 0.2032,0.270933 0.694266,0.541865 0.507999,0.270933 1.33773,0.592666 1.117598,0.406399 1.84573,0.914398 0.745065,0.491066 1.117598,1.151464 0.389466,0.660399 0.389466,1.591731 0,1.066798 -0.524932,1.896529 -0.524933,0.829732 -1.473198,1.303864 -0.931331,0.457199 -2.184395,0.457199 z M 96.465658,20.18877 V 8.3862602 h 7.890922 v 2.1674628 h -5.46946 v 2.489195 h 5.14772 v 2.167462 h -5.14772 v 2.810928 h 5.46946 v 2.167462 z m 9.736652,0 V 8.3862602 h 2.42147 v 9.6350478 h 4.92759 v 2.167462 z m 8.58519,0 V 8.3862602 h 7.89091 v 2.1674628 h -5.46945 v 2.489195 h 5.14772 v 2.167462 h -5.14772 v 2.810928 h 5.46945 v 2.167462 z m 14.96906,0.287866 q -1.69333,0 -2.98026,-0.778931 -1.28693,-0.778932 -2.01506,-2.167463 -0.7112,-1.38853 -0.7112,-3.251193 0,-1.862663 0.7112,-3.234261 0.72813,-1.3885303 2.01506,-2.1674621 1.28693,-0.7789318 2.98026,-0.7789318 1.91346,0 3.28506,0.9651981 1.38853,0.9482648 1.99813,2.6246618 l -2.28599,0.829731 q -0.3556,-0.999064 -1.13454,-1.54093 -0.76199,-0.558799 -1.86266,-0.558799 -0.99906,0 -1.74413,0.474133 -0.74506,0.457199 -1.15146,1.320797 -0.38947,0.863598 -0.38947,2.065863 0,1.202264 0.38947,2.082795 0.4064,0.863599 1.15146,1.337731 0.74507,0.457199 1.74413,0.457199 1.10067,0 1.86266,-0.558799 0.77894,-0.558799 1.13454,-1.54093 l 2.28599,0.829732 q -0.6096,1.659463 -1.99813,2.624661 -1.3716,0.965198 -3.28506,0.965198 z m 9.40137,-0.287866 v -9.635047 h -3.556 V 8.3862602 h 9.55039 v 2.1674628 h -3.53906 v 9.635047 z m 7.23051,0 V 8.3862602 h 2.42146 V 20.18877 Z m 9.80438,0.287866 q -1.69333,0 -2.98026,-0.778931 -1.28693,-0.778932 -2.01507,-2.167463 -0.71119,-1.38853 -0.71119,-3.23426 0,-1.862663 0.71119,-3.251194 0.72814,-1.3885303 2.01507,-2.1674621 1.28693,-0.7789318 2.98026,-0.7789318 1.71026,0 2.99719,0.7789318 1.28693,0.7619985 1.99813,2.1505291 0.72813,1.388531 0.72813,3.268127 0,1.862663 -0.72813,3.251193 -0.72813,1.388531 -2.01506,2.167463 -1.28693,0.761998 -2.98026,0.761998 z m 0,-2.319862 q 1.016,0 1.74413,-0.474132 0.72813,-0.474133 1.13453,-1.337731 0.4064,-0.880531 0.4064,-2.048929 0,-1.185331 -0.4064,-2.048929 -0.4064,-0.880532 -1.13453,-1.354664 -0.72813,-0.474133 -1.76107,-0.474133 -0.98213,0 -1.72719,0.474133 -0.74507,0.457199 -1.15147,1.320797 -0.38946,0.863598 -0.38946,2.082796 0,1.202264 0.38946,2.065862 0.4064,0.863599 1.15147,1.337731 0.74506,0.457199 1.74413,0.457199 z m 7.39984,2.031996 V 8.3862602 h 2.4892 l 5.31706,8.6190498 h -0.62654 V 8.3862602 h 2.4384 V 20.18877 h -2.50613 l -5.30012,-8.635983 h 0.6096 v 8.635983 z"
       id="text5"
       style="font-size:16.9333px;font-family:'Hanken Grotesk';-inkscape-font-specification:'Hanken Grotesk, @wght=800';font-variation-settings:'wght' 800;fill:#e4ff3a;stroke-width:2"
       aria-label="COURIER SELECTION" /></g></svg>
