<?xml version="1.0" encoding="UTF-8" standalone="no"?>
<!-- Created with Inkscape (http://www.inkscape.org/) -->

<svg
   width="1920"
   height="1080"
   viewBox="0 0 507.99999 285.75"
   version="1.1"
   id="svg1"
   xml:space="preserve"
   sodipodi:docname="selectionScreenFreighterLogo.svg"
   inkscape:version="1.4.2 (ebf0e940d0, 2025-05-08)"
   xmlns:inkscape="http://www.inkscape.org/namespaces/inkscape"
   xmlns:sodipodi="http://sodipodi.sourceforge.net/DTD/sodipodi-0.dtd"
   xmlns="http://www.w3.org/2000/svg"
   xmlns:svg="http://www.w3.org/2000/svg"><sodipodi:namedview
     id="namedview1"
     pagecolor="#ffffff"
     bordercolor="#000000"
     borderopacity="0.25"
     inkscape:showpageshadow="2"
     inkscape:pageopacity="0.0"
     inkscape:pagecheckerboard="0"
     inkscape:deskcolor="#d1d1d1"
     inkscape:zoom="0.72592593"
     inkscape:cx="960.15306"
     inkscape:cy="540"
     inkscape:window-width="1920"
     inkscape:window-height="1002"
     inkscape:window-x="0"
     inkscape:window-y="0"
     inkscape:window-maximized="1"
     inkscape:current-layer="g4" /><defs
     id="defs1"><linearGradient
       id="swatch2"><stop
         style="stop-color:#000000;stop-opacity:1;"
         offset="0"
         id="stop2" /></linearGradient></defs><g
     id="layer1"><g
       id="g4"
       transform="matrix(0.87499991,0,0,0.87499991,271.19793,105.20542)"><rect
         style="fill:#333333;stroke-width:2.30793"
         id="rect3-1-6"
         width="105.83334"
         height="105.83334"
         x="-4.4408921e-16"
         y="0" /><rect
         style="fill:#4d4d4d;stroke-width:1.87519"
         id="rect3-2"
         width="85.989586"
         height="85.989586"
         x="10.191108"
         y="10.033441" /><g
         id="layer1-6"><g
           id="path1"
           style="opacity:1"><path
             style="baseline-shift:baseline;display:inline;overflow:visible;vector-effect:none;fill:#e4ff3a;paint-order:markers fill stroke;enable-background:accumulate;stop-color:#000000;stop-opacity:1"
             d="M 4.6056072,74.413849 C 106.6183,53.035989 69.445037,32.738364 69.445037,32.738364 c 0,0 49.894023,10.578078 24.654019,41.675485 z"
             id="path6" /><path
             style="baseline-shift:baseline;display:inline;overflow:visible;vector-effect:none;paint-order:markers fill stroke;enable-background:accumulate;stop-color:#000000;stop-opacity:1"
             d="m 69.925781,30.46875 -1.59375,4.306641 c 0,0 1.989388,1.115192 3.554688,2.966796 1.565299,1.851605 2.610242,3.876608 1.273437,6.871094 -1.336805,2.994487 -5.73119,7.360062 -16.341797,12.15625 C 46.207753,61.56572 29.532233,66.819037 4.1289062,72.142578 l 0.4765625,4.591797 H 95.205078 l 0.695313,-0.857422 C 102.48673,67.762135 104.46354,60.474666 103.16602,54.304687 101.86849,48.134709 97.505605,43.474375 92.568359,40.013672 82.693869,33.092265 69.925781,30.46875 69.925781,30.46875 Z m 7.236328,7.048828 c 3.97221,1.43339 8.688018,3.455153 12.742188,6.296875 4.38126,3.070992 7.759893,6.885755 8.71875,11.445313 0.919792,4.373798 -0.310316,9.837725 -5.728516,16.833984 H 24.859375 c 14.879697,-3.787139 25.945471,-7.514059 33.869141,-11.095703 11.110476,-5.022139 16.548456,-9.740035 18.669921,-14.492188 1.49728,-3.353954 0.962168,-6.490623 -0.236328,-8.988281 z"
             id="path7" /></g><path
           style="baseline-shift:baseline;display:inline;overflow:visible;vector-effect:none;paint-order:markers fill stroke;enable-background:accumulate;stop-color:#000000;stop-opacity:1;opacity:1"
           d="m 55.587891,31.910156 -1.779297,7.074219 c 0,0 2.140596,0.567866 3.966797,1.542969 0.9131,0.487551 1.674481,1.086003 1.957031,1.429687 0.28255,0.343684 0.164297,0.07557 0.15039,0.136719 -0.01391,0.06115 -0.328833,0.880463 -1.93164,2.136719 -1.602807,1.256255 -4.358165,2.865549 -8.513672,4.654297 -8.311014,3.577495 -22.197059,7.915274 -44.0820313,12.873046 l 1.6113282,7.115235 C 29.093582,63.860494 43.280348,59.478052 52.322266,55.585937 c 4.520959,-1.946057 7.762967,-3.758894 10.128906,-5.613281 2.365939,-1.854387 3.991193,-3.833752 4.542969,-6.259765 0.551775,-2.426014 -0.376779,-4.868004 -1.626954,-6.388672 -1.250174,-1.520669 -2.742877,-2.47775 -4.15625,-3.232422 -2.826745,-1.509345 -5.623046,-2.181641 -5.623046,-2.181641 z"
           id="path2" /><path
           style="baseline-shift:baseline;display:inline;overflow:visible;vector-effect:none;stroke-dasharray:7.9375, 7.9375;paint-order:markers fill stroke;enable-background:accumulate;stop-color:#000000;stop-opacity:1;opacity:1"
           d="m 73.1875,33.048828 -1.865234,3.501953 0.125,0.06641 c 0.798437,0.434503 1.587306,0.91269 2.375,1.419922 l 0.458984,0.300782 0.498047,0.335937 c 0.337109,0.230603 0.670372,0.464797 0.998047,0.703125 l 2.333984,-3.208984 C 77.745949,35.902217 77.378044,35.64372 77.007812,35.390625 l -0.0059,-0.0039 -0.525391,-0.353516 -0.5,-0.328125 -0.0059,-0.0039 c -0.850991,-0.547993 -1.728206,-1.081176 -2.642578,-1.578125 l -0.0078,-0.0039 z m 11.140625,8.759766 -3.03125,2.560547 0.126953,0.148437 0.232422,0.287109 0.226562,0.289063 0.220704,0.291016 0.21289,0.292968 0.205078,0.294922 0.197266,0.298828 0.1875,0.298828 0.191406,0.320313 c 0.140895,0.243261 0.273293,0.488832 0.396485,0.736328 0.450529,0.904745 0.776944,1.841453 0.93164,2.771484 l 3.914063,-0.652343 C 88.108721,48.356586 87.642715,47.053975 87.046875,45.857422 86.87996,45.522086 86.703374,45.194589 86.517578,44.875 l -0.0059,-0.0098 -0.222657,-0.371093 -0.238281,-0.376954 -0.24414,-0.371093 -0.253907,-0.363282 -0.259765,-0.359375 -0.265625,-0.351562 -0.273438,-0.347656 -0.277344,-0.341797 z M 82.916016,56.46875 c -0.398639,0.583737 -0.860135,1.144742 -1.367188,1.685547 -3.34e-4,3.55e-4 -0.0016,-3.55e-4 -0.002,0 -3.54e-4,3.78e-4 3.54e-4,0.0016 0,0.002 -1.120964,1.191212 -2.431711,2.252682 -3.845703,3.224609 l 2.248047,3.271485 C 81.529556,63.566076 83.06693,62.333982 84.439453,60.875 l 0.002,-0.002 c 0.623764,-0.665068 1.217851,-1.383916 1.751953,-2.166016 z m -11.847657,8.626953 c -2.329246,1.088981 -4.732467,2.051166 -7.177734,2.931641 l 1.345703,3.734375 c 2.532892,-0.912026 5.046871,-1.919888 7.511719,-3.072266 z m -14.613281,5.345703 c -2.506379,0.73777 -5.036926,1.414132 -7.582031,2.046875 l 0.958984,3.851563 c 2.590137,-0.643939 5.172181,-1.335298 7.742188,-2.091797 z"
           id="path2-9" /><g
           id="path3"
           style="opacity:1"
           transform="matrix(0.20267043,-0.26334859,0.26334859,0.20267043,38.837361,33.917058)"><path
             style="baseline-shift:baseline;display:inline;overflow:visible;vector-effect:none;fill:#e4ff3a;paint-order:markers fill stroke;enable-background:accumulate;stop-color:#000000;stop-opacity:1"
             d="M 42.055717,42.323586 26.360292,45.760058 10.664865,49.196529 15.536507,33.885656 20.408148,18.574783 31.231932,30.449184 Z"
             id="path4" /><path
             style="baseline-shift:baseline;display:inline;overflow:visible;vector-effect:none;paint-order:markers fill stroke;enable-background:accumulate;stop-color:#000000;stop-opacity:1"
             d="M 18.710937,10.820313 11.753906,32.681641 4.7988281,54.542969 27.208984,49.636719 49.619141,44.730469 34.164062,27.775391 Z m 3.394532,15.507812 6.193359,6.794922 6.193359,6.794922 -8.980468,1.964843 -8.980469,1.966797 2.787109,-8.759765 z"
             id="path5" /></g></g></g></g></svg>
