<?xml version="1.0" encoding="UTF-8" standalone="no"?>
<!-- Created with Inkscape (http://www.inkscape.org/) -->

<svg
   width="1920"
   height="1080"
   viewBox="0 0 507.99999 285.75"
   version="1.1"
   id="svg1"
   xml:space="preserve"
   sodipodi:docname="selectionScreenCruiserDescription.svg"
   inkscape:version="1.4.2 (ebf0e940d0, 2025-05-08)"
   xmlns:inkscape="http://www.inkscape.org/namespaces/inkscape"
   xmlns:sodipodi="http://sodipodi.sourceforge.net/DTD/sodipodi-0.dtd"
   xmlns="http://www.w3.org/2000/svg"
   xmlns:svg="http://www.w3.org/2000/svg"><sodipodi:namedview
     id="namedview1"
     pagecolor="#ffffff"
     bordercolor="#000000"
     borderopacity="0.25"
     inkscape:showpageshadow="2"
     inkscape:pageopacity="0.0"
     inkscape:pagecheckerboard="0"
     inkscape:deskcolor="#d1d1d1"
     inkscape:zoom="0.72592593"
     inkscape:cx="959.46429"
     inkscape:cy="540"
     inkscape:window-width="1920"
     inkscape:window-height="1002"
     inkscape:window-x="0"
     inkscape:window-y="0"
     inkscape:window-maximized="1"
     inkscape:current-layer="svg1" /><defs
     id="defs1"><linearGradient
       id="swatch2"><stop
         style="stop-color:#000000;stop-opacity:1;"
         offset="0"
         id="stop2" /></linearGradient></defs><g
     id="layer1"><g
       id="text3-2"
       style="font-size:11.2889px;font-family:'Hanken Grotesk';-inkscape-font-specification:'Hanken Grotesk, @wght=800';font-variation-settings:'wght' 800;text-align:center;text-anchor:middle;fill:#e4ff3a;stroke-width:3.96875;paint-order:markers fill stroke"
       aria-label="SPEED ABOVE ALLBUCKSHOT TURRETLIFESTEAL ON KILL"><path
         d="m 145.87158,212.44918 q -1.28693,0 -2.11102,-0.66604 -0.8128,-0.66605 -0.99343,-1.77236 l 1.58045,-0.39511 q 0.12418,0.69991 0.54187,1.04987 0.41769,0.34995 1.03858,0.34995 0.31608,0 0.57573,-0.1016 0.25964,-0.11289 0.4064,-0.31609 0.14676,-0.2032 0.14676,-0.48542 0,-0.25964 -0.15805,-0.45156 -0.14675,-0.2032 -0.47413,-0.37253 -0.32738,-0.16933 -0.83538,-0.36124 -0.76765,-0.3048 -1.27565,-0.64347 -0.508,-0.34996 -0.75635,-0.80151 -0.23707,-0.45156 -0.23707,-1.04987 0,-0.64347 0.31609,-1.14018 0.31609,-0.49671 0.88053,-0.77893 0.57574,-0.28223 1.33209,-0.28223 0.8128,0 1.43369,0.37254 0.62089,0.37253 1.00472,1.1176 l -1.28694,0.77893 q -0.22578,-0.4064 -0.53058,-0.62089 -0.3048,-0.21449 -0.67733,-0.21449 -0.23707,0 -0.42898,0.0903 -0.19191,0.0903 -0.31609,0.25965 -0.11289,0.16933 -0.11289,0.38382 0,0.22578 0.13547,0.41769 0.13547,0.18062 0.46284,0.36125 0.33867,0.18062 0.89183,0.39511 0.74506,0.27093 1.23049,0.6096 0.49671,0.32738 0.74506,0.76764 0.25965,0.44027 0.25965,1.06116 0,0.7112 -0.34996,1.26436 -0.34995,0.55315 -0.98213,0.86924 -0.62089,0.3048 -1.45627,0.3048 z m 3.8721,-0.15804 v -7.86837 h 2.68676 q 1.34338,0 2.02071,0.57574 0.68862,0.56444 0.68862,1.71591 0,1.16276 -0.69991,1.77236 -0.68862,0.59831 -2.00942,0.59831 h -1.08374 v 3.20605 z m 1.60302,-4.65103 h 0.9144 q 0.59832,0 0.92569,-0.19191 0.32738,-0.19191 0.32738,-0.7112 0,-0.49671 -0.31609,-0.67734 -0.3048,-0.19191 -0.93698,-0.19191 h -0.9144 z m 4.76391,4.65103 v -7.86837 h 5.26063 v 1.44498 h -3.64632 v 1.65947 h 3.43183 v 1.44498 h -3.43183 v 1.87396 h 3.64632 v 1.44498 z m 6.49113,0 v -7.86837 h 5.26062 v 1.44498 h -3.64631 v 1.65947 h 3.43183 v 1.44498 h -3.43183 v 1.87396 h 3.64631 v 1.44498 z m 6.49112,0 v -7.86837 h 2.3368 q 1.96427,0 3.03672,1.03858 1.08373,1.03858 1.08373,2.95769 0,1.87396 -1.06115,2.87867 -1.06116,0.99343 -3.07058,0.99343 z m 1.61431,-1.47885 h 0.54187 q 0.84667,0 1.44498,-0.2032 0.59831,-0.21449 0.9144,-0.74507 0.31609,-0.53057 0.31609,-1.50142 0,-0.94827 -0.3048,-1.47885 -0.3048,-0.54186 -0.86924,-0.75635 -0.56445,-0.22578 -1.35467,-0.22578 h -0.68863 z m 8.2409,1.47885 3.21733,-7.86837 h 1.19663 l 3.21733,7.86837 h -1.76106 l -2.04329,-5.47512 -2.06587,5.47512 z m 2.21262,-1.43369 0.508,-1.44498 h 2.20134 l 0.51929,1.44498 z m 6.18633,1.43369 v -7.86837 h 2.85609 q 1.18534,0 1.86267,0.53058 0.67734,0.53058 0.67734,1.45627 0,0.54187 -0.21449,0.95956 -0.21449,0.4064 -0.59831,0.65475 0.63217,0.25965 0.93697,0.74507 0.3048,0.48542 0.3048,1.18534 0,1.09502 -0.68862,1.71591 -0.68862,0.62089 -1.89653,0.62089 z m 1.61431,-1.47885 h 1.49014 q 1.10631,0 1.10631,-0.92569 0,-0.44027 -0.28222,-0.67733 -0.27093,-0.24836 -0.77893,-0.24836 h -1.5353 z m 0,-3.29636 h 1.26436 q 0.42898,0 0.66605,-0.22578 0.23706,-0.22577 0.23706,-0.62088 0,-0.36125 -0.24835,-0.56445 -0.23707,-0.2032 -0.67734,-0.2032 h -1.24178 z m 8.82792,4.96712 q -1.12889,0 -1.98685,-0.51929 -0.85795,-0.51929 -1.34338,-1.44498 -0.47413,-0.92569 -0.47413,-2.15618 0,-1.24178 0.47413,-2.16747 0.48543,-0.92569 1.34338,-1.44498 0.85796,-0.51929 1.98685,-0.51929 1.14018,0 1.99814,0.51929 0.85795,0.508 1.33209,1.43369 0.48542,0.92569 0.48542,2.17876 0,1.24178 -0.48542,2.16747 -0.48543,0.92569 -1.34338,1.44498 -0.85796,0.508 -1.98685,0.508 z m 0,-1.54658 q 0.67733,0 1.16276,-0.31609 0.48542,-0.31609 0.75635,-0.89182 0.27094,-0.58703 0.27094,-1.36596 0,-0.79022 -0.27094,-1.36596 -0.27093,-0.58702 -0.75635,-0.90311 -0.48543,-0.31609 -1.17405,-0.31609 -0.65475,0 -1.15147,0.31609 -0.49671,0.3048 -0.76764,0.88054 -0.25965,0.57573 -0.25965,1.38853 0,0.80151 0.25965,1.37725 0.27093,0.57573 0.76764,0.89182 0.49672,0.3048 1.16276,0.3048 z m 7.08491,1.35467 -3.16089,-7.86837 h 1.78365 l 2.24649,5.88152 h -0.51929 l 2.20133,-5.88152 h 1.79494 l -3.1496,7.86837 z m 5.12516,0 v -7.86837 h 5.26063 v 1.44498 h -3.64631 v 1.65947 h 3.43182 v 1.44498 h -3.43182 v 1.87396 h 3.64631 v 1.44498 z m 8.77149,0 3.21733,-7.86837 h 1.19663 l 3.21733,7.86837 h -1.76107 l -2.04329,-5.47512 -2.06586,5.47512 z m 2.21262,-1.43369 0.508,-1.44498 h 2.20134 l 0.51929,1.44498 z m 6.18633,1.43369 v -7.86837 h 1.61432 v 6.42339 h 3.28507 v 1.44498 z m 5.72348,0 v -7.86837 h 1.61431 v 6.42339 h 3.28507 v 1.44498 z"
         id="path1" /><path
         d="m 139.44481,226.40227 v -7.86837 h 2.8561 q 1.18533,0 1.86266,0.53058 0.67734,0.53058 0.67734,1.45627 0,0.54187 -0.21449,0.95956 -0.21449,0.4064 -0.59831,0.65475 0.63218,0.25965 0.93698,0.74507 0.3048,0.48542 0.3048,1.18534 0,1.09502 -0.68863,1.71591 -0.68862,0.62089 -1.89653,0.62089 z m 1.61432,-1.47885 h 1.49013 q 1.10631,0 1.10631,-0.92569 0,-0.44027 -0.28222,-0.67733 -0.27093,-0.24836 -0.77893,-0.24836 h -1.53529 z m 0,-3.29636 h 1.26435 q 0.42898,0 0.66605,-0.22578 0.23707,-0.22577 0.23707,-0.62088 0,-0.36125 -0.24836,-0.56445 -0.23707,-0.2032 -0.67733,-0.2032 h -1.24178 z m 8.3312,4.96712 q -1.524,0 -2.30293,-0.75636 -0.76765,-0.75635 -0.76765,-2.28036 v -5.02356 h 1.61431 v 4.84294 q 0,0.57574 0.11289,0.95956 0.11289,0.38382 0.42898,0.57573 0.32738,0.19191 0.9144,0.19191 0.58703,0 0.89183,-0.19191 0.31609,-0.19191 0.44026,-0.57573 0.12418,-0.38382 0.12418,-0.94827 v -4.85423 h 1.61431 v 4.96712 q 0,1.55787 -0.77893,2.32551 -0.77893,0.76765 -2.29165,0.76765 z m 7.92482,0 q -1.12889,0 -1.98684,-0.51929 -0.85796,-0.51929 -1.34338,-1.44498 -0.47414,-0.92569 -0.47414,-2.16747 0,-1.24178 0.47414,-2.15618 0.48542,-0.92569 1.34338,-1.44498 0.85795,-0.51929 1.98684,-0.51929 1.27565,0 2.19005,0.64347 0.92569,0.63218 1.33209,1.74978 l -1.524,0.55316 q -0.23707,-0.66605 -0.75636,-1.02729 -0.508,-0.37254 -1.24178,-0.37254 -0.66604,0 -1.16275,0.31609 -0.49672,0.3048 -0.76765,0.88054 -0.25964,0.57573 -0.25964,1.37724 0,0.80151 0.25964,1.38854 0.27093,0.57573 0.76765,0.89182 0.49671,0.3048 1.16275,0.3048 0.73378,0 1.24178,-0.37253 0.51929,-0.37254 0.75636,-1.02729 l 1.524,0.55315 q -0.4064,1.10631 -1.33209,1.74978 -0.9144,0.64347 -2.19005,0.64347 z m 5.82508,-2.51743 v -2.04329 l 3.29636,-3.49956 h 2.17876 z m -1.29822,2.32552 v -7.86837 h 1.61431 v 7.86837 z m 4.8768,0 -2.42711,-3.8721 1.20791,-1.1176 3.13831,4.9897 z m 5.18614,0.15804 q -1.28694,0 -2.11103,-0.66604 -0.8128,-0.66605 -0.99342,-1.77236 l 1.58044,-0.39511 q 0.12418,0.69991 0.54187,1.04987 0.41769,0.34995 1.03858,0.34995 0.31609,0 0.57573,-0.1016 0.25965,-0.11289 0.40641,-0.31609 0.14675,-0.2032 0.14675,-0.48542 0,-0.25965 -0.15804,-0.45156 -0.14676,-0.2032 -0.47414,-0.37253 -0.32738,-0.16933 -0.83538,-0.36124 -0.76764,-0.30481 -1.27564,-0.64347 -0.508,-0.34996 -0.75636,-0.80151 -0.23707,-0.45156 -0.23707,-1.04987 0,-0.64347 0.31609,-1.14018 0.31609,-0.49671 0.88054,-0.77893 0.57573,-0.28223 1.33209,-0.28223 0.8128,0 1.43369,0.37254 0.62089,0.37253 1.00471,1.1176 l -1.28693,0.77893 q -0.22578,-0.4064 -0.53058,-0.62089 -0.3048,-0.21449 -0.67734,-0.21449 -0.23706,0 -0.42897,0.0903 -0.19192,0.0903 -0.31609,0.25965 -0.11289,0.16933 -0.11289,0.38382 0,0.22578 0.13546,0.41769 0.13547,0.18062 0.46285,0.36125 0.33867,0.18062 0.89182,0.39511 0.74507,0.27093 1.23049,0.6096 0.49671,0.32738 0.74507,0.76764 0.25964,0.44027 0.25964,1.06116 0,0.7112 -0.34995,1.26436 -0.34996,0.55315 -0.98214,0.86924 -0.62089,0.3048 -1.45626,0.3048 z m 3.87209,-0.15804 v -7.86837 h 1.61432 v 3.07058 h 3.22862 v -3.07058 h 1.61431 v 7.86837 h -1.61431 v -3.31894 h -3.22862 v 3.31894 z m 11.37922,0.19191 q -1.12889,0 -1.98685,-0.51929 -0.85796,-0.51929 -1.34338,-1.44498 -0.47413,-0.92569 -0.47413,-2.15618 0,-1.24178 0.47413,-2.16747 0.48542,-0.92569 1.34338,-1.44498 0.85796,-0.51929 1.98685,-0.51929 1.14018,0 1.99813,0.51929 0.85796,0.508 1.33209,1.43369 0.48542,0.92569 0.48542,2.17876 0,1.24178 -0.48542,2.16747 -0.48542,0.92569 -1.34338,1.44498 -0.85795,0.508 -1.98684,0.508 z m 0,-1.54658 q 0.67733,0 1.16275,-0.31609 0.48543,-0.31609 0.75636,-0.89182 0.27093,-0.58703 0.27093,-1.36596 0,-0.79022 -0.27093,-1.36596 -0.27093,-0.58702 -0.75636,-0.90311 -0.48542,-0.31609 -1.17404,-0.31609 -0.65476,0 -1.15147,0.31609 -0.49671,0.3048 -0.76765,0.88054 -0.25964,0.57573 -0.25964,1.38853 0,0.80151 0.25964,1.37725 0.27094,0.57573 0.76765,0.89182 0.49671,0.3048 1.16276,0.3048 z m 6.50464,1.35467 v -6.42339 h -2.37067 v -1.44498 h 6.36694 v 1.44498 h -2.35938 v 6.42339 z m 9.51654,0 v -6.42339 h -2.37067 v -1.44498 h 6.36694 v 1.44498 h -2.35938 v 6.42339 z m 7.82322,0.19191 q -1.52401,0 -2.30294,-0.75636 -0.76765,-0.75635 -0.76765,-2.28036 v -5.02356 h 1.61432 v 4.84294 q 0,0.57574 0.11289,0.95956 0.11289,0.38382 0.42897,0.57573 0.32738,0.19191 0.91441,0.19191 0.58702,0 0.89182,-0.19191 0.31609,-0.19191 0.44027,-0.57573 0.12417,-0.38382 0.12417,-0.94827 v -4.85423 h 1.61432 v 4.96712 q 0,1.55787 -0.77894,2.32551 -0.77893,0.76765 -2.29164,0.76765 z m 4.42526,-0.19191 v -7.86837 h 2.68675 q 0.97085,0 1.55787,0.28223 0.59831,0.28222 0.86925,0.80151 0.28222,0.51929 0.28222,1.2192 0,1.1176 -0.64347,1.71591 -0.63218,0.59831 -1.79493,0.66605 -0.29351,0 -0.57574,0 -0.28222,0 -0.46284,0 h -0.3048 v 3.18347 z m 4.23333,0 -1.95298,-3.36409 1.65947,-0.19192 2.16747,3.55601 z m -2.61902,-4.62845 h 0.90311 q 0.32738,0 0.6096,-0.0677 0.29351,-0.0677 0.46285,-0.25964 0.18062,-0.2032 0.18062,-0.58702 0,-0.39511 -0.18062,-0.57574 -0.16934,-0.19191 -0.46285,-0.24835 -0.28222,-0.0564 -0.6096,-0.0564 h -0.90311 z m 5.32609,4.62845 v -7.86837 h 2.68676 q 0.97085,0 1.55787,0.28223 0.59831,0.28222 0.86924,0.80151 0.28223,0.51929 0.28223,1.2192 0,1.1176 -0.64347,1.71591 -0.63218,0.59831 -1.79494,0.66605 -0.29351,0 -0.57573,0 -0.28222,0 -0.46284,0 h -0.3048 v 3.18347 z m 4.23334,0 -1.95298,-3.36409 1.65947,-0.19192 2.16747,3.55601 z m -2.61902,-4.62845 h 0.90311 q 0.32738,0 0.6096,-0.0677 0.29351,-0.0677 0.46284,-0.25964 0.18063,-0.2032 0.18063,-0.58702 0,-0.39511 -0.18063,-0.57574 -0.16933,-0.19191 -0.46284,-0.24835 -0.28222,-0.0564 -0.6096,-0.0564 h -0.90311 z m 5.3261,4.62845 v -7.86837 h 5.26062 v 1.44498 h -3.64631 v 1.65947 h 3.43183 v 1.44498 h -3.43183 v 1.87396 h 3.64631 v 1.44498 z m 8.25219,0 v -6.42339 h -2.37067 v -1.44498 h 6.36694 v 1.44498 h -2.35938 v 6.42339 z"
         id="path2" /><path
         d="m 141.52987,240.51338 v -7.86836 h 1.61432 v 6.42338 h 3.28507 v 1.44498 z m 5.72348,0 v -7.86836 h 1.61431 v 7.86836 z m 3.0367,0 v -7.86836 h 5.29449 V 234.09 h -3.68018 v 1.65947 h 3.19476 v 1.44498 h -3.19476 v 3.31893 z m 6.26534,0 v -7.86836 h 5.26063 V 234.09 h -3.64631 v 1.65947 h 3.43182 v 1.44498 h -3.43182 v 1.87395 h 3.64631 v 1.44498 z m 9.13272,0.15805 q -1.28693,0 -2.11102,-0.66605 -0.8128,-0.66604 -0.99342,-1.77236 l 1.58044,-0.39511 q 0.12418,0.69991 0.54187,1.04987 0.41769,0.34996 1.03858,0.34996 0.31609,0 0.57573,-0.1016 0.25965,-0.11289 0.4064,-0.31609 0.14676,-0.2032 0.14676,-0.48543 0,-0.25964 -0.15805,-0.45155 -0.14675,-0.2032 -0.47413,-0.37254 -0.32738,-0.16933 -0.83538,-0.36124 -0.76764,-0.3048 -1.27565,-0.64347 -0.508,-0.34995 -0.75635,-0.80151 -0.23707,-0.45156 -0.23707,-1.04987 0,-0.64346 0.31609,-1.14018 0.31609,-0.49671 0.88054,-0.77893 0.57573,-0.28222 1.33209,-0.28222 0.8128,0 1.43369,0.37253 0.62089,0.37253 1.00471,1.1176 l -1.28694,0.77894 q -0.22577,-0.4064 -0.53058,-0.62089 -0.3048,-0.21449 -0.67733,-0.21449 -0.23707,0 -0.42898,0.0903 -0.19191,0.0903 -0.31609,0.25964 -0.11289,0.16934 -0.11289,0.38383 0,0.22577 0.13547,0.41769 0.13547,0.18062 0.46285,0.36124 0.33866,0.18062 0.89182,0.39511 0.74507,0.27094 1.23049,0.6096 0.49671,0.32738 0.74507,0.76765 0.25964,0.44026 0.25964,1.06115 0,0.7112 -0.34995,1.26436 -0.34996,0.55316 -0.98214,0.86925 -0.62089,0.3048 -1.45627,0.3048 z m 5.61963,-0.15805 V 234.09 h -2.37067 v -1.44498 h 6.36694 V 234.09 h -2.35938 v 6.42338 z m 4.82036,0 v -7.86836 h 5.26063 V 234.09 h -3.64632 v 1.65947 h 3.43183 v 1.44498 h -3.43183 v 1.87395 h 3.64632 v 1.44498 z m 5.83637,0 3.21734,-7.86836 h 1.19662 l 3.21734,7.86836 h -1.76107 l -2.04329,-5.47511 -2.06587,5.47511 z m 2.21262,-1.43369 0.508,-1.44498 h 2.20134 l 0.51929,1.44498 z m 6.18633,1.43369 v -7.86836 h 1.61431 v 6.42338 h 3.28507 v 1.44498 z m 12.15815,0.19191 q -1.12889,0 -1.98685,-0.51929 -0.85796,-0.51929 -1.34338,-1.44498 -0.47413,-0.92569 -0.47413,-2.15618 0,-1.24177 0.47413,-2.16746 0.48542,-0.92569 1.34338,-1.44498 0.85796,-0.51929 1.98685,-0.51929 1.14018,0 1.99813,0.51929 0.85796,0.508 1.33209,1.43369 0.48543,0.92569 0.48543,2.17875 0,1.24178 -0.48543,2.16747 -0.48542,0.92569 -1.34338,1.44498 -0.85795,0.508 -1.98684,0.508 z m 0,-1.54658 q 0.67733,0 1.16275,-0.31609 0.48543,-0.31608 0.75636,-0.89182 0.27093,-0.58702 0.27093,-1.36596 0,-0.79022 -0.27093,-1.36595 -0.27093,-0.58703 -0.75636,-0.90311 -0.48542,-0.31609 -1.17404,-0.31609 -0.65476,0 -1.15147,0.31609 -0.49671,0.3048 -0.76764,0.88053 -0.25965,0.57573 -0.25965,1.38853 0,0.80152 0.25965,1.37725 0.27093,0.57573 0.76764,0.89182 0.49671,0.3048 1.16276,0.3048 z m 4.93325,1.35467 v -7.86836 h 1.65946 l 3.54472,5.74605 h -0.41769 v -5.74605 h 1.6256 v 7.86836 h -1.67076 l -3.53342,-5.75734 h 0.4064 v 5.75734 z m 12.06783,-2.32551 v -2.04329 l 3.29636,-3.49956 h 2.17876 z m -1.29822,2.32551 v -7.86836 h 1.61431 v 7.86836 z m 4.87681,0 -2.42712,-3.87209 1.20791,-1.1176 3.13832,4.98969 z m 2.70934,0 v -7.86836 h 1.61432 v 7.86836 z m 3.03671,0 v -7.86836 h 1.61431 v 6.42338 h 3.28507 v 1.44498 z m 5.72347,0 v -7.86836 h 1.61431 v 6.42338 h 3.28507 v 1.44498 z"
         id="path3" /></g></g></svg>
