<?xml version="1.0" encoding="UTF-8" standalone="no"?>
<!-- Created with Inkscape (http://www.inkscape.org/) -->

<svg
   width="1920"
   height="1080"
   viewBox="0 0 507.99999 285.75"
   version="1.1"
   id="svg1"
   xml:space="preserve"
   sodipodi:docname="selectionScreenFreighterDescription.svg"
   inkscape:version="1.4.2 (ebf0e940d0, 2025-05-08)"
   xmlns:inkscape="http://www.inkscape.org/namespaces/inkscape"
   xmlns:sodipodi="http://sodipodi.sourceforge.net/DTD/sodipodi-0.dtd"
   xmlns="http://www.w3.org/2000/svg"
   xmlns:svg="http://www.w3.org/2000/svg"><sodipodi:namedview
     id="namedview1"
     pagecolor="#ffffff"
     bordercolor="#000000"
     borderopacity="0.25"
     inkscape:showpageshadow="2"
     inkscape:pageopacity="0.0"
     inkscape:pagecheckerboard="0"
     inkscape:deskcolor="#d1d1d1"
     inkscape:zoom="0.72592593"
     inkscape:cx="959.46429"
     inkscape:cy="540"
     inkscape:window-width="1920"
     inkscape:window-height="1002"
     inkscape:window-x="0"
     inkscape:window-y="0"
     inkscape:window-maximized="1"
     inkscape:current-layer="svg1" /><defs
     id="defs1"><linearGradient
       id="swatch2"><stop
         style="stop-color:#000000;stop-opacity:1;"
         offset="0"
         id="stop2" /></linearGradient></defs><g
     id="layer1"><g
       id="text3-2-9"
       style="font-size:11.2889px;font-family:'Hanken Grotesk';-inkscape-font-specification:'Hanken Grotesk, @wght=800';font-variation-settings:'wght' 800;text-align:center;text-anchor:middle;fill:#e4ff3a;stroke-width:3.96875;paint-order:markers fill stroke"
       aria-label="SURVIVAL IS PARAMOUNTPIERCING TURRETDELIVERY DUPLICATION"><path
         d="m 253.49419,212.44918 q -1.28694,0 -2.11103,-0.66604 -0.8128,-0.66605 -0.99342,-1.77236 l 1.58045,-0.39511 q 0.12417,0.69991 0.54186,1.04987 0.41769,0.34995 1.03858,0.34995 0.31609,0 0.57574,-0.1016 0.25964,-0.11289 0.4064,-0.31609 0.14675,-0.2032 0.14675,-0.48542 0,-0.25964 -0.15804,-0.45156 -0.14676,-0.2032 -0.47414,-0.37253 -0.32737,-0.16933 -0.83537,-0.36124 -0.76765,-0.3048 -1.27565,-0.64347 -0.508,-0.34996 -0.75636,-0.80151 -0.23706,-0.45156 -0.23706,-1.04987 0,-0.64347 0.31609,-1.14018 0.31608,-0.49671 0.88053,-0.77893 0.57573,-0.28223 1.33209,-0.28223 0.8128,0 1.43369,0.37254 0.62089,0.37253 1.00471,1.1176 l -1.28693,0.77893 q -0.22578,-0.4064 -0.53058,-0.62089 -0.3048,-0.21449 -0.67733,-0.21449 -0.23707,0 -0.42898,0.0903 -0.19191,0.0903 -0.31609,0.25965 -0.11289,0.16933 -0.11289,0.38382 0,0.22578 0.13547,0.41769 0.13546,0.18062 0.46284,0.36125 0.33867,0.18062 0.89182,0.39511 0.74507,0.27093 1.23049,0.6096 0.49672,0.32738 0.74507,0.76764 0.25965,0.44027 0.25965,1.06116 0,0.7112 -0.34996,1.26436 -0.34996,0.55315 -0.98213,0.86924 -0.62089,0.3048 -1.45627,0.3048 z m 6.87494,0.0339 q -1.524,0 -2.30293,-0.75636 -0.76765,-0.75635 -0.76765,-2.28036 v -5.02356 h 1.61432 v 4.84294 q 0,0.57574 0.11288,0.95956 0.11289,0.38382 0.42898,0.57573 0.32738,0.19191 0.9144,0.19191 0.58703,0 0.89183,-0.19191 0.31609,-0.19191 0.44026,-0.57573 0.12418,-0.38382 0.12418,-0.94827 v -4.85423 h 1.61431 v 4.96712 q 0,1.55787 -0.77893,2.32551 -0.77893,0.76765 -2.29165,0.76765 z m 4.42526,-0.19191 v -7.86837 h 2.68676 q 0.97085,0 1.55787,0.28223 0.59831,0.28222 0.86925,0.80151 0.28222,0.51929 0.28222,1.2192 0,1.1176 -0.64347,1.71591 -0.63218,0.59831 -1.79493,0.66605 -0.29352,0 -0.57574,0 -0.28222,0 -0.46284,0 h -0.3048 v 3.18347 z m 4.23334,0 -1.95298,-3.36409 1.65947,-0.19192 2.16747,3.55601 z m -2.61902,-4.62845 h 0.90311 q 0.32738,0 0.6096,-0.0677 0.29351,-0.0677 0.46284,-0.25965 0.18063,-0.2032 0.18063,-0.58702 0,-0.39511 -0.18063,-0.57574 -0.16933,-0.19191 -0.46284,-0.24835 -0.28222,-0.0565 -0.6096,-0.0565 h -0.90311 z m 7.44841,4.62845 -3.16089,-7.86837 h 1.78364 l 2.24649,5.88152 h -0.51929 l 2.20134,-5.88152 h 1.79493 l -3.1496,7.86837 z m 5.12516,0 v -7.86837 h 1.61431 v 7.86837 z m 5.55413,0 -3.16089,-7.86837 h 1.78364 l 2.24649,5.88152 h -0.51929 l 2.20134,-5.88152 h 1.79493 l -3.1496,7.86837 z m 3.47473,0 3.21733,-7.86837 h 1.19663 l 3.21733,7.86837 h -1.76107 l -2.04329,-5.47512 -2.06587,5.47512 z m 2.21262,-1.43369 0.508,-1.44498 h 2.20134 l 0.51929,1.44498 z m 6.18633,1.43369 v -7.86837 h 1.61431 v 6.42339 h 3.28507 v 1.44498 z m 8.65859,0 v -7.86837 h 1.61431 v 7.86837 z m 5.70088,0.15804 q -1.28693,0 -2.11102,-0.66604 -0.8128,-0.66605 -0.99342,-1.77236 l 1.58044,-0.39511 q 0.12418,0.69991 0.54187,1.04987 0.41769,0.34995 1.03858,0.34995 0.31609,0 0.57573,-0.1016 0.25965,-0.11289 0.4064,-0.31609 0.14676,-0.2032 0.14676,-0.48542 0,-0.25964 -0.15805,-0.45156 -0.14675,-0.2032 -0.47413,-0.37253 -0.32738,-0.16933 -0.83538,-0.36124 -0.76764,-0.3048 -1.27565,-0.64347 -0.508,-0.34996 -0.75635,-0.80151 -0.23707,-0.45156 -0.23707,-1.04987 0,-0.64347 0.31609,-1.14018 0.31609,-0.49671 0.88054,-0.77893 0.57573,-0.28223 1.33209,-0.28223 0.8128,0 1.43369,0.37254 0.62089,0.37253 1.00471,1.1176 l -1.28694,0.77893 q -0.22577,-0.4064 -0.53058,-0.62089 -0.3048,-0.21449 -0.67733,-0.21449 -0.23707,0 -0.42898,0.0903 -0.19191,0.0903 -0.31609,0.25965 -0.11289,0.16933 -0.11289,0.38382 0,0.22578 0.13547,0.41769 0.13547,0.18062 0.46285,0.36125 0.33866,0.18062 0.89182,0.39511 0.74507,0.27093 1.23049,0.6096 0.49671,0.32738 0.74507,0.76764 0.25964,0.44027 0.25964,1.06116 0,0.7112 -0.34995,1.26436 -0.34996,0.55315 -0.98214,0.86924 -0.62089,0.3048 -1.45627,0.3048 z m 6.80722,-0.15804 v -7.86837 h 2.68676 q 1.34338,0 2.02071,0.57574 0.68862,0.56444 0.68862,1.71591 0,1.16276 -0.69991,1.77236 -0.68862,0.59831 -2.00942,0.59831 h -1.08374 v 3.20605 z m 1.60302,-4.65103 h 0.9144 q 0.59832,0 0.92569,-0.19191 0.32738,-0.19191 0.32738,-0.7112 0,-0.49671 -0.31609,-0.67734 -0.3048,-0.19191 -0.93698,-0.19191 h -0.9144 z m 3.1496,4.65103 3.21734,-7.86837 h 1.19662 l 3.21734,7.86837 h -1.76107 l -2.04329,-5.47512 -2.06587,5.47512 z m 2.21263,-1.43369 0.508,-1.44498 h 2.20133 l 0.51929,1.44498 z m 6.18632,1.43369 v -7.86837 h 2.68676 q 0.97085,0 1.55787,0.28223 0.59831,0.28222 0.86925,0.80151 0.28222,0.51929 0.28222,1.2192 0,1.1176 -0.64347,1.71591 -0.63218,0.59831 -1.79493,0.66605 -0.29352,0 -0.57574,0 -0.28222,0 -0.46284,0 h -0.3048 v 3.18347 z m 4.23334,0 -1.95298,-3.36409 1.65947,-0.19192 2.16747,3.55601 z m -2.61902,-4.62845 h 0.90311 q 0.32738,0 0.6096,-0.0677 0.29351,-0.0677 0.46284,-0.25965 0.18063,-0.2032 0.18063,-0.58702 0,-0.39511 -0.18063,-0.57574 -0.16933,-0.19191 -0.46284,-0.24835 -0.28222,-0.0565 -0.6096,-0.0565 h -0.90311 z m 4.68488,4.62845 3.21734,-7.86837 h 1.19662 l 3.21734,7.86837 h -1.76107 l -2.04329,-5.47512 -2.06587,5.47512 z m 2.21263,-1.43369 0.508,-1.44498 h 2.20133 l 0.51929,1.44498 z m 6.18632,1.43369 v -7.86837 h 2.35938 l 1.94169,5.54285 h -0.29351 l 1.94169,-5.54285 h 2.35938 v 7.86837 h -1.61431 v -5.97183 l 0.14676,0.0226 -1.89654,5.24934 h -1.56916 l -1.90782,-5.24934 0.14676,-0.0226 v 5.97183 z m 13.23059,0.19191 q -1.12889,0 -1.98685,-0.51929 -0.85795,-0.51929 -1.34338,-1.44498 -0.47413,-0.92569 -0.47413,-2.15618 0,-1.24178 0.47413,-2.16747 0.48543,-0.92569 1.34338,-1.44498 0.85796,-0.51929 1.98685,-0.51929 1.14018,0 1.99813,0.51929 0.85796,0.508 1.33209,1.43369 0.48543,0.92569 0.48543,2.17876 0,1.24178 -0.48543,2.16747 -0.48542,0.92569 -1.34337,1.44498 -0.85796,0.508 -1.98685,0.508 z m 0,-1.54658 q 0.67733,0 1.16276,-0.31609 0.48542,-0.31609 0.75635,-0.89182 0.27094,-0.58703 0.27094,-1.36596 0,-0.79022 -0.27094,-1.36596 -0.27093,-0.58702 -0.75635,-0.90311 -0.48543,-0.31609 -1.17405,-0.31609 -0.65476,0 -1.15147,0.31609 -0.49671,0.3048 -0.76764,0.88054 -0.25965,0.57573 -0.25965,1.38853 0,0.80151 0.25965,1.37725 0.27093,0.57573 0.76764,0.89182 0.49671,0.3048 1.16276,0.3048 z m 7.93609,1.54658 q -1.524,0 -2.30293,-0.75636 -0.76765,-0.75635 -0.76765,-2.28036 v -5.02356 h 1.61432 v 4.84294 q 0,0.57574 0.11289,0.95956 0.11288,0.38382 0.42897,0.57573 0.32738,0.19191 0.9144,0.19191 0.58703,0 0.89183,-0.19191 0.31609,-0.19191 0.44027,-0.57573 0.12417,-0.38382 0.12417,-0.94827 v -4.85423 h 1.61432 v 4.96712 q 0,1.55787 -0.77894,2.32551 -0.77893,0.76765 -2.29165,0.76765 z m 4.42527,-0.19191 v -7.86837 h 1.65946 l 3.54472,5.74605 h -0.41769 v -5.74605 h 1.6256 v 7.86837 h -1.67076 l -3.53342,-5.75734 h 0.4064 v 5.75734 z m 9.59556,0 v -6.42339 h -2.37067 v -1.44498 h 6.36694 v 1.44498 h -2.35938 v 6.42339 z"
         id="path1" /><path
         d="m 271.25391,226.40227 v -7.86837 h 2.68676 q 1.34338,0 2.02071,0.57574 0.68862,0.56444 0.68862,1.71591 0,1.16276 -0.69991,1.77236 -0.68862,0.59831 -2.00942,0.59831 h -1.08374 v 3.20605 z m 1.60302,-4.65103 h 0.91441 q 0.59831,0 0.92569,-0.19191 0.32737,-0.19191 0.32737,-0.7112 0,-0.49671 -0.31609,-0.67734 -0.3048,-0.19191 -0.93697,-0.19191 h -0.91441 z m 4.76391,4.65103 v -7.86837 h 1.61431 v 7.86837 z m 3.03671,0 v -7.86837 h 5.26062 v 1.44498 h -3.64631 v 1.65947 h 3.43182 v 1.44498 h -3.43182 v 1.87396 h 3.64631 v 1.44498 z m 6.49112,0 v -7.86837 h 2.68676 q 0.97085,0 1.55787,0.28223 0.59831,0.28222 0.86924,0.80151 0.28223,0.51929 0.28223,1.2192 0,1.1176 -0.64347,1.71591 -0.63218,0.59831 -1.79494,0.66605 -0.29351,0 -0.57573,0 -0.28222,0 -0.46285,0 h -0.3048 v 3.18347 z m 4.23334,0 -1.95298,-3.36409 1.65947,-0.19192 2.16747,3.55601 z m -2.61903,-4.62845 h 0.90312 q 0.32737,0 0.6096,-0.0677 0.29351,-0.0677 0.46284,-0.25964 0.18062,-0.2032 0.18062,-0.58702 0,-0.39511 -0.18062,-0.57574 -0.16933,-0.19191 -0.46284,-0.24835 -0.28223,-0.0564 -0.6096,-0.0564 h -0.90312 z m 8.63149,4.82036 q -1.12889,0 -1.98685,-0.51929 -0.85796,-0.51929 -1.34338,-1.44498 -0.47413,-0.92569 -0.47413,-2.16747 0,-1.24178 0.47413,-2.15618 0.48542,-0.92569 1.34338,-1.44498 0.85796,-0.51929 1.98685,-0.51929 1.27564,0 2.19004,0.64347 0.92569,0.63218 1.33209,1.74978 l -1.524,0.55316 q -0.23706,-0.66605 -0.75635,-1.02729 -0.508,-0.37254 -1.24178,-0.37254 -0.66605,0 -1.16276,0.31609 -0.49671,0.3048 -0.76765,0.88054 -0.25964,0.57573 -0.25964,1.37724 0,0.80151 0.25964,1.38854 0.27094,0.57573 0.76765,0.89182 0.49671,0.3048 1.16276,0.3048 0.73378,0 1.24178,-0.37253 0.51929,-0.37254 0.75635,-1.02729 l 1.524,0.55315 q -0.4064,1.10631 -1.33209,1.74978 -0.9144,0.64347 -2.19004,0.64347 z m 4.52685,-0.19191 v -7.86837 h 1.61431 v 7.86837 z m 3.0367,0 v -7.86837 h 1.65947 l 3.54472,5.74605 h -0.41769 v -5.74605 h 1.6256 v 7.86837 h -1.67076 l -3.53342,-5.75734 h 0.4064 v 5.75734 z m 11.23246,0.19191 q -1.08373,0 -1.91911,-0.51929 -0.83538,-0.51929 -1.30951,-1.44498 -0.47414,-0.92569 -0.47414,-2.16747 0,-1.24178 0.47414,-2.15618 0.48542,-0.92569 1.34338,-1.44498 0.85795,-0.51929 1.98684,-0.51929 1.27565,0 2.19005,0.64347 0.92569,0.63218 1.33209,1.74978 l -1.524,0.55316 q -0.23707,-0.66605 -0.75636,-1.02729 -0.508,-0.37254 -1.24178,-0.37254 -0.66604,0 -1.16275,0.31609 -0.49672,0.3048 -0.76765,0.88054 -0.25964,0.57573 -0.25964,1.37724 0,0.80151 0.25964,1.38854 0.27093,0.57573 0.76765,0.89182 0.49671,0.3048 1.16275,0.3048 0.34996,0 0.7112,-0.1016 0.37254,-0.1016 0.67734,-0.33867 0.31609,-0.23706 0.508,-0.67733 0.19191,-0.45156 0.19191,-1.1176 v -0.41769 l 0.36124,1.12889 h -2.26907 v -1.44498 h 3.34152 v 4.32365 h -1.4224 l -0.22578,-1.19663 0.28222,0.22578 q -0.21449,0.37254 -0.55315,0.63218 -0.32738,0.25965 -0.76765,0.39511 -0.42898,0.13547 -0.93698,0.13547 z m 9.61814,-0.19191 v -6.42339 h -2.37067 v -1.44498 h 6.36694 v 1.44498 h -2.35938 v 6.42339 z m 7.82321,0.19191 q -1.524,0 -2.30293,-0.75636 -0.76765,-0.75635 -0.76765,-2.28036 v -5.02356 h 1.61432 v 4.84294 q 0,0.57574 0.11289,0.95956 0.11288,0.38382 0.42897,0.57573 0.32738,0.19191 0.9144,0.19191 0.58703,0 0.89183,-0.19191 0.31609,-0.19191 0.44026,-0.57573 0.12418,-0.38382 0.12418,-0.94827 v -4.85423 h 1.61432 v 4.96712 q 0,1.55787 -0.77894,2.32551 -0.77893,0.76765 -2.29165,0.76765 z m 4.42527,-0.19191 v -7.86837 h 2.68675 q 0.97085,0 1.55787,0.28223 0.59831,0.28222 0.86925,0.80151 0.28222,0.51929 0.28222,1.2192 0,1.1176 -0.64347,1.71591 -0.63218,0.59831 -1.79493,0.66605 -0.29351,0 -0.57574,0 -0.28222,0 -0.46284,0 h -0.3048 v 3.18347 z m 4.23333,0 -1.95298,-3.36409 1.65947,-0.19192 2.16747,3.55601 z m -2.61902,-4.62845 h 0.90311 q 0.32738,0 0.6096,-0.0677 0.29351,-0.0677 0.46285,-0.25964 0.18062,-0.2032 0.18062,-0.58702 0,-0.39511 -0.18062,-0.57574 -0.16934,-0.19191 -0.46285,-0.24835 -0.28222,-0.0564 -0.6096,-0.0564 h -0.90311 z m 5.32609,4.62845 v -7.86837 h 2.68676 q 0.97085,0 1.55787,0.28223 0.59831,0.28222 0.86924,0.80151 0.28223,0.51929 0.28223,1.2192 0,1.1176 -0.64347,1.71591 -0.63218,0.59831 -1.79494,0.66605 -0.29351,0 -0.57573,0 -0.28222,0 -0.46285,0 h -0.3048 v 3.18347 z m 4.23334,0 -1.95298,-3.36409 1.65947,-0.19192 2.16747,3.55601 z m -2.61903,-4.62845 h 0.90312 q 0.32737,0 0.6096,-0.0677 0.29351,-0.0677 0.46284,-0.25964 0.18062,-0.2032 0.18062,-0.58702 0,-0.39511 -0.18062,-0.57574 -0.16933,-0.19191 -0.46284,-0.24835 -0.28223,-0.0564 -0.6096,-0.0564 h -0.90312 z m 5.32611,4.62845 v -7.86837 h 5.26062 v 1.44498 h -3.64631 v 1.65947 h 3.43182 v 1.44498 h -3.43182 v 1.87396 h 3.64631 v 1.44498 z m 8.25219,0 v -6.42339 h -2.37067 v -1.44498 h 6.36694 v 1.44498 H 361.827 v 6.42339 z"
         id="path2" /><path
         d="m 256.10081,240.51338 v -7.86836 h 2.33681 q 1.96427,0 3.03671,1.03858 1.08374,1.03858 1.08374,2.95769 0,1.87396 -1.06116,2.87867 -1.06116,0.99342 -3.07058,0.99342 z m 1.61432,-1.47884 h 0.54186 q 0.84667,0 1.44498,-0.2032 0.59832,-0.21449 0.91441,-0.74507 0.31608,-0.53058 0.31608,-1.50143 0,-0.94826 -0.3048,-1.47884 -0.3048,-0.54187 -0.86924,-0.75636 -0.56445,-0.22578 -1.35467,-0.22578 h -0.68862 z m 5.96053,1.47884 v -7.86836 h 5.26063 V 234.09 h -3.64632 v 1.65947 h 3.43183 v 1.44498 h -3.43183 v 1.87395 h 3.64632 v 1.44498 z m 6.49113,0 v -7.86836 h 1.61431 v 6.42338 h 3.28507 v 1.44498 z m 5.72347,0 v -7.86836 h 1.61431 v 7.86836 z m 5.55413,0 -3.16089,-7.86836 h 1.78364 l 2.24649,5.88152 h -0.51929 l 2.20134,-5.88152 h 1.79494 l -3.14961,7.86836 z m 5.12516,0 v -7.86836 h 5.26063 V 234.09 h -3.64632 v 1.65947 h 3.43183 v 1.44498 h -3.43183 v 1.87395 h 3.64632 v 1.44498 z m 6.49113,0 v -7.86836 h 2.68675 q 0.97085,0 1.55787,0.28222 0.59831,0.28222 0.86925,0.80151 0.28222,0.51929 0.28222,1.2192 0,1.11761 -0.64347,1.71592 -0.63217,0.59831 -1.79493,0.66604 -0.29351,0 -0.57574,0 -0.28222,0 -0.46284,0 h -0.3048 v 3.18347 z m 4.23333,0 -1.95298,-3.36409 1.65947,-0.19191 2.16747,3.556 z m -2.61902,-4.62845 h 0.90311 q 0.32738,0 0.6096,-0.0677 0.29351,-0.0677 0.46285,-0.25965 0.18062,-0.2032 0.18062,-0.58702 0,-0.39511 -0.18062,-0.57573 -0.16934,-0.19191 -0.46285,-0.24836 -0.28222,-0.0564 -0.6096,-0.0564 h -0.90311 z m 6.88397,4.62845 v -3.09316 l -2.76578,-4.7752 h 1.85138 l 1.68204,3.17218 1.73849,-3.17218 h 1.84009 l -2.73191,4.7752 v 3.09316 z m 8.00383,0 v -7.86836 h 2.3368 q 1.96427,0 3.03671,1.03858 1.08374,1.03858 1.08374,2.95769 0,1.87396 -1.06116,2.87867 -1.06116,0.99342 -3.07058,0.99342 z m 1.61431,-1.47884 h 0.54187 q 0.84666,0 1.44498,-0.2032 0.59831,-0.21449 0.9144,-0.74507 0.31609,-0.53058 0.31609,-1.50143 0,-0.94826 -0.3048,-1.47884 -0.30481,-0.54187 -0.86925,-0.75636 -0.56445,-0.22578 -1.35467,-0.22578 h -0.68862 z m 8.96338,1.67075 q -1.524,0 -2.30293,-0.75635 -0.76765,-0.75636 -0.76765,-2.28036 v -5.02356 h 1.61431 v 4.84294 q 0,0.57573 0.11289,0.95955 0.11289,0.38383 0.42898,0.57574 0.32738,0.19191 0.9144,0.19191 0.58702,0 0.89182,-0.19191 0.31609,-0.19191 0.44027,-0.57574 0.12418,-0.38382 0.12418,-0.94826 v -4.85423 h 1.61431 v 4.96711 q 0,1.55787 -0.77893,2.32552 -0.77894,0.76764 -2.29165,0.76764 z m 4.42526,-0.19191 v -7.86836 h 2.68676 q 1.34338,0 2.02071,0.57573 0.68863,0.56445 0.68863,1.71592 0,1.16275 -0.69991,1.77235 -0.68863,0.59831 -2.00943,0.59831 h -1.08373 v 3.20605 z m 1.60303,-4.65102 h 0.9144 q 0.59831,0 0.92569,-0.19192 0.32738,-0.19191 0.32738,-0.7112 0,-0.49671 -0.31609,-0.67733 -0.3048,-0.19191 -0.93698,-0.19191 h -0.9144 z m 4.7639,4.65102 v -7.86836 h 1.61431 v 6.42338 h 3.28507 v 1.44498 z m 5.72347,0 v -7.86836 h 1.61432 v 7.86836 z m 6.53627,0.19191 q -1.12889,0 -1.98685,-0.51929 -0.85796,-0.51929 -1.34338,-1.44498 -0.47413,-0.92569 -0.47413,-2.16746 0,-1.24178 0.47413,-2.15618 0.48542,-0.92569 1.34338,-1.44498 0.85796,-0.51929 1.98685,-0.51929 1.27564,0 2.19004,0.64346 0.92569,0.63218 1.33209,1.74978 l -1.524,0.55316 q -0.23706,-0.66605 -0.75635,-1.02729 -0.508,-0.37253 -1.24178,-0.37253 -0.66605,0 -1.16276,0.31609 -0.49671,0.3048 -0.76764,0.88053 -0.25965,0.57573 -0.25965,1.37725 0,0.80151 0.25965,1.38853 0.27093,0.57573 0.76764,0.89182 0.49671,0.3048 1.16276,0.3048 0.73378,0 1.24178,-0.37253 0.51929,-0.37253 0.75635,-1.02729 l 1.524,0.55316 q -0.4064,1.10631 -1.33209,1.74978 -0.9144,0.64346 -2.19004,0.64346 z m 3.74114,-0.19191 3.21733,-7.86836 h 1.19663 l 3.21733,7.86836 h -1.76107 l -2.04329,-5.47511 -2.06587,5.47511 z m 2.21262,-1.43369 0.508,-1.44498 h 2.20134 l 0.51929,1.44498 z m 6.89303,1.43369 V 234.09 h -2.37067 v -1.44498 h 6.36694 V 234.09 h -2.35938 v 6.42338 z m 4.82036,0 v -7.86836 h 1.61431 v 7.86836 z m 6.53626,0.19191 q -1.12889,0 -1.98684,-0.51929 -0.85796,-0.51929 -1.34338,-1.44498 -0.47414,-0.92569 -0.47414,-2.15618 0,-1.24177 0.47414,-2.16746 0.48542,-0.92569 1.34338,-1.44498 0.85795,-0.51929 1.98684,-0.51929 1.14018,0 1.99814,0.51929 0.85795,0.508 1.33209,1.43369 0.48542,0.92569 0.48542,2.17875 0,1.24178 -0.48542,2.16747 -0.48542,0.92569 -1.34338,1.44498 -0.85796,0.508 -1.98685,0.508 z m 0,-1.54658 q 0.67734,0 1.16276,-0.31609 0.48542,-0.31608 0.75636,-0.89182 0.27093,-0.58702 0.27093,-1.36596 0,-0.79022 -0.27093,-1.36595 -0.27094,-0.58703 -0.75636,-0.90311 -0.48542,-0.31609 -1.17405,-0.31609 -0.65475,0 -1.15146,0.31609 -0.49672,0.3048 -0.76765,0.88053 -0.25964,0.57573 -0.25964,1.38853 0,0.80152 0.25964,1.37725 0.27093,0.57573 0.76765,0.89182 0.49671,0.3048 1.16275,0.3048 z m 4.93325,1.35467 v -7.86836 h 1.65947 l 3.54471,5.74605 h -0.41769 v -5.74605 h 1.62561 v 7.86836 h -1.67076 l -3.53343,-5.75734 h 0.4064 v 5.75734 z"
         id="path3" /></g></g></svg>
