<?xml version="1.0" encoding="UTF-8" standalone="no"?>
<!-- Created with Inkscape (http://www.inkscape.org/) -->

<svg
   width="1920"
   height="1080"
   viewBox="0 0 507.99999 285.75"
   version="1.1"
   id="svg1"
   xml:space="preserve"
   sodipodi:docname="selectionScreenFreighter.svg"
   inkscape:version="1.4.2 (ebf0e940d0, 2025-05-08)"
   xmlns:inkscape="http://www.inkscape.org/namespaces/inkscape"
   xmlns:sodipodi="http://sodipodi.sourceforge.net/DTD/sodipodi-0.dtd"
   xmlns="http://www.w3.org/2000/svg"
   xmlns:svg="http://www.w3.org/2000/svg"><sodipodi:namedview
     id="namedview1"
     pagecolor="#ffffff"
     bordercolor="#000000"
     borderopacity="0.25"
     inkscape:showpageshadow="2"
     inkscape:pageopacity="0.0"
     inkscape:pagecheckerboard="0"
     inkscape:deskcolor="#d1d1d1"
     inkscape:zoom="0.72592593"
     inkscape:cx="960.15306"
     inkscape:cy="540"
     inkscape:window-width="1920"
     inkscape:window-height="1002"
     inkscape:window-x="0"
     inkscape:window-y="0"
     inkscape:window-maximized="1"
     inkscape:current-layer="svg1" /><defs
     id="defs1"><linearGradient
       id="swatch2"><stop
         style="stop-color:#000000;stop-opacity:1;"
         offset="0"
         id="stop2" /></linearGradient></defs><g
     id="layer1"><path
       d="m 279.19747,88.036967 v 1.929252 h -6.13915 v 1.584743 h 5.80153 v 1.929252 h -5.80153 v 2.831866 h -2.52181 v -8.275113 z m 8.59206,0 q 0.51677,0 1.02664,0.05512 1.15755,0.117133 1.57785,0.840603 0.17226,0.296278 0.23427,0.578775 0.12402,0.592556 0.13091,1.233343 0,1.026638 -0.28249,1.543402 -0.27561,0.509874 -1.30225,0.813042 v 0 q 1.04731,0.289388 1.29536,0.709689 0.24804,0.413411 0.24804,1.48828 v 1.012857 h -2.52181 l -0.0207,-0.76481 q 0,-0.785481 -0.18603,-1.019748 -0.20671,-0.275607 -0.97841,-0.268717 h -4.0032 v 2.053275 h -2.5218 v -8.275113 z m -4.78179,2.135958 v 1.949923 h 3.52778 q 0.37207,0.0069 0.79926,-0.01378 0.31695,-0.0069 0.52366,-0.09646 0.37207,-0.172255 0.37896,-0.895725 0.007,-0.502983 -0.26183,-0.737249 -0.19293,-0.179145 -0.76481,-0.186035 l -0.73725,-0.02067 z m 9.51535,-2.135958 h 9.10194 v 1.929252 h -6.58013 v 1.129991 h 6.21495 v 1.791448 h -6.21495 v 1.49517 h 6.65592 v 1.929252 h -9.17773 z m 11.12076,0 h 2.52181 v 8.275113 h -2.52181 z m 12.42989,2.873208 q -0.0413,-0.778591 -0.78548,-0.813042 -0.4203,-0.02067 -1.70187,-0.02067 l -1.57096,0.0069 q -0.79238,0.01378 -1.12999,0.241156 -0.38586,0.261827 -0.4272,1.033528 -0.0276,0.454752 -0.0276,0.888834 -0.007,0.564995 0.0551,1.019747 0.0965,0.895724 0.82683,0.964626 0.31005,0.04134 0.95084,0.04134 h 1.00597 l 1.71566,-0.0069 q 1.14377,-0.0069 1.16444,-0.74414 v -0.268717 h -3.14193 v -1.688096 h 5.66373 v 0.296278 q 0,2.122178 -0.0758,2.666502 -0.0827,0.592556 -0.55121,1.10932 -0.41341,0.454752 -1.08865,0.578776 -0.4203,0.08957 -0.93018,0.117133 -1.09554,0.08268 -2.94211,0.07579 l -1.75699,-0.01378 q -1.1231,-0.01378 -1.65365,-0.172255 -0.89572,-0.261827 -1.29535,-0.985297 -0.38585,-0.654567 -0.43408,-1.901691 -0.0345,-0.992187 -0.0345,-1.984373 -0.007,-0.420302 0.007,-0.613227 0.007,-0.475423 0.17914,-0.978406 0.45475,-1.412488 2.12907,-1.681205 0.52365,-0.08957 0.89572,-0.103353 0.64768,-0.02756 2.08084,-0.03445 1.81212,0 2.74229,0.02756 2.60449,0.06201 2.65272,2.384004 v 0.558105 z m 4.18924,-2.873208 h 2.5218 v 3.093694 h 5.60862 v -3.093694 h 2.5218 v 8.275113 h -2.5218 v -3.045462 h -5.60862 v 3.045462 h -2.5218 z m 21.67652,0 v 2.135958 h -3.62424 v 6.139155 h -2.52181 v -6.139155 h -3.62423 v -2.135958 z m 1.28846,0 h 9.10194 v 1.929252 h -6.58013 v 1.129991 h 6.21495 v 1.791448 h -6.21495 v 1.49517 h 6.65592 v 1.929252 h -9.17773 z m 18.26589,0 q 0.51676,0 1.02664,0.05512 1.15755,0.117133 1.57785,0.840603 0.17225,0.296278 0.23426,0.578775 0.12403,0.592556 0.13092,1.233343 0,1.026638 -0.2825,1.543402 -0.27561,0.509874 -1.30224,0.813042 v 0 q 1.0473,0.289388 1.29535,0.709689 0.24805,0.413411 0.24805,1.48828 v 1.012857 h -2.52181 l -0.0207,-0.76481 q 0,-0.785481 -0.18604,-1.019748 -0.2067,-0.275607 -0.9784,-0.268717 h -4.0032 v 2.053275 h -2.52181 v -8.275113 z m -4.78179,2.135958 v 1.949923 h 3.52777 q 0.37207,0.0069 0.79927,-0.01378 0.31694,-0.0069 0.52365,-0.09646 0.37207,-0.172255 0.37896,-0.895725 0.007,-0.502983 -0.26183,-0.737249 -0.19292,-0.179145 -0.76481,-0.186035 l -0.73725,-0.02067 z"
       id="text12"
       style="font-size:14.1111px;font-family:'Microstyle Bold Extended ATT';-inkscape-font-specification:'Microstyle Bold Extended ATT, Normal';fill:#e4ff3a;stroke-width:2"
       aria-label="FREIGHTER" /></g></svg>
