<?xml version="1.0" encoding="UTF-8" standalone="no"?>
<!-- Created with Inkscape (http://www.inkscape.org/) -->

<svg
   width="1920"
   height="1080"
   viewBox="0 0 507.99999 285.75"
   version="1.1"
   id="svg1"
   sodipodi:docname="mainMenuSettings.svg"
   inkscape:version="1.4.2 (ebf0e940d0, 2025-05-08)"
   xmlns:inkscape="http://www.inkscape.org/namespaces/inkscape"
   xmlns:sodipodi="http://sodipodi.sourceforge.net/DTD/sodipodi-0.dtd"
   xmlns="http://www.w3.org/2000/svg"
   xmlns:svg="http://www.w3.org/2000/svg">
  <sodipodi:namedview
     id="namedview1"
     pagecolor="#ffffff"
     bordercolor="#000000"
     borderopacity="0.25"
     inkscape:showpageshadow="2"
     inkscape:pageopacity="0.0"
     inkscape:pagecheckerboard="0"
     inkscape:deskcolor="#d1d1d1"
     inkscape:zoom="0.72592593"
     inkscape:cx="1195.0255"
     inkscape:cy="538.62245"
     inkscape:window-width="1920"
     inkscape:window-height="1002"
     inkscape:window-x="0"
     inkscape:window-y="0"
     inkscape:window-maximized="1"
     inkscape:current-layer="svg1" />
  <defs
     id="defs1">
    <linearGradient
       id="swatch2">
      <stop
         style="stop-color:#000000;stop-opacity:1;"
         offset="0"
         id="stop2" />
    </linearGradient>
  </defs>
  <g
     id="layer1">
    <g
       id="g136"
       transform="translate(-1.9014074,-13.164644)">
      <path
         style="font-variation-settings:'wght' 800;display:inline;fill:#3a3a3a;fill-opacity:1;stroke:none;stroke-width:1.32292;stroke-dasharray:none;stroke-opacity:1"
         id="use94"
         width="104.775"
         height="116.87083"
         x="216.42917"
         y="35"
         transform="matrix(0.76136582,0,0,0.9005148,226.73221,71.89967)"
         d="m 219.075,35 99.48334,0 a 2.6458333,2.6458333 45 0 1 2.64583,2.645833 v 95.439577 a 6.3876066,6.3876066 112.5 0 1 -1.87089,4.51672 l -12.39781,12.39781 a 6.3876066,6.3876066 157.5 0 1 -4.51672,1.87089 H 219.075 a 2.6458333,2.6458333 45 0 1 -2.64583,-2.64584 V 37.645833 A 2.6458333,2.6458333 135 0 1 219.075,35 Z" />
      <path
         style="font-size:9.87778px;font-family:'Hanken Grotesk';-inkscape-font-specification:'Hanken Grotesk, @wght=800';font-variation-settings:'wght' 800;fill:#e4ff3a;stroke-width:4.68727"
         d="m 409.78259,146.4557 q -1.12607,0 -1.84715,-0.58279 -0.7112,-0.58279 -0.86924,-1.55081 l 1.38289,-0.34572 q 0.10865,0.61242 0.47413,0.91863 0.36548,0.30621 0.90876,0.30621 0.27658,0 0.50376,-0.0889 0.22719,-0.0988 0.3556,-0.27657 0.12842,-0.1778 0.12842,-0.42475 0,-0.22719 -0.13829,-0.39511 -0.12841,-0.1778 -0.41487,-0.32597 -0.28646,-0.14816 -0.73096,-0.31609 -0.67169,-0.2667 -1.11619,-0.56303 -0.4445,-0.30621 -0.66181,-0.70132 -0.20743,-0.39511 -0.20743,-0.91863 0,-0.56304 0.27658,-0.99766 0.27658,-0.43462 0.77046,-0.68157 0.50377,-0.24694 1.16558,-0.24694 0.7112,0 1.25448,0.32597 0.54328,0.32596 0.87912,0.9779 l -1.12606,0.68156 q -0.19756,-0.3556 -0.46426,-0.54328 -0.2667,-0.18767 -0.59267,-0.18767 -0.20743,0 -0.37535,0.079 -0.16792,0.079 -0.27658,0.22719 -0.0988,0.14816 -0.0988,0.33584 0,0.19756 0.11854,0.36548 0.11853,0.15804 0.40498,0.31609 0.29634,0.15804 0.78035,0.34572 0.65193,0.23707 1.07668,0.5334 0.43462,0.28646 0.65193,0.67169 0.22719,0.38523 0.22719,0.92851 0,0.6223 -0.30621,1.10631 -0.30621,0.48401 -0.85937,0.76059 -0.54328,0.2667 -1.27423,0.2667 z m 3.38808,-0.13829 v -6.88481 h 4.60305 v 1.26436 h -3.19053 v 1.45203 h 3.00285 v 1.26436 h -3.00285 v 1.63971 h 3.19053 v 1.26435 z m 7.22067,0 v -5.62045 H 418.317 v -1.26436 h 5.57107 v 1.26436 h -2.06446 v 5.62045 z m 5.75874,0 v -5.62045 h -2.07433 v -1.26436 h 5.57107 v 1.26436 h -2.06446 v 5.62045 z m 4.21782,0 v -6.88481 h 1.41252 v 6.88481 z m 2.65711,0 v -6.88481 h 1.45204 l 3.10162,5.02779 h -0.36548 v -5.02779 h 1.4224 v 6.88481 h -1.46191 l -3.09175,-5.03766 h 0.3556 v 5.03766 z m 9.82839,0.16793 q -0.94826,0 -1.67922,-0.45438 -0.73095,-0.45438 -1.14582,-1.26436 -0.41487,-0.80998 -0.41487,-1.89653 0,-1.08656 0.41487,-1.88666 0.42474,-0.80998 1.17546,-1.26435 0.75071,-0.45438 1.73848,-0.45438 1.11619,0 1.91629,0.56303 0.80998,0.55316 1.16558,1.53106 l -1.3335,0.48401 q -0.20743,-0.58279 -0.66181,-0.89888 -0.4445,-0.32597 -1.08656,-0.32597 -0.58278,0 -1.01741,0.27658 -0.43462,0.2667 -0.67169,0.77047 -0.22718,0.50377 -0.22718,1.20509 0,0.70132 0.22718,1.21497 0.23707,0.50376 0.67169,0.78034 0.43463,0.2667 1.01741,0.2667 0.30622,0 0.6223,-0.0889 0.32597,-0.0889 0.59267,-0.29633 0.27658,-0.20744 0.4445,-0.59267 0.16792,-0.39511 0.16792,-0.9779 v -0.36548 l 0.31609,0.98778 h -1.98543 v -1.26436 h 2.92382 v 3.78319 h -1.2446 l -0.19755,-1.04704 0.24694,0.19755 q -0.18768,0.32597 -0.48401,0.55316 -0.28646,0.22719 -0.67169,0.34572 -0.37536,0.11854 -0.81986,0.11854 z m 6.63787,-0.0296 q -1.12607,0 -1.84715,-0.58279 -0.7112,-0.58279 -0.86924,-1.55081 l 1.38289,-0.34572 q 0.10865,0.61242 0.47413,0.91863 0.36548,0.30621 0.90876,0.30621 0.27657,0 0.50376,-0.0889 0.22719,-0.0988 0.3556,-0.27657 0.12841,-0.1778 0.12841,-0.42475 0,-0.22719 -0.13828,-0.39511 -0.12842,-0.1778 -0.41487,-0.32597 -0.28646,-0.14816 -0.73096,-0.31609 -0.67169,-0.2667 -1.11619,-0.56303 -0.4445,-0.30621 -0.66181,-0.70132 -0.20743,-0.39511 -0.20743,-0.91863 0,-0.56304 0.27658,-0.99766 0.27657,-0.43462 0.77046,-0.68157 0.50377,-0.24694 1.16558,-0.24694 0.7112,0 1.25448,0.32597 0.54328,0.32596 0.87912,0.9779 l -1.12606,0.68156 q -0.19756,-0.3556 -0.46426,-0.54328 -0.2667,-0.18767 -0.59267,-0.18767 -0.20743,0 -0.37535,0.079 -0.16792,0.079 -0.27658,0.22719 -0.0988,0.14816 -0.0988,0.33584 0,0.19756 0.11854,0.36548 0.11853,0.15804 0.40498,0.31609 0.29634,0.15804 0.78035,0.34572 0.65193,0.23707 1.07668,0.5334 0.43462,0.28646 0.65193,0.67169 0.22719,0.38523 0.22719,0.92851 0,0.6223 -0.30621,1.10631 -0.30621,0.48401 -0.85937,0.76059 -0.54328,0.2667 -1.27423,0.2667 z"
         id="text1-8-5-0-1-5-4"
         aria-label="SETTINGS" />
      <path
         id="path107"
         style="font-variation-settings:'wght' 800;fill:#e4ff3a;fill-opacity:1;stroke:none;stroke-width:1.07894;stroke-dasharray:none;stroke-opacity:1"
         d="m 427.69939,152.32421 v 1.84643 a 9.3552339,9.3552339 0 0 0 -3.42002,1.41641 l -1.30587,-1.3055 -2.54454,2.54454 1.30551,1.3055 a 9.3552339,9.3552339 0 0 0 -1.41641,3.42038 h -1.84644 v 3.5985 h 1.84644 a 9.3552339,9.3552339 0 0 0 1.41641,3.42038 l -1.30551,1.30551 2.54454,2.54454 1.30551,-1.30551 a 9.3552339,9.3552339 0 0 0 3.42038,1.41641 v 1.84644 h 3.59849 v -1.84644 a 9.3552339,9.3552339 0 0 0 3.42002,-1.41641 l 1.30587,1.30551 2.54454,-2.54454 -1.3055,-1.30588 a 9.3552339,9.3552339 0 0 0 1.41641,-3.42001 h 1.84643 v -3.5985 h -1.84643 a 9.3552339,9.3552339 0 0 0 -1.41641,-3.42038 l 1.3055,-1.3055 -2.54454,-2.54454 -1.30587,1.3055 a 9.3552339,9.3552339 0 0 0 -3.42002,-1.41641 v -1.84643 z m 1.79943,7.13051 a 3.8968048,3.8968048 0 0 1 3.89668,3.89669 3.8968048,3.8968048 0 0 1 -3.89668,3.89668 3.8968048,3.8968048 0 0 1 -3.89668,-3.89668 3.8968048,3.8968048 0 0 1 3.89668,-3.89669 z" />
    </g>
  </g>
</svg>
