<?xml version="1.0" encoding="UTF-8" standalone="no"?>
<!-- Created with Inkscape (http://www.inkscape.org/) -->

<svg
   width="1920"
   height="1080"
   viewBox="0 0 507.99999 285.75"
   version="1.1"
   id="svg1"
   sodipodi:docname="manualManual.svg"
   inkscape:version="1.4.2 (ebf0e940d0, 2025-05-08)"
   xmlns:inkscape="http://www.inkscape.org/namespaces/inkscape"
   xmlns:sodipodi="http://sodipodi.sourceforge.net/DTD/sodipodi-0.dtd"
   xmlns="http://www.w3.org/2000/svg"
   xmlns:svg="http://www.w3.org/2000/svg">
  <sodipodi:namedview
     id="namedview1"
     pagecolor="#ffffff"
     bordercolor="#000000"
     borderopacity="0.25"
     inkscape:showpageshadow="2"
     inkscape:pageopacity="0.0"
     inkscape:pagecheckerboard="0"
     inkscape:deskcolor="#d1d1d1"
     inkscape:zoom="0.72592593"
     inkscape:cx="789.33673"
     inkscape:cy="449.08163"
     inkscape:window-width="1920"
     inkscape:window-height="1002"
     inkscape:window-x="0"
     inkscape:window-y="0"
     inkscape:window-maximized="1"
     inkscape:current-layer="svg1" />
  <defs
     id="defs1" />
  <g
     id="layer1">
    <path
       style="font-size:7.05556px;font-family:'Hanken Grotesk';-inkscape-font-specification:'Hanken Grotesk, @wght=800';font-variation-settings:'wght' 800;fill:#e4ff3a;stroke-width:4.68727"
       d="M 239.90721,22.453945 V 17.53622 h 1.47461 l 1.21356,3.46428 h -0.18345 l 1.21356,-3.46428 h 1.47461 v 4.917725 h -1.00895 v -3.732391 l 0.0917,0.01411 -1.18534,3.280835 h -0.98072 l -1.19239,-3.280835 0.0917,-0.01411 v 3.732391 z m 5.67266,0 2.01084,-4.917725 h 0.74789 l 2.01083,4.917725 h -1.10066 l -1.27706,-3.421946 -1.29117,3.421946 z m 1.38289,-0.896056 0.3175,-0.903112 h 1.37584 l 0.32455,0.903112 z m 3.86646,0.896056 V 17.53622 h 1.03716 l 2.21545,3.59128 h -0.26106 v -3.59128 h 1.016 v 4.917725 h -1.04422 l -2.20839,-3.598335 h 0.254 v 3.598335 z m 6.77334,0.119945 q -0.9525,0 -1.43934,-0.472723 -0.47978,-0.472722 -0.47978,-1.425223 V 17.53622 h 1.00895 v 3.026835 q 0,0.359834 0.0706,0.599723 0.0706,0.239889 0.26812,0.359833 0.20461,0.119945 0.5715,0.119945 0.36689,0 0.55739,-0.119945 0.19755,-0.119944 0.27516,-0.359833 0.0776,-0.239889 0.0776,-0.592667 V 17.53622 h 1.00895 v 3.104446 q 0,0.973668 -0.48684,1.453446 -0.48683,0.479778 -1.43227,0.479778 z m 2.17876,-0.119945 2.01084,-4.917725 h 0.74789 l 2.01083,4.917725 h -1.10067 l -1.27705,-3.421946 -1.29117,3.421946 z m 1.38289,-0.896056 0.3175,-0.903112 h 1.37584 l 0.32455,0.903112 z m 3.86645,0.896056 V 17.53622 h 1.00895 v 4.014613 h 2.05317 v 0.903112 z"
       id="text1-8-5-3"
       aria-label="MANUAL" />
  </g>
</svg>
