<?xml version="1.0" encoding="UTF-8" standalone="no"?>
<!-- Created with Inkscape (http://www.inkscape.org/) -->

<svg
   width="1920"
   height="1080"
   viewBox="0 0 507.99999 285.75"
   version="1.1"
   id="svg1"
   sodipodi:docname="titleScreenStart.svg"
   inkscape:version="1.4.2 (ebf0e940d0, 2025-05-08)"
   xmlns:inkscape="http://www.inkscape.org/namespaces/inkscape"
   xmlns:sodipodi="http://sodipodi.sourceforge.net/DTD/sodipodi-0.dtd"
   xmlns="http://www.w3.org/2000/svg"
   xmlns:svg="http://www.w3.org/2000/svg">
  <sodipodi:namedview
     id="namedview1"
     pagecolor="#ffffff"
     bordercolor="#000000"
     borderopacity="0.25"
     inkscape:showpageshadow="2"
     inkscape:pageopacity="0.0"
     inkscape:pagecheckerboard="0"
     inkscape:deskcolor="#d1d1d1"
     inkscape:zoom="0.72592593"
     inkscape:cx="959.46429"
     inkscape:cy="650.20408"
     inkscape:window-width="1920"
     inkscape:window-height="1002"
     inkscape:window-x="0"
     inkscape:window-y="0"
     inkscape:window-maximized="1"
     inkscape:current-layer="svg1" />
  <defs
     id="defs1">
    <linearGradient
       id="swatch2">
      <stop
         style="stop-color:#000000;stop-opacity:1;"
         offset="0"
         id="stop2" />
    </linearGradient>
  </defs>
  <g
     id="layer1">
    <g
       id="g35">
      <path
         d="m 174.77076,187.39517 v -11.80251 h 4.03013 q 2.01506,0 3.03106,0.8636 1.03293,0.84667 1.03293,2.57386 0,1.74413 -1.04987,2.65853 -1.03293,0.89746 -3.01412,0.89746 h -1.6256 v 4.80906 z m 2.40453,-6.97652 h 1.3716 q 0.89746,0 1.38853,-0.28786 0.49106,-0.28787 0.49106,-1.0668 0,-0.74507 -0.47413,-1.016 -0.4572,-0.28787 -1.40546,-0.28787 h -1.3716 z m 7.06117,6.97652 v -8.34811 h 2.3368 v 2.26906 l -0.32173,0.0169 q 0.0508,-0.7112 0.40639,-1.27 0.37254,-0.5588 0.93134,-0.8636 0.5588,-0.32173 1.15146,-0.32173 0.42333,0 0.8128,0.11854 0.38947,0.11853 0.82973,0.38946 l -1.1176,2.09973 q -0.18626,-0.11853 -0.49106,-0.2032 -0.28787,-0.1016 -0.59267,-0.1016 -0.3048,0 -0.59266,0.11853 -0.28787,0.11854 -0.508,0.3556 -0.22014,0.22014 -0.3556,0.59267 -0.0847,0.23707 -0.13547,0.6096 -0.0339,0.3556 -0.0339,1.0668 v 3.47132 z m 10.69169,0.16934 q -1.1176,0 -1.9304,-0.3556 -0.79586,-0.3556 -1.30386,-0.9652 -0.49107,-0.6096 -0.72813,-1.3716 -0.22013,-0.77893 -0.22013,-1.60866 0,-0.79587 0.22013,-1.5748 0.23706,-0.77893 0.7112,-1.40546 0.47413,-0.64347 1.25306,-1.016 0.77893,-0.38947 1.86266,-0.38947 0.9652,0 1.69333,0.33867 0.74507,0.32173 1.23613,0.9144 0.49107,0.57573 0.72814,1.37159 0.254,0.79587 0.254,1.71027 0,0.1524 -0.0169,0.3556 0,0.2032 -0.0339,0.4572 h -5.58799 q 0.1016,0.77893 0.6604,1.16839 0.5588,0.37254 1.33773,0.37254 0.62653,0 1.25306,-0.22014 0.62653,-0.22013 1.10067,-0.62653 l 1.06679,1.6256 q -0.62653,0.44026 -1.16839,0.7112 -0.52494,0.27093 -1.10067,0.38946 -0.5588,0.11854 -1.28693,0.11854 z m 1.49013,-4.70746 q 0.0339,-0.13547 0.0508,-0.27094 0.0339,-0.13546 0.0339,-0.25399 0,-0.33867 -0.13547,-0.6096 -0.11853,-0.28787 -0.33867,-0.49107 -0.22013,-0.2032 -0.52493,-0.3048 -0.3048,-0.11853 -0.67733,-0.11853 -0.59266,0 -0.98213,0.23706 -0.37253,0.22014 -0.57573,0.5588 -0.18627,0.33867 -0.23707,0.69427 h 4.16559 z m 6.82412,4.70746 q -0.94827,0 -1.65946,-0.27094 -0.7112,-0.27093 -1.18534,-0.6604 -0.47413,-0.4064 -0.77893,-0.74506 l 1.59173,-1.38853 q 0.28787,0.42333 0.77893,0.8128 0.508,0.38946 1.27,0.38946 0.5588,0 0.8636,-0.22013 0.32173,-0.22013 0.32173,-0.508 0,-0.27093 -0.2032,-0.42333 -0.2032,-0.16934 -0.54186,-0.28787 -0.33867,-0.11853 -0.762,-0.23706 -0.47413,-0.11854 -0.98213,-0.28787 -0.508,-0.18627 -0.94827,-0.47413 -0.44026,-0.28787 -0.7112,-0.72813 -0.27093,-0.4572 -0.27093,-1.13454 0,-1.13453 0.88053,-1.82879 0.89747,-0.69427 2.3368,-0.69427 1.016,0 1.84573,0.38947 0.82973,0.38946 1.3208,1.13453 l -1.43933,1.13453 q -0.3048,-0.44027 -0.77894,-0.67733 -0.47413,-0.254 -0.99906,-0.254 -0.44027,0 -0.72813,0.16933 -0.27094,0.1524 -0.27094,0.4064 0,0.18627 0.13547,0.32173 0.13547,0.11854 0.44027,0.22014 0.3048,0.1016 0.82973,0.23706 0.49106,0.11854 1.03293,0.28787 0.54187,0.16933 1.016,0.47413 0.49106,0.28787 0.77893,0.77893 0.3048,0.47414 0.3048,1.20227 0,0.84666 -0.44027,1.50706 -0.42333,0.64347 -1.21919,0.99907 -0.77894,0.3556 -1.8288,0.3556 z m 7.99252,0 q -0.94827,0 -1.65946,-0.27094 -0.7112,-0.27093 -1.18534,-0.6604 -0.47413,-0.4064 -0.77893,-0.74506 l 1.59173,-1.38853 q 0.28787,0.42333 0.77893,0.8128 0.508,0.38946 1.27,0.38946 0.5588,0 0.8636,-0.22013 0.32173,-0.22013 0.32173,-0.508 0,-0.27093 -0.2032,-0.42333 -0.2032,-0.16934 -0.54186,-0.28787 -0.33867,-0.11853 -0.762,-0.23706 -0.47413,-0.11854 -0.98213,-0.28787 -0.508,-0.18627 -0.94827,-0.47413 -0.44026,-0.28787 -0.7112,-0.72813 -0.27093,-0.4572 -0.27093,-1.13454 0,-1.13453 0.88053,-1.82879 0.89747,-0.69427 2.3368,-0.69427 1.016,0 1.84573,0.38947 0.82973,0.38946 1.3208,1.13453 l -1.43933,1.13453 q -0.3048,-0.44027 -0.77894,-0.67733 -0.47413,-0.254 -0.99906,-0.254 -0.44027,0 -0.72813,0.16933 -0.27094,0.1524 -0.27094,0.4064 0,0.18627 0.13547,0.32173 0.13547,0.11854 0.44027,0.22014 0.3048,0.1016 0.82973,0.23706 0.49106,0.11854 1.03293,0.28787 0.54186,0.16933 1.016,0.47413 0.49106,0.28787 0.77893,0.77893 0.3048,0.47414 0.3048,1.20227 0,0.84666 -0.44027,1.50706 -0.42333,0.64347 -1.2192,0.99907 -0.77893,0.3556 -1.82879,0.3556 z m 13.54664,0.0677 q -1.93039,0 -3.16652,-0.99907 -1.2192,-0.99906 -1.49013,-2.65852 l 2.37066,-0.59267 q 0.18626,1.04986 0.8128,1.5748 0.62653,0.52493 1.55786,0.52493 0.47413,0 0.8636,-0.1524 0.38946,-0.16933 0.6096,-0.47413 0.22013,-0.3048 0.22013,-0.72813 0,-0.38947 -0.23707,-0.67734 -0.22013,-0.3048 -0.7112,-0.5588 -0.49106,-0.254 -1.25306,-0.54186 -1.15146,-0.4572 -1.91346,-0.9652 -0.762,-0.52493 -1.13453,-1.20226 -0.3556,-0.67734 -0.3556,-1.5748 0,-0.9652 0.47413,-1.71026 0.47413,-0.74507 1.3208,-1.1684 0.86359,-0.42333 1.99813,-0.42333 1.21919,0 2.15053,0.55879 0.93133,0.5588 1.50706,1.6764 l -1.9304,1.1684 q -0.33866,-0.6096 -0.79586,-0.93133 -0.4572,-0.32173 -1.016,-0.32173 -0.3556,0 -0.64347,0.13546 -0.28786,0.13547 -0.47413,0.38947 -0.16933,0.254 -0.16933,0.57573 0,0.33867 0.2032,0.62653 0.2032,0.27093 0.69426,0.54187 0.508,0.27093 1.33773,0.59266 1.1176,0.4064 1.84573,0.9144 0.74507,0.49107 1.1176,1.15147 0.38947,0.66039 0.38947,1.59173 0,1.06679 -0.52493,1.89653 -0.52494,0.82973 -1.4732,1.30386 -0.93133,0.4572 -2.1844,0.4572 z m 5.80813,-0.23707 v -11.80251 h 4.03013 q 2.01506,0 3.03106,0.8636 1.03293,0.84667 1.03293,2.57386 0,1.74413 -1.04986,2.65853 -1.03293,0.89746 -3.01413,0.89746 h -1.6256 v 4.80906 z m 2.40453,-6.97652 h 1.3716 q 0.89746,0 1.38853,-0.28786 0.49107,-0.28787 0.49107,-1.0668 0,-0.74507 -0.47414,-1.016 -0.4572,-0.28787 -1.40546,-0.28787 h -1.3716 z m 4.7244,6.97652 4.82599,-11.80251 h 1.79493 l 4.82599,11.80251 h -2.6416 l -3.06493,-8.21265 -3.09879,8.21265 z m 3.31892,-2.15053 0.762,-2.16746 h 3.30199 l 0.77894,2.16746 z m 13.97675,2.4384 q -1.69333,0 -2.98026,-0.77893 -1.28693,-0.77894 -2.01506,-2.16747 -0.7112,-1.38853 -0.7112,-3.25119 0,-1.86266 0.7112,-3.23426 0.72813,-1.38853 2.01506,-2.16746 1.28693,-0.77893 2.98026,-0.77893 1.91347,0 3.28506,0.96519 1.38854,0.94827 1.99813,2.62467 l -2.28599,0.82973 q -0.3556,-0.99907 -1.13453,-1.54093 -0.762,-0.5588 -1.86267,-0.5588 -0.99906,0 -1.74413,0.47413 -0.74506,0.4572 -1.15146,1.3208 -0.38947,0.8636 -0.38947,2.06586 0,1.20226 0.38947,2.0828 0.4064,0.86359 1.15146,1.33773 0.74507,0.4572 1.74413,0.4572 1.10067,0 1.86267,-0.5588 0.77893,-0.5588 1.13453,-1.54093 l 2.28599,0.82973 q -0.60959,1.65946 -1.99813,2.62466 -1.37159,0.9652 -3.28506,0.9652 z m 6.79027,-0.28787 v -11.80251 h 7.89092 v 2.16746 h -5.46946 v 2.4892 h 5.14773 v 2.16746 h -5.14773 v 2.81093 h 5.46946 v 2.16746 z m 17.35665,0.16934 q -0.69427,0 -1.30387,-0.254 -0.6096,-0.27094 -0.98213,-0.8636 -0.37253,-0.59267 -0.37253,-1.60867 v -7.63691 l 2.35373,-1.25307 v 8.22959 q 0,0.74506 0.18626,1.11759 0.2032,0.37254 0.762,0.37254 0.16934,0 0.37254,-0.0339 0.22013,-0.0339 0.45719,-0.1016 v 1.778 q -0.35559,0.13546 -0.72813,0.18626 -0.3556,0.0677 -0.74506,0.0677 z m -4.11479,-6.70559 v -1.81186 h 5.58798 v 1.81186 z m 10.83731,6.70559 q -1.21919,0 -2.18439,-0.5588 -0.9652,-0.5588 -1.524,-1.54093 -0.54186,-0.99907 -0.54186,-2.25213 0,-1.27 0.54186,-2.25213 0.5588,-0.98213 1.50706,-1.524 0.9652,-0.5588 2.20133,-0.5588 1.2192,0 2.16747,0.5588 0.96519,0.54187 1.50706,1.524 0.5588,0.98213 0.5588,2.25213 0,1.25306 -0.5588,2.25213 -0.54187,0.98213 -1.50706,1.54093 -0.94827,0.5588 -2.16747,0.5588 z m 0,-2.032 q 0.6096,0 1.03293,-0.27093 0.42334,-0.27094 0.64347,-0.79587 0.22013,-0.52493 0.22013,-1.25306 0,-0.74507 -0.22013,-1.25307 -0.22013,-0.508 -0.64347,-0.77893 -0.42333,-0.27093 -1.03293,-0.27093 -0.6096,0 -1.04986,0.27093 -0.42333,0.27093 -0.6604,0.77893 -0.22013,0.508 -0.22013,1.25307 0,0.72813 0.22013,1.25306 0.23707,0.52493 0.6604,0.79587 0.44026,0.27093 1.04986,0.27093 z m 14.29169,2.09973 q -1.93039,0 -3.16652,-0.99907 -1.2192,-0.99906 -1.49014,-2.65852 l 2.37067,-0.59267 q 0.18626,1.04986 0.8128,1.5748 0.62653,0.52493 1.55786,0.52493 0.47413,0 0.8636,-0.1524 0.38946,-0.16933 0.6096,-0.47413 0.22013,-0.3048 0.22013,-0.72813 0,-0.38947 -0.23707,-0.67734 -0.22013,-0.3048 -0.7112,-0.5588 -0.49106,-0.254 -1.25306,-0.54186 -1.15146,-0.4572 -1.91346,-0.9652 -0.762,-0.52493 -1.13453,-1.20226 -0.3556,-0.67734 -0.3556,-1.5748 0,-0.9652 0.47413,-1.71026 0.47413,-0.74507 1.3208,-1.1684 0.86359,-0.42333 1.99813,-0.42333 1.21919,0 2.15052,0.55879 0.93134,0.5588 1.50707,1.6764 l -1.9304,1.1684 q -0.33866,-0.6096 -0.79586,-0.93133 -0.4572,-0.32173 -1.016,-0.32173 -0.3556,0 -0.64347,0.13546 -0.28786,0.13547 -0.47413,0.38947 -0.16933,0.254 -0.16933,0.57573 0,0.33867 0.2032,0.62653 0.2032,0.27093 0.69426,0.54187 0.508,0.27093 1.33773,0.59266 1.1176,0.4064 1.84573,0.9144 0.74507,0.49107 1.1176,1.15147 0.38947,0.66039 0.38947,1.59173 0,1.06679 -0.52493,1.89653 -0.52494,0.82973 -1.4732,1.30386 -0.93133,0.4572 -2.1844,0.4572 z m 8.63599,-0.0677 q -0.69427,0 -1.30387,-0.254 -0.6096,-0.27094 -0.98213,-0.8636 -0.37253,-0.59267 -0.37253,-1.60867 v -7.63691 l 2.35373,-1.25307 v 8.22959 q 0,0.74506 0.18626,1.11759 0.2032,0.37254 0.762,0.37254 0.16934,0 0.37254,-0.0339 0.22013,-0.0339 0.45719,-0.1016 v 1.778 q -0.35559,0.13546 -0.72813,0.18626 -0.3556,0.0677 -0.74506,0.0677 z m -4.11479,-6.70559 v -1.81186 h 5.58798 v 1.81186 z m 12.42904,6.53625 -0.16934,-1.1176 v -4.16559 q 0,-0.67733 -0.45719,-0.98213 -0.44027,-0.3048 -1.15147,-0.3048 -0.6604,0 -1.38853,0.254 -0.7112,0.254 -1.2192,0.6604 l -1.08373,-1.60866 q 0.94827,-0.69427 1.8796,-0.9652 0.93133,-0.28787 2.01506,-0.28787 1.74413,0 2.72626,0.8636 0.98213,0.8636 0.98213,2.37066 v 5.28319 z m -2.42146,0.16934 q -0.9144,0 -1.64253,-0.33867 -0.72814,-0.33867 -1.15147,-0.9652 -0.42333,-0.64346 -0.42333,-1.4732 0,-0.72813 0.3048,-1.25306 0.3048,-0.52493 0.8128,-0.8128 0.4064,-0.23706 0.91439,-0.33866 0.508,-0.1016 1.0668,-0.1016 h 2.55693 v 1.71026 h -2.21826 q -0.23707,0 -0.44027,0.0508 -0.2032,0.0339 -0.37253,0.1524 -0.13547,0.1016 -0.22013,0.254 -0.0677,0.1524 -0.0677,0.33866 0,0.42334 0.32174,0.67734 0.33866,0.23706 0.89746,0.23706 0.52493,0 0.94827,-0.22013 0.44026,-0.22013 0.69426,-0.6096 0.27093,-0.38947 0.27093,-0.88053 l 0.54187,1.27 q -0.27093,0.88053 -0.72813,1.38853 -0.44027,0.49106 -0.98213,0.7112 -0.52494,0.2032 -1.08373,0.2032 z m 6.41773,-0.16934 v -8.34811 h 2.3368 v 2.26906 l -0.32173,0.0169 q 0.0508,-0.7112 0.40639,-1.27 0.37254,-0.5588 0.93134,-0.8636 0.55879,-0.32173 1.15146,-0.32173 0.42333,0 0.8128,0.11854 0.38946,0.11853 0.82973,0.38946 l -1.1176,2.09973 q -0.18626,-0.11853 -0.49106,-0.2032 -0.28787,-0.1016 -0.59267,-0.1016 -0.3048,0 -0.59266,0.11853 -0.28787,0.11854 -0.508,0.3556 -0.22014,0.22014 -0.3556,0.59267 -0.0847,0.23707 -0.13547,0.6096 -0.0339,0.3556 -0.0339,1.0668 v 3.47132 z m 10.63412,0.16934 q -0.69427,0 -1.30387,-0.254 -0.60959,-0.27094 -0.98213,-0.8636 -0.37253,-0.59267 -0.37253,-1.60867 v -7.63691 l 2.35373,-1.25307 v 8.22959 q 0,0.74506 0.18627,1.11759 0.2032,0.37254 0.76199,0.37254 0.16934,0 0.37254,-0.0339 0.22013,-0.0339 0.4572,-0.1016 v 1.778 q -0.3556,0.13546 -0.72814,0.18626 -0.3556,0.0677 -0.74506,0.0677 z m -4.11479,-6.70559 v -1.81186 h 5.58799 v 1.81186 z"
         id="text1"
         style="font-size:16.9333px;font-family:'Hanken Grotesk';-inkscape-font-specification:'Hanken Grotesk, @wght=800';font-variation-settings:'wght' 800;fill:#e4ff3a;stroke-width:4.68727"
         aria-label="Press SPACE to Start" />
    </g>
  </g>
</svg>
