<?xml version="1.0" encoding="UTF-8" standalone="no"?>
<!-- Created with Inkscape (http://www.inkscape.org/) -->

<svg
   width="1920"
   height="1080"
   viewBox="0 0 507.99999 285.75"
   version="1.1"
   id="svg1"
   sodipodi:docname="titleScreenCourier.svg"
   inkscape:version="1.4.2 (ebf0e940d0, 2025-05-08)"
   xmlns:inkscape="http://www.inkscape.org/namespaces/inkscape"
   xmlns:sodipodi="http://sodipodi.sourceforge.net/DTD/sodipodi-0.dtd"
   xmlns="http://www.w3.org/2000/svg"
   xmlns:svg="http://www.w3.org/2000/svg">
  <sodipodi:namedview
     id="namedview1"
     pagecolor="#ffffff"
     bordercolor="#000000"
     borderopacity="0.25"
     inkscape:showpageshadow="2"
     inkscape:pageopacity="0.0"
     inkscape:pagecheckerboard="0"
     inkscape:deskcolor="#d1d1d1"
     inkscape:zoom="0.72592593"
     inkscape:cx="959.46429"
     inkscape:cy="540"
     inkscape:window-width="1920"
     inkscape:window-height="1002"
     inkscape:window-x="0"
     inkscape:window-y="0"
     inkscape:window-maximized="1"
     inkscape:current-layer="svg1" />
  <defs
     id="defs1">
    <linearGradient
       id="swatch2">
      <stop
         style="stop-color:#000000;stop-opacity:1;"
         offset="0"
         id="stop2" />
    </linearGradient>
  </defs>
  <g
     id="layer1">
    <g
       id="g32"
       transform="matrix(0.13528883,0,0,0.13528883,113.08102,10.93021)">
      <path
         style="font-variation-settings:'wght' 800;fill:#e4ff3a;fill-opacity:1;stroke:none;stroke-width:1.05833"
         d="m 230.36276,75 v 28 l 10.3923,6 V 81 Z"
         id="path25" />
      <path
         style="font-variation-settings:'wght' 800;fill:#e4ff3a;fill-opacity:1;stroke:none;stroke-width:1.05833"
         d="m 244.21916,81 24.24872,-14 -2e-5,27.999999 L 244.21916,109 Z"
         id="path27" />
      <path
         style="font-variation-settings:'wght' 800;fill:#e4ff3a;fill-opacity:1;stroke:none;stroke-width:1.05833"
         d="m 232.09481,72 10.3923,6 24.24871,-14 -10.3923,-6 z"
         id="path28" />
      <path
         style="font-variation-settings:'wght' 800;fill:#3a3a3a;fill-opacity:1;stroke:none;stroke-width:1.05833"
         d="M 252.87941,55.999998 256.34352,58 232.0948,71.999998 228.6307,69.999999 Z"
         id="path29" />
      <path
         style="font-variation-settings:'wght' 800;fill:#3a3a3a;fill-opacity:1;stroke:none;stroke-width:1.05833"
         d="m 230.36275,103 -3.4641,-2 V 72.999999 L 230.36275,75 Z"
         id="path30" />
      <path
         style="font-variation-settings:'wght' 800;fill:#e4ff3a;fill-opacity:1;stroke:none;stroke-width:1.05833"
         d="M 216.50635,67 V 94.999999 L 226.89866,101 V 73 Z"
         id="path31" />
      <path
         style="font-variation-settings:'wght' 800;fill:#e4ff3a;fill-opacity:1;stroke:none;stroke-width:1.05833"
         d="m 218.2384,64 10.39231,6 24.24871,-14 -10.39231,-5.866084 z"
         id="path32" />
    </g>
    <g
       id="g2"
       transform="translate(0,8.5289231)">
      <path
         d="M 24.754429,17.119028 V 8.2290282 h -1.6129 v 8.8899998 z m 8.394703,-8.8899998 h -6.6167 v 8.8899998 h 1.6129 v -3.1623 h 5.0038 c 0.9398,0 1.7018,-0.762 1.7018,-1.7145 V 9.9308282 c 0,-0.9398 -0.762,-1.7018 -1.7018,-1.7018 z m 0.1016,3.8353998 c 0,0.2032 -0.1778,0.3683 -0.381,0.3683 h -4.7244 V 9.7403282 h 4.7244 c 0.2032,0 0.381,0.1651 0.381,0.3809998 z m 4.610092,-3.8353998 h -1.6129 v 8.8899998 h 6.6167 v -1.5113 h -5.0038 z"
         id="text1-8"
         style="font-size:12.7px;font-family:Armstrong;-inkscape-font-specification:'Armstrong, Normal ';fill:#e4ff3a;stroke-width:4.68727"
         aria-label="IPL" />
      <path
         style="font-size:7.05556px;font-family:'Hanken Grotesk';-inkscape-font-specification:'Hanken Grotesk, @wght=800';font-variation-settings:'wght' 800;fill:#e4ff3a;stroke-width:4.68727"
         d="m 79.025713,15.744616 q -0.705556,0 -1.241778,-0.324555 -0.536223,-0.324556 -0.839612,-0.903112 -0.296333,-0.578556 -0.296333,-1.354668 0,-0.776111 0.296333,-1.347612 0.303389,-0.578555 0.839612,-0.903111 0.536222,-0.324556 1.241778,-0.324556 0.797279,0 1.368779,0.402167 0.578556,0.395111 0.832556,1.093612 l -0.9525,0.345722 q -0.148167,-0.416278 -0.472723,-0.642056 -0.3175,-0.232833 -0.776112,-0.232833 -0.416278,0 -0.726722,0.197555 -0.310445,0.190501 -0.479778,0.550334 -0.162278,0.359834 -0.162278,0.860778 0,0.500945 0.162278,0.867834 0.169333,0.359834 0.479778,0.55739 0.310444,0.1905 0.726722,0.1905 0.458612,0 0.776112,-0.232834 0.324556,-0.232833 0.472723,-0.642056 l 0.9525,0.345723 q -0.254,0.691445 -0.832556,1.093612 -0.5715,0.402166 -1.368779,0.402166 z m 5.016507,0 q -0.705556,0 -1.241779,-0.324555 -0.536222,-0.324556 -0.839612,-0.903112 -0.296333,-0.578556 -0.296333,-1.347612 0,-0.776112 0.296333,-1.354668 0.30339,-0.578555 0.839612,-0.903111 0.536223,-0.324556 1.241779,-0.324556 0.712611,0 1.248834,0.324556 0.536222,0.3175 0.832556,0.896056 0.303389,0.578556 0.303389,1.361723 0,0.776112 -0.303389,1.354668 -0.303389,0.578555 -0.839612,0.903111 -0.536222,0.3175 -1.241778,0.3175 z m 0,-0.966611 q 0.423333,0 0.726722,-0.197556 0.303389,-0.197556 0.472723,-0.557389 0.169333,-0.366889 0.169333,-0.853723 0,-0.493889 -0.169333,-0.853723 -0.169334,-0.366889 -0.472723,-0.564445 -0.303389,-0.197555 -0.733778,-0.197555 -0.409222,0 -0.719667,0.197555 -0.310445,0.190501 -0.479778,0.550334 -0.162278,0.359834 -0.162278,0.867834 0,0.500945 0.162278,0.860778 0.169333,0.359834 0.479778,0.55739 0.310445,0.1905 0.726723,0.1905 z m 4.960057,0.966611 q -0.9525,0 -1.439334,-0.472722 -0.479778,-0.472723 -0.479778,-1.425223 v -3.139724 h 1.008945 v 3.026835 q 0,0.359833 0.07055,0.599722 0.07056,0.239889 0.268112,0.359834 0.204611,0.119945 0.5715,0.119945 0.366889,0 0.557389,-0.119945 0.197556,-0.119945 0.275167,-0.359834 0.07761,-0.239889 0.07761,-0.592667 v -3.03389 h 1.008945 v 3.104446 q 0,0.973667 -0.486833,1.453445 -0.486834,0.479778 -1.432279,0.479778 z m 2.765786,-0.119944 v -4.917725 h 1.679223 q 0.606778,0 0.973668,0.176389 0.373944,0.176389 0.543278,0.500944 0.176389,0.324556 0.176389,0.762001 0,0.6985 -0.402167,1.072445 -0.395112,0.373945 -1.121834,0.416278 -0.183445,0 -0.359834,0 -0.176389,0 -0.289278,0 h -0.1905 v 1.989668 z m 2.645835,0 -1.220612,-2.102557 1.037167,-0.119944 1.354668,2.222501 z m -1.63689,-2.89278 h 0.564445 q 0.204611,0 0.381,-0.04233 0.183445,-0.04233 0.289278,-0.162278 0.112889,-0.127 0.112889,-0.366889 0,-0.246945 -0.112889,-0.359834 -0.105833,-0.119944 -0.289278,-0.155222 -0.176389,-0.03528 -0.381,-0.03528 h -0.564445 z m 3.32881,2.89278 v -4.917725 h 1.008945 v 4.917725 z m 1.89794,0 v -4.917725 h 3.287892 v 0.903111 h -2.278947 v 1.037168 h 2.144887 v 0.903111 h -2.144887 v 1.171223 h 2.278947 v 0.903112 z m 4.056952,0 v -4.917725 h 1.67922 q 0.60678,0 0.97367,0.176389 0.37394,0.176389 0.54328,0.500944 0.17639,0.324556 0.17639,0.762001 0,0.6985 -0.40217,1.072445 -0.39511,0.373945 -1.12183,0.416278 -0.18345,0 -0.35984,0 -0.17639,0 -0.28928,0 h -0.1905 v 1.989668 z m 2.64583,0 -1.22061,-2.102557 1.03717,-0.119944 1.35467,2.222501 z m -1.63689,-2.89278 h 0.56445 q 0.20461,0 0.381,-0.04233 0.18344,-0.04233 0.28928,-0.162278 0.11289,-0.127 0.11289,-0.366889 0,-0.246945 -0.11289,-0.359834 -0.10584,-0.119944 -0.28928,-0.155222 -0.17639,-0.03528 -0.381,-0.03528 h -0.56445 z m 5.17173,2.89278 v -4.917725 h 1.4605 q 1.22766,0 1.89794,0.649111 0.67734,0.649112 0.67734,1.848557 0,1.171223 -0.66323,1.799168 -0.66322,0.620889 -1.91911,0.620889 z m 1.00894,-0.924278 h 0.33867 q 0.52916,0 0.90311,-0.127001 0.37394,-0.134055 0.5715,-0.465666 0.19756,-0.331612 0.19756,-0.93839 0,-0.592667 -0.19051,-0.924278 -0.1905,-0.338667 -0.54327,-0.472723 -0.35278,-0.141111 -0.84667,-0.141111 h -0.43039 z m 3.72533,0.924278 v -4.917725 h 1.00895 v 4.917725 z m 3.47133,0 -1.97555,-4.917725 h 1.11477 l 1.40406,3.675946 h -0.32456 l 1.37584,-3.675946 h 1.12183 l -1.9685,4.917725 z m 3.20323,0 v -4.917725 h 1.00894 v 4.917725 z m 3.56305,0.09878 q -0.80434,0 -1.31939,-0.416278 -0.508,-0.416278 -0.62089,-1.107723 l 0.98778,-0.246945 q 0.0776,0.437445 0.33866,0.656167 0.26106,0.218723 0.64912,0.218723 0.19755,0 0.35983,-0.0635 0.16228,-0.07056 0.254,-0.197556 0.0917,-0.127 0.0917,-0.303389 0,-0.162278 -0.0988,-0.282223 -0.0917,-0.127 -0.29633,-0.232833 -0.20461,-0.105833 -0.52211,-0.225778 -0.47978,-0.1905 -0.79728,-0.402167 -0.3175,-0.218722 -0.47272,-0.500945 -0.14817,-0.282222 -0.14817,-0.656167 0,-0.402167 0.19756,-0.712611 0.19755,-0.310445 0.55033,-0.486834 0.35983,-0.176389 0.83256,-0.176389 0.508,0 0.89605,0.232833 0.38806,0.232834 0.62795,0.698501 l -0.80434,0.486834 q -0.14111,-0.254001 -0.33161,-0.388056 -0.1905,-0.134056 -0.42333,-0.134056 -0.14817,0 -0.26811,0.05645 -0.11995,0.05644 -0.19756,0.162278 -0.0705,0.105833 -0.0705,0.239889 0,0.141111 0.0847,0.261055 0.0847,0.112889 0.28928,0.225778 0.21167,0.112889 0.55739,0.246945 0.46567,0.169333 0.76906,0.381 0.31044,0.204611 0.46566,0.479778 0.16228,0.275167 0.16228,0.663223 0,0.4445 -0.21872,0.790223 -0.21872,0.345722 -0.61383,0.543278 -0.38806,0.1905 -0.91017,0.1905 z m 2.42006,-0.09878 v -4.917725 h 1.00895 v 4.917725 z m 4.08516,0.119944 q -0.70555,0 -1.24178,-0.324555 -0.53622,-0.324556 -0.83961,-0.903112 -0.29633,-0.578556 -0.29633,-1.347612 0,-0.776112 0.29633,-1.354668 0.30339,-0.578555 0.83961,-0.903111 0.53623,-0.324556 1.24178,-0.324556 0.71261,0 1.24884,0.324556 0.53622,0.3175 0.83255,0.896056 0.30339,0.578556 0.30339,1.361723 0,0.776112 -0.30339,1.354668 -0.30339,0.578555 -0.83961,0.903111 -0.53622,0.3175 -1.24178,0.3175 z m 0,-0.966611 q 0.42334,0 0.72672,-0.197556 0.30339,-0.197556 0.47273,-0.557389 0.16933,-0.366889 0.16933,-0.853723 0,-0.493889 -0.16933,-0.853723 -0.16934,-0.366889 -0.47273,-0.564445 -0.30338,-0.197555 -0.73377,-0.197555 -0.40923,0 -0.71967,0.197555 -0.31045,0.190501 -0.47978,0.550334 -0.16228,0.359834 -0.16228,0.867834 0,0.500945 0.16228,0.860778 0.16933,0.359834 0.47978,0.55739 0.31044,0.1905 0.72672,0.1905 z m 3.08328,0.846667 v -4.917725 h 1.03717 l 2.21545,3.59128 h -0.26106 v -3.59128 h 1.016 v 4.917725 h -1.04422 l -2.20839,-3.598336 h 0.254 v 3.598336 z"
         id="text1-8-5"
         aria-label="COURIER DIVISION" />
      <path
         d="m 60.588162,18.160437 v -10.9728 h -1.6129 v 10.9728 z"
         id="text2"
         style="font-size:12.7px;font-family:Armstrong;-inkscape-font-specification:'Armstrong, Normal';fill:#e4ff3a;stroke-width:4.68727"
         aria-label="|" />
    </g>
  </g>
</svg>
