<?xml version="1.0" encoding="UTF-8" standalone="no"?>
<!-- Created with Inkscape (http://www.inkscape.org/) -->

<svg
   width="1920"
   height="1080"
   viewBox="0 0 507.99999 285.75"
   version="1.1"
   id="svg1"
   sodipodi:docname="titleScreenOS.svg"
   inkscape:version="1.4.2 (ebf0e940d0, 2025-05-08)"
   xmlns:inkscape="http://www.inkscape.org/namespaces/inkscape"
   xmlns:sodipodi="http://sodipodi.sourceforge.net/DTD/sodipodi-0.dtd"
   xmlns="http://www.w3.org/2000/svg"
   xmlns:svg="http://www.w3.org/2000/svg">
  <sodipodi:namedview
     id="namedview1"
     pagecolor="#ffffff"
     bordercolor="#000000"
     borderopacity="0.25"
     inkscape:showpageshadow="2"
     inkscape:pageopacity="0.0"
     inkscape:pagecheckerboard="0"
     inkscape:deskcolor="#d1d1d1"
     inkscape:zoom="0.72592593"
     inkscape:cx="959.46429"
     inkscape:cy="540"
     inkscape:window-width="1920"
     inkscape:window-height="1002"
     inkscape:window-x="0"
     inkscape:window-y="0"
     inkscape:window-maximized="1"
     inkscape:current-layer="layer1" />
  <defs
     id="defs1">
    <linearGradient
       id="swatch2">
      <stop
         style="stop-color:#000000;stop-opacity:1;"
         offset="0"
         id="stop2" />
    </linearGradient>
  </defs>
  <g
     id="layer1">
    <g
       id="g2"
       transform="translate(0,8.5289231)">
      <path
         style="font-size:7.05556px;font-family:'Hanken Grotesk';-inkscape-font-specification:'Hanken Grotesk, @wght=800';font-variation-settings:'wght' 800;fill:#e4ff3a;stroke-width:4.68727"
         d="m 406.23838,15.744683 q -0.70555,0 -1.24178,-0.324556 -0.53622,-0.324555 -0.83961,-0.903111 -0.29633,-0.578556 -0.29633,-1.347612 0,-0.776112 0.29633,-1.354668 0.30339,-0.578556 0.83961,-0.903111 0.53623,-0.324556 1.24178,-0.324556 0.71261,0 1.24884,0.324556 0.53622,0.3175 0.83255,0.896056 0.30339,0.578556 0.30339,1.361723 0,0.776111 -0.30339,1.354667 -0.30339,0.578556 -0.83961,0.903112 -0.53622,0.3175 -1.24178,0.3175 z m 0,-0.966612 q 0.42334,0 0.72673,-0.197555 0.30338,-0.197556 0.47272,-0.557389 0.16933,-0.36689 0.16933,-0.853723 0,-0.493889 -0.16933,-0.853723 -0.16934,-0.366889 -0.47272,-0.564445 -0.30339,-0.197555 -0.73378,-0.197555 -0.40923,0 -0.71967,0.197555 -0.31044,0.1905 -0.47978,0.550334 -0.16228,0.359833 -0.16228,0.867834 0,0.500945 0.16228,0.860778 0.16934,0.359834 0.47978,0.557389 0.31044,0.1905 0.72672,0.1905 z m 4.73993,0.945446 q -0.80434,0 -1.31939,-0.416279 -0.508,-0.416278 -0.62089,-1.107722 l 0.98778,-0.246945 q 0.0776,0.437445 0.33866,0.656167 0.26106,0.218722 0.64912,0.218722 0.19755,0 0.35983,-0.0635 0.16228,-0.07056 0.254,-0.197555 0.0917,-0.127 0.0917,-0.303389 0,-0.162278 -0.0988,-0.282223 -0.0917,-0.127 -0.29633,-0.232833 -0.20461,-0.105834 -0.52211,-0.225778 -0.47978,-0.1905 -0.79728,-0.402167 -0.3175,-0.218723 -0.47272,-0.500945 -0.14817,-0.282222 -0.14817,-0.656167 0,-0.402167 0.19756,-0.712612 0.19755,-0.310444 0.55033,-0.486833 0.35983,-0.176389 0.83256,-0.176389 0.508,0 0.89605,0.232833 0.38806,0.232834 0.62795,0.698501 l -0.80434,0.486833 q -0.14111,-0.254 -0.33161,-0.388055 -0.1905,-0.134056 -0.42333,-0.134056 -0.14817,0 -0.26811,0.05644 -0.11995,0.05645 -0.19756,0.162278 -0.0706,0.105834 -0.0706,0.239889 0,0.141112 0.0847,0.261056 0.0847,0.112889 0.28928,0.225778 0.21167,0.112889 0.55739,0.246945 0.46567,0.169333 0.76906,0.381 0.31044,0.204611 0.46566,0.479778 0.16228,0.275167 0.16228,0.663223 0,0.4445 -0.21872,0.790222 -0.21872,0.345723 -0.61383,0.543278 -0.38806,0.190501 -0.91017,0.190501 z m 5.8279,-0.09878 -1.97556,-4.917726 h 1.11478 l 1.40405,3.675947 h -0.32455 l 1.37583,-3.675947 h 1.12184 l -1.9685,4.917726 z m 3.20322,0 v -4.917726 h 3.28789 v 0.903112 h -2.27894 v 1.037167 h 2.14489 v 0.903112 h -2.14489 v 1.171223 h 2.27894 v 0.903112 z m 4.05695,0 v -4.917726 h 1.67923 q 0.60678,0 0.97366,0.176389 0.37395,0.176389 0.54328,0.500945 0.17639,0.324556 0.17639,0.762001 0,0.6985 -0.40217,1.072445 -0.39511,0.373944 -1.12183,0.416278 -0.18344,0 -0.35983,0 -0.17639,0 -0.28928,0 h -0.1905 v 1.989668 z m 2.64584,0 -1.22061,-2.102557 1.03716,-0.119945 1.35467,2.222502 z m -1.63689,-2.89278 h 0.56444 q 0.20461,0 0.381,-0.04233 0.18345,-0.04233 0.28928,-0.162278 0.11289,-0.127 0.11289,-0.366889 0,-0.246945 -0.11289,-0.359834 -0.10583,-0.119944 -0.28928,-0.155222 -0.17639,-0.03528 -0.381,-0.03528 h -0.56444 z m 4.89092,2.991558 q -0.80434,0 -1.31939,-0.416279 -0.508,-0.416278 -0.62089,-1.107722 l 0.98778,-0.246945 q 0.0776,0.437445 0.33866,0.656167 0.26106,0.218722 0.64911,0.218722 0.19756,0 0.35984,-0.0635 0.16228,-0.07056 0.254,-0.197555 0.0917,-0.127 0.0917,-0.303389 0,-0.162278 -0.0988,-0.282223 -0.0917,-0.127 -0.29633,-0.232833 -0.20461,-0.105834 -0.52211,-0.225778 -0.47978,-0.1905 -0.79728,-0.402167 -0.3175,-0.218723 -0.47272,-0.500945 -0.14817,-0.282222 -0.14817,-0.656167 0,-0.402167 0.19756,-0.712612 0.19755,-0.310444 0.55033,-0.486833 0.35983,-0.176389 0.83256,-0.176389 0.508,0 0.89605,0.232833 0.38806,0.232834 0.62795,0.698501 l -0.80434,0.486833 q -0.14111,-0.254 -0.33161,-0.388055 -0.1905,-0.134056 -0.42333,-0.134056 -0.14817,0 -0.26811,0.05644 -0.11995,0.05645 -0.19756,0.162278 -0.0705,0.105834 -0.0705,0.239889 0,0.141112 0.0847,0.261056 0.0847,0.112889 0.28928,0.225778 0.21167,0.112889 0.55739,0.246945 0.46567,0.169333 0.76906,0.381 0.31044,0.204611 0.46566,0.479778 0.16228,0.275167 0.16228,0.663223 0,0.4445 -0.21872,0.790222 -0.21872,0.345723 -0.61384,0.543278 -0.38805,0.190501 -0.91016,0.190501 z m 2.42006,-0.09878 v -4.917726 h 1.00894 v 4.917726 z m 4.08516,0.119944 q -0.70556,0 -1.24178,-0.324556 -0.53622,-0.324555 -0.83961,-0.903111 -0.29633,-0.578556 -0.29633,-1.347612 0,-0.776112 0.29633,-1.354668 0.30339,-0.578556 0.83961,-0.903111 0.53622,-0.324556 1.24178,-0.324556 0.71261,0 1.24883,0.324556 0.53623,0.3175 0.83256,0.896056 0.30339,0.578556 0.30339,1.361723 0,0.776111 -0.30339,1.354667 -0.30339,0.578556 -0.83961,0.903112 -0.53622,0.3175 -1.24178,0.3175 z m 0,-0.966612 q 0.42333,0 0.72672,-0.197555 0.30339,-0.197556 0.47273,-0.557389 0.16933,-0.36689 0.16933,-0.853723 0,-0.493889 -0.16933,-0.853723 -0.16934,-0.366889 -0.47273,-0.564445 -0.30339,-0.197555 -0.73378,-0.197555 -0.40922,0 -0.71966,0.197555 -0.31045,0.1905 -0.47978,0.550334 -0.16228,0.359833 -0.16228,0.867834 0,0.500945 0.16228,0.860778 0.16933,0.359834 0.47978,0.557389 0.31044,0.1905 0.72672,0.1905 z m 3.08328,0.846668 v -4.917726 h 1.03717 l 2.21544,3.59128 h -0.26105 v -3.59128 h 1.016 v 4.917726 h -1.04423 l -2.20839,-3.598336 h 0.254 v 3.598336 z m 6.73101,0 v -4.917726 h 1.47461 l 1.21355,3.46428 h -0.18344 l 1.21356,-3.46428 h 1.47461 v 4.917726 h -1.00895 v -3.732392 l 0.0917,0.01411 -1.18533,3.280835 h -0.98072 l -1.19239,-3.280835 0.0917,-0.01411 v 3.732392 z m 6.08189,0 v -4.917726 h 1.00894 v 4.014614 h 2.05317 v 0.903112 z m 3.41489,-1.707446 v -0.719667 h 1.74977 v 0.719667 z m 2.29305,1.707446 v -0.719667 q 0.21872,-0.155223 0.51506,-0.36689 0.29633,-0.211666 0.59972,-0.465667 0.31044,-0.254 0.5715,-0.543278 0.26106,-0.296333 0.42333,-0.606778 0.16934,-0.3175 0.16934,-0.649111 0,-0.282223 -0.14817,-0.479778 -0.14817,-0.204612 -0.47978,-0.204612 -0.28222,0 -0.43744,0.148167 -0.15522,0.148167 -0.22578,0.366889 -0.0706,0.218723 -0.0847,0.437445 l -0.9525,-0.07761 q 0,-0.324556 0.11289,-0.642056 0.11289,-0.324556 0.33161,-0.585612 0.21872,-0.268111 0.53623,-0.423333 0.32455,-0.162278 0.74788,-0.162278 0.45156,0 0.80434,0.197555 0.35983,0.197556 0.55739,0.55739 0.20461,0.359833 0.20461,0.839611 0,0.359834 -0.11995,0.698501 -0.11288,0.338667 -0.33161,0.649111 -0.21166,0.310445 -0.51505,0.592667 -0.30339,0.275167 -0.68439,0.515056 -0.381,0.232834 -0.81845,0.423334 l 0.254,-0.402167 h 2.40595 v 0.903112 z m 5.61622,0.07056 q -0.55739,0 -0.97366,-0.204611 -0.41628,-0.211667 -0.64911,-0.578556 -0.23284,-0.373945 -0.23284,-0.867834 l 0.96661,-0.05644 q 0,0.352778 0.254,0.564445 0.254,0.211666 0.67028,0.211666 0.27517,0 0.45861,-0.07761 0.1905,-0.07761 0.28928,-0.232833 0.10583,-0.155223 0.10583,-0.359834 0,-0.176389 -0.0705,-0.303389 -0.0706,-0.127 -0.21872,-0.197556 -0.14111,-0.07761 -0.35278,-0.112889 -0.20461,-0.04233 -0.48683,-0.04233 v -0.762 q 0.19755,0 0.35277,-0.02822 0.15523,-0.03528 0.26106,-0.105833 0.11289,-0.07056 0.16933,-0.176389 0.0564,-0.112889 0.0564,-0.268111 0,-0.169334 -0.0776,-0.282223 -0.0706,-0.119944 -0.20462,-0.183444 -0.13405,-0.0635 -0.32455,-0.0635 -0.31045,0 -0.49389,0.169333 -0.17639,0.162278 -0.18345,0.451556 l -0.95955,-0.0635 q 0,-0.430389 0.21167,-0.769056 0.21872,-0.338667 0.59266,-0.529167 0.381,-0.1905 0.86784,-0.1905 0.45861,0 0.80433,0.176389 0.34572,0.176389 0.54328,0.479778 0.19755,0.303389 0.19755,0.705556 0,0.162278 -0.0423,0.303389 -0.0353,0.141111 -0.10583,0.261056 -0.0706,0.119944 -0.17639,0.218722 -0.0988,0.09172 -0.21872,0.162278 0.1905,0.07056 0.34572,0.183444 0.15522,0.112889 0.26105,0.261056 0.10584,0.141111 0.16228,0.324556 0.0565,0.176389 0.0565,0.388056 0,0.472722 -0.23284,0.832556 -0.23283,0.352778 -0.64911,0.557389 -0.41628,0.204611 -0.97367,0.204611 z m 2.35655,-0.07056 v -0.966612 h 1.01601 v 0.966612 z m 3.33023,0.07056 q -0.48684,0 -0.91723,-0.169333 -0.43038,-0.169334 -0.69144,-0.515056 -0.26106,-0.345722 -0.26106,-0.860778 0,-0.373945 0.15523,-0.68439 0.15522,-0.310444 0.48683,-0.515056 -0.1905,-0.155222 -0.30339,-0.366889 -0.11289,-0.218722 -0.11289,-0.515056 0,-0.451555 0.23284,-0.769056 0.23283,-0.324555 0.60677,-0.493889 0.37395,-0.169333 0.80434,-0.169333 0.43744,0 0.81139,0.176389 0.37394,0.169333 0.59266,0.493889 0.22578,0.3175 0.22578,0.769056 0,0.289278 -0.10583,0.508 -0.0988,0.211667 -0.29634,0.366889 0.33162,0.204612 0.48684,0.515056 0.15522,0.310445 0.15522,0.68439 0,0.515056 -0.26106,0.860778 -0.26105,0.345722 -0.69144,0.515056 -0.42333,0.169333 -0.91722,0.169333 z m 0,-0.917223 q 0.26105,0 0.46566,-0.07761 0.20462,-0.08467 0.3175,-0.246944 0.11289,-0.162278 0.11289,-0.402167 0,-0.232834 -0.11289,-0.388056 -0.11288,-0.162278 -0.3175,-0.239889 -0.20461,-0.08467 -0.46566,-0.08467 -0.26106,0 -0.46567,0.08467 -0.20461,0.07761 -0.32456,0.239889 -0.11288,0.155222 -0.11288,0.388056 0,0.239889 0.11288,0.402167 0.11995,0.162278 0.32456,0.246944 0.20461,0.07761 0.46567,0.07761 z m 0,-2.095501 q 0.30339,0 0.48683,-0.148167 0.18345,-0.148166 0.18345,-0.395111 0,-0.268111 -0.17639,-0.423334 -0.17639,-0.155222 -0.49389,-0.155222 -0.20461,0 -0.35984,0.07056 -0.14816,0.0635 -0.23283,0.197555 -0.0776,0.127 -0.0776,0.303389 0,0.254001 0.18344,0.402167 0.1905,0.148167 0.48684,0.148167 z m 3.92289,3.012724 q -0.47273,0 -0.86784,-0.197555 -0.38805,-0.204612 -0.635,-0.543279 -0.24694,-0.345722 -0.31044,-0.769056 l 0.9525,-0.162277 q 0.0141,0.169333 0.10583,0.345722 0.0988,0.169333 0.28222,0.289278 0.1905,0.112889 0.46567,0.112889 0.29633,0 0.47272,-0.127 0.17639,-0.134056 0.254,-0.338667 0.0847,-0.204611 0.0847,-0.409223 0,-0.204611 -0.0776,-0.381 -0.0776,-0.176389 -0.254,-0.282222 -0.17639,-0.112889 -0.47272,-0.112889 -0.28928,0 -0.47978,0.127 -0.18345,0.119944 -0.28928,0.289278 l -0.89606,-0.225778 0.48684,-2.603502 h 2.794 v 0.903112 h -2.43417 l 0.51506,-0.409222 -0.30339,1.559278 -0.3175,-0.08467 q 0.27516,-0.30339 0.55033,-0.381001 0.28222,-0.08467 0.508,-0.08467 0.508,0 0.889,0.232833 0.381,0.232834 0.59267,0.620889 0.21872,0.388056 0.21872,0.832556 0,0.352778 -0.13405,0.677334 -0.13406,0.3175 -0.381,0.571501 -0.23989,0.254 -0.57856,0.402167 -0.33867,0.148166 -0.74083,0.148166 z m 4.98122,-4.988281 -1.2065,1.806224 -0.11995,-0.155223 q 0.11289,-0.02822 0.21873,-0.04939 0.10583,-0.02117 0.21872,-0.02117 0.47978,0 0.86078,0.225778 0.38805,0.218722 0.60677,0.599722 0.22578,0.373945 0.22578,0.846668 0,0.515055 -0.254,0.910167 -0.24694,0.388056 -0.66322,0.606778 -0.40922,0.218722 -0.91017,0.218722 -0.50094,0 -0.92428,-0.218722 -0.41627,-0.218722 -0.67027,-0.606778 -0.24695,-0.395112 -0.24695,-0.903112 0,-0.239889 0.0706,-0.479778 0.0776,-0.239889 0.21166,-0.451556 l 1.4605,-2.328335 z m -1.02306,2.441224 q -0.23283,0 -0.43039,0.09878 -0.1905,0.09878 -0.30339,0.282222 -0.11288,0.176389 -0.11288,0.43039 0,0.254 0.11288,0.437444 0.11289,0.176389 0.30339,0.275167 0.1905,0.09878 0.43039,0.09878 0.23284,0 0.42334,-0.09878 0.1905,-0.09878 0.30338,-0.275167 0.11289,-0.183444 0.11289,-0.437444 0,-0.254001 -0.11289,-0.43039 -0.11288,-0.183444 -0.30338,-0.282222 -0.1905,-0.09878 -0.42334,-0.09878 z m 2.33539,2.476502 v -0.966612 h 1.016 v 0.966612 z m 3.51366,0 v -1.157112 h -2.11666 v -0.740834 l 2.24366,-3.01978 h 0.83961 v 2.864558 h 0.78317 v 0.896056 h -0.78317 v 1.157112 z m -1.37583,-1.721557 -0.007,-0.331611 h 1.38289 v -1.933224 l 0.127,0.141111 z"
         id="text1-8-5-3"
         aria-label="OS VERSION ML-23.856.4" />
    </g>
  </g>
</svg>
