<?xml version="1.0" encoding="UTF-8" standalone="no"?>
<!-- Created with Inkscape (http://www.inkscape.org/) -->

<svg
   width="1920"
   height="1080"
   viewBox="0 0 507.99999 285.75"
   version="1.1"
   id="svg1"
   sodipodi:docname="titleScreenNominal.svg"
   inkscape:version="1.4.2 (ebf0e940d0, 2025-05-08)"
   xmlns:inkscape="http://www.inkscape.org/namespaces/inkscape"
   xmlns:sodipodi="http://sodipodi.sourceforge.net/DTD/sodipodi-0.dtd"
   xmlns="http://www.w3.org/2000/svg"
   xmlns:svg="http://www.w3.org/2000/svg">
  <sodipodi:namedview
     id="namedview1"
     pagecolor="#ffffff"
     bordercolor="#000000"
     borderopacity="0.25"
     inkscape:showpageshadow="2"
     inkscape:pageopacity="0.0"
     inkscape:pagecheckerboard="0"
     inkscape:deskcolor="#d1d1d1"
     inkscape:zoom="0.72592593"
     inkscape:cx="959.46429"
     inkscape:cy="540"
     inkscape:window-width="1920"
     inkscape:window-height="1002"
     inkscape:window-x="0"
     inkscape:window-y="0"
     inkscape:window-maximized="1"
     inkscape:current-layer="svg1" />
  <defs
     id="defs1">
    <linearGradient
       id="swatch2">
      <stop
         style="stop-color:#000000;stop-opacity:1;"
         offset="0"
         id="stop2" />
    </linearGradient>
  </defs>
  <g
     id="layer1">
    <g
       id="g2"
       transform="translate(0,8.5289231)">
      <path
         style="font-size:7.05556px;font-family:'Hanken Grotesk';-inkscape-font-specification:'Hanken Grotesk, @wght=800';font-variation-settings:'wght' 800;fill:#e4ff3a;stroke-width:4.68727"
         d="m 24.80664,271.80682 q -0.804334,0 -1.31939,-0.41628 -0.508,-0.41628 -0.620889,-1.10772 l 0.987778,-0.24695 q 0.07761,0.43745 0.338667,0.65617 0.261056,0.21872 0.649111,0.21872 0.197556,0 0.359834,-0.0635 0.162278,-0.0706 0.254,-0.19756 0.09172,-0.127 0.09172,-0.30338 0,-0.16228 -0.09878,-0.28223 -0.09172,-0.127 -0.296334,-0.23283 -0.204611,-0.10583 -0.522111,-0.22578 -0.479778,-0.1905 -0.797279,-0.40217 -0.3175,-0.21872 -0.472722,-0.50094 -0.148167,-0.28222 -0.148167,-0.65617 0,-0.40216 0.197556,-0.71261 0.197555,-0.31044 0.550333,-0.48683 0.359834,-0.17639 0.832557,-0.17639 0.508,0 0.896056,0.23283 0.388056,0.23284 0.627945,0.6985 l -0.804334,0.48684 q -0.141112,-0.254 -0.331612,-0.38806 -0.1905,-0.13406 -0.423333,-0.13406 -0.148167,0 -0.268112,0.0564 -0.119944,0.0564 -0.197555,0.16228 -0.07056,0.10583 -0.07056,0.23989 0,0.14111 0.08467,0.26105 0.08467,0.11289 0.289278,0.22578 0.211667,0.11289 0.557389,0.24694 0.465667,0.16934 0.769056,0.381 0.310445,0.20462 0.465667,0.47978 0.162278,0.27517 0.162278,0.66323 0,0.4445 -0.218722,0.79022 -0.218723,0.34572 -0.613834,0.54328 -0.388056,0.1905 -0.910167,0.1905 z m 3.492504,-0.0988 v -1.93323 l -1.728612,-2.9845 h 1.157112 l 1.051278,1.98262 1.086557,-1.98262 h 1.150056 l -1.707446,2.9845 v 1.93323 z m 4.556482,0.0988 q -0.804334,0 -1.31939,-0.41628 -0.508,-0.41628 -0.620889,-1.10772 l 0.987778,-0.24695 q 0.07761,0.43745 0.338667,0.65617 0.261056,0.21872 0.649112,0.21872 0.197556,0 0.359833,-0.0635 0.162278,-0.0706 0.254001,-0.19756 0.09172,-0.127 0.09172,-0.30338 0,-0.16228 -0.09878,-0.28223 -0.09172,-0.127 -0.296333,-0.23283 -0.204612,-0.10583 -0.522112,-0.22578 -0.479778,-0.1905 -0.797278,-0.40217 -0.3175,-0.21872 -0.472723,-0.50094 -0.148166,-0.28222 -0.148166,-0.65617 0,-0.40216 0.197555,-0.71261 0.197556,-0.31044 0.550334,-0.48683 0.359833,-0.17639 0.832556,-0.17639 0.508,0 0.896056,0.23283 0.388056,0.23284 0.627945,0.6985 l -0.804334,0.48684 q -0.141111,-0.254 -0.331611,-0.38806 -0.1905,-0.13406 -0.423334,-0.13406 -0.148167,0 -0.268111,0.0564 -0.119945,0.0564 -0.197556,0.16228 -0.07055,0.10583 -0.07055,0.23989 0,0.14111 0.08467,0.26105 0.08467,0.11289 0.289278,0.22578 0.211667,0.11289 0.55739,0.24694 0.465667,0.16934 0.769056,0.381 0.310444,0.20462 0.465667,0.47978 0.162277,0.27517 0.162277,0.66323 0,0.4445 -0.218722,0.79022 -0.218722,0.34572 -0.613834,0.54328 -0.388055,0.1905 -0.910167,0.1905 z m 3.512263,-0.0988 v -4.01462 h -1.481667 v -0.90311 h 3.979335 v 0.90311 h -1.474612 v 4.01462 z m 3.012725,0 v -4.91773 h 3.287891 v 0.90311 h -2.278946 v 1.03717 h 2.14489 v 0.90311 h -2.14489 v 1.17123 h 2.278946 v 0.90311 z m 4.056953,0 v -4.91773 h 1.474612 l 1.213556,3.46428 h -0.183444 l 1.213556,-3.46428 h 1.474612 v 4.91773 h -1.008945 v -3.73239 l 0.09172,0.0141 -1.185335,3.28083 H 45.54718 l -1.19239,-3.28083 0.09172,-0.0141 v 3.73239 z m 7.747002,0.0988 q -0.804333,0 -1.319389,-0.41628 -0.508001,-0.41628 -0.62089,-1.10772 l 0.987779,-0.24695 q 0.07761,0.43745 0.338667,0.65617 0.261055,0.21872 0.649111,0.21872 0.197556,0 0.359834,-0.0635 0.162278,-0.0706 0.254,-0.19756 0.09172,-0.127 0.09172,-0.30338 0,-0.16228 -0.09878,-0.28223 -0.09172,-0.127 -0.296333,-0.23283 -0.204611,-0.10583 -0.522112,-0.22578 -0.479778,-0.1905 -0.797278,-0.40217 -0.3175,-0.21872 -0.472722,-0.50094 -0.148167,-0.28222 -0.148167,-0.65617 0,-0.40216 0.197555,-0.71261 0.197556,-0.31044 0.550334,-0.48683 0.359834,-0.17639 0.832556,-0.17639 0.508001,0 0.896056,0.23283 0.388056,0.23284 0.627945,0.6985 l -0.804334,0.48684 q -0.141111,-0.254 -0.331611,-0.38806 -0.1905,-0.13406 -0.423334,-0.13406 -0.148166,0 -0.268111,0.0564 -0.119944,0.0564 -0.197556,0.16228 -0.07055,0.10583 -0.07055,0.23989 0,0.14111 0.08467,0.26105 0.08467,0.11289 0.289278,0.22578 0.211666,0.11289 0.557389,0.24694 0.465667,0.16934 0.769056,0.381 0.310445,0.20462 0.465667,0.47978 0.162278,0.27517 0.162278,0.66323 0,0.4445 -0.218723,0.79022 -0.218722,0.34572 -0.613833,0.54328 -0.388056,0.1905 -0.910168,0.1905 z m 4.254509,-0.0988 v -4.91773 h 1.037167 l 2.215446,3.59128 h -0.261056 v -3.59128 h 1.016001 v 4.91773 h -1.044223 l -2.20839,-3.59834 h 0.254 v 3.59834 z m 7.083784,0.11994 q -0.705556,0 -1.241779,-0.32455 -0.536222,-0.32456 -0.839611,-0.90311 -0.296334,-0.57856 -0.296334,-1.34762 0,-0.77611 0.296334,-1.35466 0.303389,-0.57856 0.839611,-0.90312 0.536223,-0.32455 1.241779,-0.32455 0.712612,0 1.248834,0.32455 0.536223,0.3175 0.832556,0.89606 0.303389,0.57856 0.303389,1.36172 0,0.77612 -0.303389,1.35467 -0.303389,0.57856 -0.839611,0.90311 -0.536223,0.3175 -1.241779,0.3175 z m 0,-0.96661 q 0.423334,0 0.726723,-0.19755 0.303389,-0.19756 0.472722,-0.55739 0.169334,-0.36689 0.169334,-0.85373 0,-0.49389 -0.169334,-0.85372 -0.169333,-0.36689 -0.472722,-0.56444 -0.303389,-0.19756 -0.733779,-0.19756 -0.409222,0 -0.719667,0.19756 -0.310444,0.1905 -0.479778,0.55033 -0.162278,0.35983 -0.162278,0.86783 0,0.50095 0.162278,0.86078 0.169334,0.35984 0.479778,0.55739 0.310445,0.1905 0.726723,0.1905 z m 3.083277,0.84667 v -4.91773 h 1.474612 l 1.213556,3.46428 h -0.183445 l 1.213557,-3.46428 h 1.474612 v 4.91773 h -1.008945 v -3.73239 l 0.09172,0.0141 -1.185334,3.28083 h -0.980723 l -1.19239,-3.28083 0.09172,-0.0141 v 3.73239 z m 6.08189,0 v -4.91773 h 1.008945 v 4.91773 z m 1.897937,0 v -4.91773 h 1.037168 l 2.215446,3.59128 h -0.261056 v -3.59128 h 1.016001 v 4.91773 h -1.044223 l -2.208391,-3.59834 h 0.254001 v 3.59834 z m 4.487339,0 2.010834,-4.91773 h 0.74789 l 2.010834,4.91773 h -1.100667 l -1.277057,-3.42195 -1.291167,3.42195 z m 1.382889,-0.89606 0.317501,-0.90311 h 1.375834 l 0.324556,0.90311 z m 3.866455,0.89606 v -4.91773 h 1.008945 v 4.01462 h 2.053168 v 0.90311 z"
         id="text1-8-5-9-3"
         aria-label="SYSTEMS NOMINAL" />
    </g>
  </g>
</svg>
