<?xml version="1.0" encoding="UTF-8" standalone="no"?>
<!-- Created with Inkscape (http://www.inkscape.org/) -->

<svg
   width="1920"
   height="1080"
   viewBox="0 0 507.99999 285.75"
   version="1.1"
   id="svg1"
   sodipodi:docname="titleScreenDate.svg"
   inkscape:version="1.4.2 (ebf0e940d0, 2025-05-08)"
   xmlns:inkscape="http://www.inkscape.org/namespaces/inkscape"
   xmlns:sodipodi="http://sodipodi.sourceforge.net/DTD/sodipodi-0.dtd"
   xmlns="http://www.w3.org/2000/svg"
   xmlns:svg="http://www.w3.org/2000/svg">
  <sodipodi:namedview
     id="namedview1"
     pagecolor="#ffffff"
     bordercolor="#000000"
     borderopacity="0.25"
     inkscape:showpageshadow="2"
     inkscape:pageopacity="0.0"
     inkscape:pagecheckerboard="0"
     inkscape:deskcolor="#d1d1d1"
     inkscape:zoom="0.72592593"
     inkscape:cx="959.46429"
     inkscape:cy="540"
     inkscape:window-width="1920"
     inkscape:window-height="1002"
     inkscape:window-x="0"
     inkscape:window-y="0"
     inkscape:window-maximized="1"
     inkscape:current-layer="svg1" />
  <defs
     id="defs1">
    <linearGradient
       id="swatch2">
      <stop
         style="stop-color:#000000;stop-opacity:1;"
         offset="0"
         id="stop2" />
    </linearGradient>
  </defs>
  <g
     id="layer1">
    <g
       id="g2"
       transform="translate(0,8.5289231)">
      <path
         style="font-size:7.05556px;font-family:'Hanken Grotesk';-inkscape-font-specification:'Hanken Grotesk, @wght=800';font-variation-settings:'wght' 800;fill:#e4ff3a;stroke-width:4.68727"
         d="m 432.74186,271.66541 v -4.91773 h 1.47462 l 1.21355,3.46428 h -0.18344 l 1.21355,-3.46428 h 1.47462 v 4.91773 h -1.00895 v -3.7324 l 0.0917,0.0141 -1.18533,3.28083 h -0.98072 l -1.19239,-3.28083 0.0917,-0.0141 v 3.7324 z m 5.67267,0 2.01083,-4.91773 h 0.74789 l 2.01084,4.91773 h -1.10067 l -1.27705,-3.42195 -1.29117,3.42195 z m 1.38289,-0.89606 0.3175,-0.90311 h 1.37583 l 0.32456,0.90311 z m 4.47747,0.89606 v -1.93323 l -1.72861,-2.9845 h 1.15711 l 1.05128,1.98261 1.08655,-1.98261 h 1.15006 l -1.70745,2.9845 v 1.93323 z m 6.49112,0.0705 q -0.55739,0 -0.97367,-0.20461 -0.41628,-0.21167 -0.64911,-0.57856 -0.23284,-0.37394 -0.23284,-0.86783 l 0.96662,-0.0564 q 0,0.35277 0.254,0.56444 0.254,0.21167 0.67027,0.21167 0.27517,0 0.45862,-0.0776 0.1905,-0.0776 0.28927,-0.23284 0.10584,-0.15522 0.10584,-0.35983 0,-0.17639 -0.0706,-0.30339 -0.0706,-0.127 -0.21872,-0.19756 -0.14111,-0.0776 -0.35278,-0.11289 -0.20461,-0.0423 -0.48683,-0.0423 v -0.762 q 0.19755,0 0.35278,-0.0282 0.15522,-0.0353 0.26105,-0.10583 0.11289,-0.0706 0.16933,-0.17639 0.0564,-0.11289 0.0564,-0.26811 0,-0.16934 -0.0776,-0.28223 -0.0706,-0.11994 -0.20461,-0.18344 -0.13406,-0.0635 -0.32456,-0.0635 -0.31044,0 -0.49389,0.16933 -0.17639,0.16228 -0.18344,0.45156 l -0.95956,-0.0635 q 0,-0.43039 0.21167,-0.76906 0.21872,-0.33867 0.59266,-0.52917 0.381,-0.1905 0.86784,-0.1905 0.45861,0 0.80433,0.17639 0.34572,0.17639 0.54328,0.47978 0.19756,0.30339 0.19756,0.70556 0,0.16228 -0.0423,0.30339 -0.0353,0.14111 -0.10583,0.26105 -0.0706,0.11995 -0.17639,0.21872 -0.0988,0.0917 -0.21872,0.16228 0.1905,0.0706 0.34572,0.18345 0.15522,0.11289 0.26106,0.26105 0.10583,0.14111 0.16227,0.32456 0.0564,0.17639 0.0564,0.38805 0,0.47273 -0.23283,0.83256 -0.23284,0.35278 -0.64912,0.55739 -0.41627,0.20461 -0.97366,0.20461 z m 3.99344,0 q -0.47272,0 -0.79022,-0.16228 -0.3175,-0.16933 -0.508,-0.4445 -0.1905,-0.27516 -0.28928,-0.60678 -0.0988,-0.33866 -0.13406,-0.68438 -0.0282,-0.35278 -0.0282,-0.66323 0,-0.28928 0.0282,-0.62794 0.0353,-0.33867 0.127,-0.67028 0.0988,-0.33161 0.28928,-0.59972 0.1905,-0.27517 0.508,-0.43745 0.3175,-0.16933 0.79728,-0.16933 0.47978,0 0.79728,0.16228 0.3175,0.16227 0.508,0.43744 0.1905,0.27517 0.28222,0.60678 0.0988,0.33161 0.127,0.67028 0.0353,0.33866 0.0353,0.635 0,0.31044 -0.0353,0.66322 -0.0282,0.34572 -0.127,0.68439 -0.0988,0.33161 -0.28928,0.60678 -0.1905,0.26811 -0.508,0.43744 -0.3175,0.16228 -0.79022,0.16228 z m 0,-0.93133 q 0.32455,0 0.48683,-0.21873 0.16228,-0.21872 0.21167,-0.58561 0.0564,-0.36689 0.0564,-0.79022 0,-0.4445 -0.0564,-0.81139 -0.0494,-0.36689 -0.21167,-0.57855 -0.16228,-0.21873 -0.48683,-0.21873 -0.24695,0 -0.40217,0.127 -0.14817,0.127 -0.22578,0.35278 -0.0706,0.21872 -0.0988,0.51506 -0.0282,0.28927 -0.0282,0.61383 0,0.31044 0.0282,0.59972 0.0282,0.28928 0.0988,0.51506 0.0776,0.21872 0.22578,0.35278 0.15522,0.127 0.40217,0.127 z m 3.52072,0.86078 v -4.01462 h -1.48167 v -0.90311 h 3.97934 v 0.90311 h -1.47461 v 4.01462 z m 3.01272,0 v -4.91773 h 1.00895 v 1.91911 h 2.01789 v -1.91911 h 1.00895 v 4.91773 h -1.00895 v -2.07434 h -2.01789 v 2.07434 z m 4.66373,1.03716 0.42333,-2.159 h 1.08656 l -0.88195,2.159 z m 3.61245,-1.03716 v -0.71967 q 0.21872,-0.15522 0.51505,-0.36689 0.29634,-0.21167 0.59973,-0.46567 0.31044,-0.254 0.5715,-0.54328 0.26105,-0.29633 0.42333,-0.60677 0.16933,-0.3175 0.16933,-0.64912 0,-0.28222 -0.14816,-0.47977 -0.14817,-0.20462 -0.47978,-0.20462 -0.28222,0 -0.43745,0.14817 -0.15522,0.14817 -0.22577,0.36689 -0.0706,0.21872 -0.0847,0.43745 l -0.9525,-0.0776 q 0,-0.32455 0.11289,-0.64205 0.11289,-0.32456 0.33161,-0.58561 0.21872,-0.26811 0.53622,-0.42334 0.32456,-0.16227 0.74789,-0.16227 0.45156,0 0.80434,0.19755 0.35983,0.19756 0.55738,0.55739 0.20462,0.35983 0.20462,0.83961 0,0.35984 -0.11995,0.6985 -0.11289,0.33867 -0.33161,0.64911 -0.21167,0.31045 -0.51506,0.59267 -0.30339,0.27517 -0.68439,0.51506 -0.381,0.23283 -0.81844,0.42333 l 0.254,-0.40217 h 2.40595 v 0.90312 z m 5.65855,0.0705 q -0.47272,0 -0.79022,-0.16228 -0.3175,-0.16933 -0.508,-0.4445 -0.1905,-0.27516 -0.28928,-0.60678 -0.0988,-0.33866 -0.13406,-0.68438 -0.0282,-0.35278 -0.0282,-0.66323 0,-0.28928 0.0282,-0.62794 0.0353,-0.33867 0.127,-0.67028 0.0988,-0.33161 0.28928,-0.59972 0.1905,-0.27517 0.508,-0.43745 0.3175,-0.16933 0.79728,-0.16933 0.47978,0 0.79728,0.16228 0.3175,0.16227 0.508,0.43744 0.1905,0.27517 0.28222,0.60678 0.0988,0.33161 0.127,0.67028 0.0353,0.33866 0.0353,0.635 0,0.31044 -0.0353,0.66322 -0.0282,0.34572 -0.127,0.68439 -0.0988,0.33161 -0.28928,0.60678 -0.1905,0.26811 -0.508,0.43744 -0.3175,0.16228 -0.79022,0.16228 z m 0,-0.93133 q 0.32456,0 0.48683,-0.21873 0.16228,-0.21872 0.21167,-0.58561 0.0564,-0.36689 0.0564,-0.79022 0,-0.4445 -0.0564,-0.81139 -0.0494,-0.36689 -0.21167,-0.57855 -0.16227,-0.21873 -0.48683,-0.21873 -0.24694,0 -0.40217,0.127 -0.14816,0.127 -0.22577,0.35278 -0.0706,0.21872 -0.0988,0.51506 -0.0282,0.28927 -0.0282,0.61383 0,0.31044 0.0282,0.59972 0.0282,0.28928 0.0988,0.51506 0.0776,0.21872 0.22577,0.35278 0.15523,0.127 0.40217,0.127 z m 3.95111,0.93133 q -0.48683,0 -0.91722,-0.16933 -0.43039,-0.16934 -0.69145,-0.51506 -0.26105,-0.34572 -0.26105,-0.86078 0,-0.37394 0.15522,-0.68439 0.15522,-0.31044 0.48683,-0.51505 -0.1905,-0.15522 -0.30339,-0.36689 -0.11288,-0.21872 -0.11288,-0.51506 0,-0.45155 0.23283,-0.76905 0.23283,-0.32456 0.60678,-0.49389 0.37394,-0.16934 0.80433,-0.16934 0.43745,0 0.81139,0.17639 0.37395,0.16934 0.59267,0.49389 0.22578,0.3175 0.22578,0.76906 0,0.28928 -0.10584,0.508 -0.0988,0.21167 -0.29633,0.36689 0.33161,0.20461 0.48683,0.51505 0.15522,0.31045 0.15522,0.68439 0,0.51506 -0.26105,0.86078 -0.26106,0.34572 -0.69145,0.51506 -0.42333,0.16933 -0.91722,0.16933 z m 0,-0.91722 q 0.26106,0 0.46567,-0.0776 0.20461,-0.0847 0.3175,-0.24695 0.11289,-0.16228 0.11289,-0.40216 0,-0.23284 -0.11289,-0.38806 -0.11289,-0.16228 -0.3175,-0.23989 -0.20461,-0.0847 -0.46567,-0.0847 -0.26105,0 -0.46567,0.0847 -0.20461,0.0776 -0.32455,0.23989 -0.11289,0.15522 -0.11289,0.38806 0,0.23988 0.11289,0.40216 0.11994,0.16228 0.32455,0.24695 0.20462,0.0776 0.46567,0.0776 z m 0,-2.0955 q 0.30339,0 0.48684,-0.14817 0.18344,-0.14817 0.18344,-0.39511 0,-0.26811 -0.17639,-0.42334 -0.17639,-0.15522 -0.49389,-0.15522 -0.20461,0 -0.35983,0.0706 -0.14817,0.0635 -0.23284,0.19755 -0.0776,0.127 -0.0776,0.30339 0,0.254 0.18345,0.40217 0.1905,0.14817 0.48683,0.14817 z m 2.24367,2.94217 v -0.71967 q 0.21872,-0.15522 0.51505,-0.36689 0.29634,-0.21167 0.59973,-0.46567 0.31044,-0.254 0.5715,-0.54328 0.26105,-0.29633 0.42333,-0.60677 0.16933,-0.3175 0.16933,-0.64912 0,-0.28222 -0.14816,-0.47977 -0.14817,-0.20462 -0.47978,-0.20462 -0.28222,0 -0.43745,0.14817 -0.15522,0.14817 -0.22577,0.36689 -0.0706,0.21872 -0.0847,0.43745 l -0.9525,-0.0776 q 0,-0.32455 0.11289,-0.64205 0.11289,-0.32456 0.33161,-0.58561 0.21872,-0.26811 0.53622,-0.42334 0.32456,-0.16227 0.74789,-0.16227 0.45156,0 0.80433,0.19755 0.35984,0.19756 0.55739,0.55739 0.20461,0.35983 0.20461,0.83961 0,0.35984 -0.11994,0.6985 -0.11289,0.33867 -0.33161,0.64911 -0.21167,0.31045 -0.51506,0.59267 -0.30339,0.27517 -0.68439,0.51506 -0.381,0.23283 -0.81844,0.42333 l 0.254,-0.40217 h 2.40594 v 0.90312 z"
         id="text1-8-5-9"
         aria-label="MAY 30TH, 2082" />
    </g>
  </g>
</svg>
