<?xml version="1.0" encoding="UTF-8" standalone="no"?>
<!-- Created with Inkscape (http://www.inkscape.org/) -->

<svg
   width="1920"
   height="1080"
   viewBox="0 0 507.99999 285.75"
   version="1.1"
   id="svg1"
   sodipodi:docname="titleScreenMainTitle.svg"
   inkscape:version="1.4.2 (ebf0e940d0, 2025-05-08)"
   xmlns:inkscape="http://www.inkscape.org/namespaces/inkscape"
   xmlns:sodipodi="http://sodipodi.sourceforge.net/DTD/sodipodi-0.dtd"
   xmlns="http://www.w3.org/2000/svg"
   xmlns:svg="http://www.w3.org/2000/svg">
  <sodipodi:namedview
     id="namedview1"
     pagecolor="#ffffff"
     bordercolor="#000000"
     borderopacity="0.25"
     inkscape:showpageshadow="2"
     inkscape:pageopacity="0.0"
     inkscape:pagecheckerboard="0"
     inkscape:deskcolor="#d1d1d1"
     inkscape:zoom="0.72592593"
     inkscape:cx="959.46429"
     inkscape:cy="540"
     inkscape:window-width="1920"
     inkscape:window-height="1002"
     inkscape:window-x="0"
     inkscape:window-y="0"
     inkscape:window-maximized="1"
     inkscape:current-layer="svg1" />
  <defs
     id="defs1">
    <linearGradient
       id="swatch2">
      <stop
         style="stop-color:#000000;stop-opacity:1;"
         offset="0"
         id="stop2" />
    </linearGradient>
  </defs>
  <g
     id="layer1">
    <g
       id="g35">
      <path
         style="font-size:56.2473px;font-family:'Microstyle Bold Extended ATT';-inkscape-font-specification:'Microstyle Bold Extended ATT, Normal';fill:#e4ff3a;stroke-width:4.68727"
         d="m 50.364446,147.90163 q -2.416876,0.0275 -4.256998,-0.10986 -4.696429,-0.21972 -7.168235,-2.88377 -1.071115,-1.09858 -1.565476,-2.27956 -1.345761,-2.96616 -1.373225,-10.71115 l 0.05493,-4.28446 q 0.137322,-4.3394 1.043651,-7.2781 1.153509,-3.62531 5.053468,-5.05347 2.828844,-1.04365 14.693508,-1.07111 l 7.223164,0.0275 q 7.717525,0.0549 10.161866,0.90633 5.24572,1.84012 5.987261,7.69006 0.219716,1.78519 0.247181,4.80629 l 0.08239,5.43797 q -0.02746,3.35067 -0.274645,5.71262 -0.219716,1.92251 -1.016186,3.70771 -2.334483,5.30064 -9.365395,5.43797 -0.988722,0.0549 -5.108398,0.0275 z m 12.825922,-8.4316 q 2.444341,0.0275 3.59785,-0.16479 2.032373,-0.30211 2.856308,-1.92252 0.8514,-1.64787 0.8514,-7.1957 -0.05493,-2.9387 -0.274645,-4.03728 -0.466897,-2.33448 -2.471805,-2.88377 -1.428155,-0.3845 -3.185883,-0.43943 -2.718985,-0.0549 -6.426693,-0.0824 h -3.625314 q -2.032373,0.0275 -4.064746,0.13733 -2.471806,0.16478 -3.515457,1.7028 -0.906328,1.37322 -0.878864,7.9647 0.02747,4.66897 1.538012,5.8774 1.09858,0.90633 6.124584,0.9338 z M 87.24927,114.61465 h 10.052007 v 18.70333 q -0.02746,1.26336 0.02747,1.84012 0.05493,3.7901 4.751358,4.09221 2.9387,0.21972 5.82248,0.21972 4.66896,-0.0275 6.56401,-0.24719 4.11968,-0.52182 4.31193,-4.06474 0.0549,-1.04365 0.0824,-2.52674 v -18.01671 h 10.05201 v 21.61456 l -0.13732,1.53802 q -0.38451,4.44925 -2.30702,6.64641 -1.92252,2.16969 -6.15205,3.04856 -1.07112,0.24718 -1.48308,0.27464 -2.30702,0.24718 -12.02946,0.24718 l -7.085836,-0.10986 q -8.651318,-0.10986 -10.711156,-4.97107 -1.483083,-3.26828 -1.675335,-7.44288 l -0.08239,-2.66406 z m 86.12867,0 v 8.514 h -14.44632 v 24.47087 h -10.05201 v -24.47087 h -14.44633 v -8.514 z m 13.84212,21.80682 q 0.0275,2.66405 1.34576,3.35066 0.8514,0.43944 3.7901,0.54929 l 2.85631,0.0824 h 7.36048 2.66406 q 3.13095,-0.0824 3.04856,-2.58166 -0.0549,-2.19716 -2.0873,-2.49927 -0.54929,-0.0549 -2.03238,-0.13733 l -2.03237,-0.0824 -6.04219,-0.24718 -2.9387,-0.16479 -5.05347,-0.27464 q -2.74645,-0.10986 -4.66897,-0.43943 -4.28446,-0.71408 -5.24572,-4.257 -0.60421,-2.00491 -0.57675,-4.28446 0,-4.17461 0.76901,-6.06966 1.29083,-3.15842 4.22953,-4.14714 2.96617,-1.01619 12.27663,-0.98872 4.99854,0.0275 9.47525,0.21971 6.50909,0.24718 9.28301,1.64787 3.43306,1.7028 3.68024,7.14077 v 2.22463 h -10.05201 l -0.16479,-1.20844 q -0.32957,-1.67533 -1.73026,-2.11477 -0.60422,-0.19225 -2.85631,-0.27464 l -2.71898,-0.10986 h -5.87741 l -2.60912,0.0824 q -1.12605,0.0549 -1.97745,0.3021 -1.64787,0.38451 -1.67533,2.27956 -0.0549,1.94998 2.03237,2.44434 1.04365,0.21972 2.22463,0.24718 l 2.60912,0.0549 9.25554,0.30211 5.38304,0.21971 q 2.30702,0.13733 4.257,0.76901 4.91615,1.64787 4.91615,9.47525 -0.0549,8.70625 -7.96471,9.69497 -1.29083,0.19225 -2.88377,0.21972 -3.29574,0.16479 -6.67388,0.13732 -3.65278,-0.0275 -10.87594,-0.24718 -2.14223,-0.0549 -3.73517,-0.19225 -4.39432,-0.30211 -6.64641,-2.25209 -2.00491,-1.75773 -2.27955,-6.56402 l -0.10986,-2.30701 z m 37.26933,-21.80682 h 10.05201 v 12.33156 h 22.3561 v -12.33156 h 10.05201 v 32.98487 H 256.8975 v -12.13931 h -22.3561 v 12.13931 h -10.05201 z m 50.45228,0 h 10.05201 v 32.98487 h -10.05201 z m 42.35027,0 4.17461,0.0549 q 2.63659,0.0824 4.83375,0.60422 4.58657,1.09858 5.71262,5.71262 0.71407,2.77391 0.68661,5.82247 -0.0275,8.92596 -4.00982,11.3703 -1.6204,1.04365 -3.95489,1.29084 -1.56547,0.19225 -3.18588,0.19225 h -18.12657 v 7.93724 h -10.05201 v -32.98487 z m -13.86957,8.514 v 8.01963 h 12.66114 l 3.13095,-0.0549 q 2.19716,-0.10986 2.77391,-1.15351 0.65915,-1.15351 0.65915,-3.04856 -0.0549,-3.46052 -2.88377,-3.65278 -1.42815,-0.10985 -4.28446,-0.10985 z m 59.7078,-8.514 4.17461,0.0549 q 2.63659,0.0824 4.83375,0.60422 4.58657,1.09858 5.71261,5.71262 0.71408,2.77391 0.68662,5.82247 -0.0275,8.92596 -4.00982,11.3703 -1.62041,1.04365 -3.95489,1.29084 -1.56548,0.19225 -3.18588,0.19225 H 349.2606 v 7.93724 h -10.05201 v -32.98487 z m -13.86957,8.514 v 8.01963 h 12.66113 l 3.13096,-0.0549 q 2.19716,-0.10986 2.77391,-1.15351 0.65915,-1.15351 0.65915,-3.04856 -0.0549,-3.46052 -2.88377,-3.65278 -1.42816,-0.10985 -4.28447,-0.10985 z m 35.53907,-8.514 h 36.2806 v 7.69006 h -26.2286 v 4.50418 h 24.77298 v 7.14077 h -24.77298 v 5.9598 h 26.53071 v 7.69006 h -36.58271 z m 74.20911,0 q 2.0049,0 3.59785,0.13732 1.78519,0.13733 3.29574,0.79647 1.97744,0.82394 3.07602,2.19716 2.27955,2.88378 2.69152,7.03092 0.30211,3.07602 0.32957,7.63513 -0.0275,4.39432 -0.32957,6.17951 -0.60422,3.51546 -2.36195,5.68515 -1.73026,2.14223 -5.24572,2.91124 -1.86758,0.41197 -6.12458,0.41197 h -29.60673 v -32.98487 z m -20.62585,8.514 v 15.95687 h 17.96179 q 3.18588,-0.0275 4.31193,-1.29083 1.07111,-1.15351 1.2359,-4.42178 0.0549,-1.53802 0.0549,-2.71899 -0.0275,-2.49927 -0.38451,-4.36686 -0.63168,-3.18588 -5.21825,-3.15841 z"
         id="text13"
         aria-label="OUTSHIPPED" />
    </g>
  </g>
</svg>
